<?xml version="1.0" encoding="UTF-8"?>
<svg id="Layer_1" xmlns="http://www.w3.org/2000/svg" xmlns:xlink="http://www.w3.org/1999/xlink" version="1.1" viewBox="0 0 175.7 50.3">
  <!-- Generator: Adobe Illustrator 29.4.0, SVG Export Plug-In . SVG Version: 2.1.0 Build 152)  -->
  <defs>
    <style>
      .st0 {
        clip-path: url(#clippath-17);
      }

      .st1 {
        clip-path: url(#clippath-19);
      }

      .st2 {
        clip-path: url(#clippath-11);
      }

      .st3 {
        clip-path: url(#clippath-16);
      }

      .st4 {
        clip-path: url(#clippath-18);
      }

      .st5 {
        clip-path: url(#clippath-10);
      }

      .st6 {
        clip-path: url(#clippath-15);
      }

      .st7 {
        clip-path: url(#clippath-13);
      }

      .st8 {
        clip-path: url(#clippath-14);
      }

      .st9 {
        clip-path: url(#clippath-12);
      }

      .st10 {
        clip-path: url(#clippath-20);
      }

      .st11 {
        clip-path: url(#clippath-21);
      }

      .st12 {
        clip-path: url(#clippath-22);
      }

      .st13 {
        clip-path: url(#clippath-23);
      }

      .st14 {
        clip-path: url(#clippath-1);
      }

      .st15 {
        clip-path: url(#clippath-3);
      }

      .st16 {
        clip-path: url(#clippath-4);
      }

      .st17 {
        clip-path: url(#clippath-2);
      }

      .st18 {
        clip-path: url(#clippath-7);
      }

      .st19 {
        clip-path: url(#clippath-6);
      }

      .st20 {
        clip-path: url(#clippath-9);
      }

      .st21 {
        clip-path: url(#clippath-8);
      }

      .st22 {
        clip-path: url(#clippath-5);
      }

      .st23 {
        fill: #fff;
      }

      .st24 {
        clip-path: url(#clippath);
      }
    </style>
    <clipPath id="clippath">
      <path class="st23" d="M21.32,18.68h-1.17c-.32,0-.61.14-.82.35-.21.21-.34.5-.34.82v1.17s0,1.17,0,1.17c0,.32.13.61.34.82.21.21.5.34.82.34h1.17s1.17,0,1.17,0c.32,0,.61-.13.82-.34.21-.21.34-.5.34-.82v-1.17s0-1.17,0-1.17c0-.32-.13-.61-.34-.82-.21-.21-.5-.34-.82-.34h-1.17Z"/>
    </clipPath>
    <clipPath id="clippath-1">
      <path class="st23" d="M27.93,18.68h-1.17c-.32,0-.61.14-.82.35-.21.21-.34.5-.34.82v1.17s0,1.17,0,1.17c0,.32.13.61.34.82s.5.34.82.34h1.17s1.17,0,1.17,0c.32,0,.61-.13.82-.34.21-.21.34-.5.34-.82v-1.17s0-1.17,0-1.17c0-.32-.13-.61-.34-.82-.21-.21-.5-.34-.82-.34h-1.17Z"/>
    </clipPath>
    <clipPath id="clippath-2">
      <path class="st23" d="M35.71,18.68h-1.17s-1.17,0-1.17,0c-.32,0-.61.13-.82.34-.21.21-.34.5-.34.82v1.17s0,1.17,0,1.17c0,.32.13.61.34.82.21.21.5.34.82.34h1.17s1.17,0,1.17,0c.32,0,.61-.13.82-.34.21-.21.34-.5.34-.82v-1.17s.02-1.17.02-1.17c0,0,0,0,0-.01h0c0-.33-.15-.62-.36-.83-.21-.2-.49-.32-.8-.32-.01,0-.02,0-.03,0"/>
    </clipPath>
    <clipPath id="clippath-3">
      <path class="st23" d="M35.71,18.68h-1.17s-1.17,0-1.17,0c-.32,0-.61.13-.82.34-.21.21-.34.5-.34.82v1.17s0,1.17,0,1.17c0,.32.13.61.34.82.21.21.5.34.82.34h1.17s1.17,0,1.17,0c.32,0,.61-.13.82-.34.21-.21.34-.5.34-.82v-1.17s.02-1.17.02-1.17c0,0,0,0,0-.01h0c0-.33-.15-.62-.36-.83-.21-.2-.49-.32-.8-.32-.01,0-.02,0-.03,0"/>
    </clipPath>
    <clipPath id="clippath-4">
      <path class="st23" d="M22.49,25.28h-1.17s-1.17,0-1.17,0c-.32,0-.61.13-.82.34-.21.21-.34.5-.34.82v1.17s0,1.17,0,1.17c0,.32.13.61.34.82.21.21.5.34.82.34h1.17s1.17,0,1.17,0c.32,0,.61-.13.82-.34.21-.21.34-.5.34-.82v-1.17s0-1.17,0-1.17c0-.32-.13-.61-.34-.82-.21-.21-.5-.34-.82-.34h0"/>
    </clipPath>
    <clipPath id="clippath-5">
      <path class="st23" d="M22.49,25.28h-1.17s-1.17,0-1.17,0c-.32,0-.61.13-.82.34-.21.21-.34.5-.34.82v1.17s0,1.17,0,1.17c0,.32.13.61.34.82.21.21.5.34.82.34h1.17s1.17,0,1.17,0c.32,0,.61-.13.82-.34.21-.21.34-.5.34-.82v-1.17s0-1.17,0-1.17c0-.32-.13-.61-.34-.82-.21-.21-.5-.34-.82-.34h0"/>
    </clipPath>
    <clipPath id="clippath-6">
      <path class="st23" d="M29.1,25.28h-1.17s-1.17,0-1.17,0c-.32,0-.61.13-.82.34-.21.21-.34.5-.34.82v1.17s0,1.17,0,1.17c0,.32.13.61.34.82.21.21.5.34.82.34h1.17s1.17,0,1.17,0c.32,0,.61-.13.82-.34.21-.21.34-.5.34-.82v-1.17s0-1.17,0-1.17c0-.32-.13-.61-.34-.82-.21-.21-.5-.34-.82-.34h0"/>
    </clipPath>
    <clipPath id="clippath-7">
      <path class="st23" d="M29.1,25.28h-1.17s-1.17,0-1.17,0c-.32,0-.61.13-.82.34-.21.21-.34.5-.34.82v1.17s0,1.17,0,1.17c0,.32.13.61.34.82.21.21.5.34.82.34h1.17s1.17,0,1.17,0c.32,0,.61-.13.82-.34.21-.21.34-.5.34-.82v-1.17s0-1.17,0-1.17c0-.32-.13-.61-.34-.82-.21-.21-.5-.34-.82-.34h0"/>
    </clipPath>
    <clipPath id="clippath-8">
      <path class="st23" d="M35.71,25.28h-1.17s-1.17,0-1.17,0c-.32,0-.61.13-.82.34-.21.21-.34.5-.34.82v1.17s0,1.17,0,1.17c0,.32.13.61.34.82.21.21.5.34.82.34h1.17s1.17,0,1.17,0c.32,0,.61-.13.82-.34.21-.21.34-.5.34-.82v-1.17s0-1.17,0-1.17c0-.32-.13-.61-.34-.82-.21-.21-.5-.34-.82-.34h0"/>
    </clipPath>
    <clipPath id="clippath-9">
      <path class="st23" d="M35.71,25.28h-1.17s-1.17,0-1.17,0c-.32,0-.61.13-.82.34-.21.21-.34.5-.34.82v1.17s0,1.17,0,1.17c0,.32.13.61.34.82.21.21.5.34.82.34h1.17s1.17,0,1.17,0c.32,0,.61-.13.82-.34.21-.21.34-.5.34-.82v-1.17s0-1.17,0-1.17c0-.32-.13-.61-.34-.82-.21-.21-.5-.34-.82-.34h0"/>
    </clipPath>
    <clipPath id="clippath-10">
      <path class="st23" d="M21.32,31.89h-1.17c-.32,0-.61.14-.82.35-.21.21-.34.5-.34.82v1.17s0,1.17,0,1.17c0,.32.13.61.34.82.21.21.5.34.82.34h1.17s1.17,0,1.17,0c.32,0,.61-.13.82-.34.21-.21.34-.5.34-.82v-1.17s0-1.17,0-1.17c0-.32-.13-.61-.34-.82-.21-.21-.5-.34-.82-.34h-1.17Z"/>
    </clipPath>
    <clipPath id="clippath-11">
      <path class="st23" d="M27.94,31.89h-1.17c-.32,0-.61.14-.82.35-.21.21-.34.5-.34.82v1.17s0,1.17,0,1.17c0,.32.13.61.34.82.21.21.5.34.82.34h1.17s1.17,0,1.17,0c.32,0,.61-.13.82-.34.21-.21.34-.5.34-.82v-1.17s0-1.17,0-1.17c0-.32-.13-.61-.34-.82-.21-.21-.5-.34-.82-.34h-1.17Z"/>
    </clipPath>
    <clipPath id="clippath-12">
      <path class="st23" d="M34.55,31.89h-1.17c-.32,0-.61.14-.82.35-.21.21-.34.5-.34.82v1.17s0,1.17,0,1.17c0,.32.13.61.34.82.21.21.5.34.82.34h1.17s1.17,0,1.17,0c.32,0,.61-.13.82-.34.21-.21.34-.5.34-.82v-1.17s0-1.17,0-1.17c0-.32-.13-.61-.34-.82-.21-.21-.5-.34-.82-.34h-1.17Z"/>
    </clipPath>
    <clipPath id="clippath-13">
      <path class="st23" d="M8.61,39.06c-1.84-1.67-3.04-4.01-3.16-6.65-.08-1.82.33-3.56,1.15-5.09.82-1.52,2.05-2.82,3.62-3.76l.65-.39.65-.39c.17-.1.32-.23.43-.39.12-.15.21-.33.26-.52l.21-.73.21-.73c.98-3.36,3.05-6.22,5.74-8.24,2.69-2.02,6.01-3.21,9.52-3.22,3.51-.01,6.84,1.15,9.54,3.15,2.7,2,4.78,4.85,5.79,8.2l.22.73.22.73c.06.19.15.36.27.52.12.15.27.28.44.38l.65.39.65.39c1.57.92,2.81,2.22,3.64,3.73.83,1.52,1.25,3.26,1.18,5.08-.1,2.64-1.29,4.99-3.11,6.67-1.82,1.69-4.28,2.71-6.93,2.72l-12.45.04-12.45.04h-.04c-2.63,0-5.08-1.01-6.91-2.67M27.88,3.52c-4.75.02-9.13,1.58-12.67,4.21-3.54,2.63-6.24,6.33-7.62,10.62-.06.17-.14.34-.25.48-.11.14-.24.27-.4.37-2.19,1.42-3.99,3.39-5.2,5.7C.52,27.22-.12,29.89.02,32.72c.2,4.09,2.06,7.7,4.9,10.28,2.83,2.58,6.64,4.13,10.74,4.12h24.74c4.1-.01,7.89-1.62,10.71-4.24,2.82-2.62,4.65-6.26,4.82-10.36.12-2.83-.54-5.5-1.77-7.8-1.23-2.31-3.05-4.26-5.24-5.67-.15-.1-.29-.22-.4-.36-.11-.14-.2-.3-.25-.48-1.41-4.28-4.13-7.96-7.69-10.57-3.54-2.59-7.9-4.12-12.62-4.12h-.07"/>
    </clipPath>
    <clipPath id="clippath-14">
      <path class="st23" d="M77.64,31.25c-.61-.25-1.15-.63-1.63-1.14-.47-.51-.83-1.11-1.07-1.81-.24-.7-.36-1.49-.36-2.38,0-.89.11-1.68.35-2.38.23-.7.59-1.31,1.06-1.82.47-.51,1.01-.9,1.62-1.15s1.28-.39,2.02-.39c.74,0,1.41.12,2.02.38.61.25,1.15.63,1.63,1.14.47.51.83,1.11,1.07,1.81.24.7.36,1.49.36,2.38,0,.89-.11,1.68-.35,2.38-.24.7-.59,1.31-1.06,1.82-.47.51-1.01.9-1.62,1.16-.61.26-1.28.39-2.02.39h-.02c-.73,0-1.4-.13-2-.38M80.39,13.46c-1.58,0-2.97.24-4.15.71-1.18.47-2.17,1.17-2.95,2.11v-.5s.02-.5.02-.5c0-.44-.18-.83-.47-1.11-.29-.28-.68-.46-1.12-.46h-2.44s-2.44.02-2.44.02c-.44,0-.83.18-1.11.47-.28.29-.46.68-.46,1.12l.04,15.11.04,15.11c0,.44.18.83.47,1.11.29.28.68.46,1.12.46h2.64s2.64-.02,2.64-.02c.44,0,.83-.18,1.11-.47.28-.29.46-.68.46-1.12v-4.84s0-4.84,0-4.84c.83.84,1.8,1.47,2.91,1.89,1.11.42,2.37.62,3.77.62,1.1,0,2.14-.14,3.14-.39.99-.26,1.94-.65,2.83-1.16.89-.51,1.7-1.13,2.4-1.86.71-.73,1.32-1.56,1.85-2.5.52-.94.91-1.96,1.17-3.05.26-1.09.39-2.26.38-3.5,0-1.24-.14-2.41-.41-3.5-.27-1.09-.66-2.1-1.19-3.04-.53-.94-1.15-1.77-1.86-2.49-.71-.72-1.52-1.34-2.42-1.85-.9-.51-1.84-.89-2.84-1.14-.98-.25-2.02-.37-3.1-.37h-.04"/>
    </clipPath>
    <clipPath id="clippath-15">
      <path class="st23" d="M77.64,31.25c-.61-.25-1.15-.63-1.63-1.14-.47-.51-.83-1.11-1.07-1.81-.24-.7-.36-1.49-.36-2.38,0-.89.11-1.68.35-2.38.23-.7.59-1.31,1.06-1.82.47-.51,1.01-.9,1.62-1.15s1.28-.39,2.02-.39c.74,0,1.41.12,2.02.38.61.25,1.15.63,1.63,1.14.47.51.83,1.11,1.07,1.81.24.7.36,1.49.36,2.38,0,.89-.11,1.68-.35,2.38-.24.7-.59,1.31-1.06,1.82-.47.51-1.01.9-1.62,1.16-.61.26-1.28.39-2.02.39h-.02c-.73,0-1.4-.13-2-.38M80.39,13.46c-1.58,0-2.97.24-4.15.71-1.18.47-2.17,1.17-2.95,2.11v-.5s.02-.5.02-.5c0-.44-.18-.83-.47-1.11-.29-.28-.68-.46-1.12-.46h-2.44s-2.44.02-2.44.02c-.44,0-.83.18-1.11.47-.28.29-.46.68-.46,1.12l.04,15.11.04,15.11c0,.44.18.83.47,1.11.29.28.68.46,1.12.46h2.64s2.64-.02,2.64-.02c.44,0,.83-.18,1.11-.47.28-.29.46-.68.46-1.12v-4.84s0-4.84,0-4.84c.83.84,1.8,1.47,2.91,1.89,1.11.42,2.37.62,3.77.62,1.1,0,2.14-.14,3.14-.39.99-.26,1.94-.65,2.83-1.16.89-.51,1.7-1.13,2.4-1.86.71-.73,1.32-1.56,1.85-2.5.52-.94.91-1.96,1.17-3.05.26-1.09.39-2.26.38-3.5,0-1.24-.14-2.41-.41-3.5-.27-1.09-.66-2.1-1.19-3.04-.53-.94-1.15-1.77-1.86-2.49-.71-.72-1.52-1.34-2.42-1.85-.9-.51-1.84-.89-2.84-1.14-.98-.25-2.02-.37-3.1-.37h-.04"/>
    </clipPath>
    <clipPath id="clippath-16">
      <path class="st23" d="M102.94,5.36h-2.64s-2.64.02-2.64.02c-.44,0-.83.18-1.11.47-.29.29-.46.68-.46,1.12v14.9s0,14.9,0,14.9c0,.44.18.83.47,1.11.29.29.68.46,1.12.46h2.64s2.64-.02,2.64-.02c.44,0,.83-.18,1.11-.47.28-.29.46-.68.46-1.12V6.93c0-.44-.18-.83-.47-1.11-.29-.28-.68-.46-1.11-.46h0"/>
    </clipPath>
    <clipPath id="clippath-17">
      <path class="st23" d="M102.94,5.36h-2.64s-2.64.02-2.64.02c-.44,0-.83.18-1.11.47-.29.29-.46.68-.46,1.12v14.9s0,14.9,0,14.9c0,.44.18.83.47,1.11.29.29.68.46,1.12.46h2.64s2.64-.02,2.64-.02c.44,0,.83-.18,1.11-.47.28-.29.46-.68.46-1.12V6.93c0-.44-.18-.83-.47-1.11-.29-.28-.68-.46-1.11-.46h0"/>
    </clipPath>
    <clipPath id="clippath-18">
      <path class="st23" d="M113.77,5.36h-2.6c-.45,0-.85.18-1.14.47-.29.29-.47.69-.47,1.14v3.87c0,.44.18.85.47,1.14.29.29.7.47,1.14.47h5.21c.45,0,.85-.18,1.14-.47.29-.29.47-.7.47-1.14v-3.87c0-.45-.18-.85-.47-1.14-.29-.29-.69-.47-1.14-.47h-2.6Z"/>
    </clipPath>
    <clipPath id="clippath-19">
      <path class="st23" d="M113.77,14.18h-2.6c-.45,0-.85.18-1.14.47-.29.29-.47.69-.47,1.14v20.92c0,.44.18.85.47,1.14.29.29.7.47,1.14.47h5.21c.45,0,.85-.18,1.14-.47.29-.29.47-.7.47-1.14V15.8c0-.44-.18-.85-.47-1.14-.29-.29-.69-.47-1.14-.47h-2.6Z"/>
    </clipPath>
    <clipPath id="clippath-20">
      <path class="st23" d="M127.51,14.17h-1.31s-1.31,0-1.31,0h-1.31s-1.31,0-1.31,0c-.28,0-.54.07-.76.2-.22.12-.41.3-.55.51-.14.21-.23.45-.26.7-.03.25,0,.52.11.78l2.15,5.25,2.15,5.25,2.15,5.25,2.15,5.25c.06.15.14.28.24.4.1.12.21.22.34.31.13.08.27.15.42.2.15.05.3.07.46.07h6.61c.16,0,.31-.03.46-.07.15-.05.29-.11.41-.2.13-.09.24-.19.34-.31.1-.12.18-.25.24-.4l2.15-5.25,2.15-5.25,2.15-5.25,2.15-5.25c.11-.26.14-.53.11-.78-.03-.25-.12-.49-.26-.7-.14-.21-.33-.38-.55-.5-.22-.12-.48-.19-.76-.19h-1.16s-1.16,0-1.16,0h-1.16s-1.16,0-1.16,0c-.16,0-.32.03-.46.07-.15.05-.29.12-.41.21-.13.09-.24.2-.34.32-.1.12-.18.26-.24.41l-1.4,3.42-1.4,3.42-1.4,3.42-1.4,3.42-1.36-3.42-1.36-3.42-1.36-3.42-1.36-3.42c-.06-.15-.14-.29-.24-.41-.1-.12-.21-.23-.34-.31-.13-.09-.27-.16-.42-.2-.15-.05-.3-.07-.46-.07h0"/>
    </clipPath>
    <clipPath id="clippath-21">
      <path class="st23" d="M141.01,14.24c-.15.05-.29.12-.41.21-.13.09-.24.2-.34.32-.1.12-.18.26-.24.41l-1.4,3.42-1.4,3.42-1.4,3.42-1.4,3.42-1.36-3.42-1.36-3.42-1.36-3.42-1.36-3.42c-.06-.15-.14-.29-.24-.41-.1-.12-.21-.23-.34-.31-.13-.09-.27-.16-.42-.2-.15-.05-.3-.07-.46-.07h-1.31s-1.31,0-1.31,0h-1.31s-1.31,0-1.31,0c-.28,0-.54.07-.76.2-.22.12-.41.3-.55.51-.14.21-.23.45-.26.7-.03.25,0,.52.11.78l2.15,5.25,2.15,5.25,2.15,5.25,2.15,5.25c.06.15.14.28.24.4.1.12.21.22.34.31.13.08.27.15.42.2.15.05.3.07.46.07h6.61c.16,0,.31-.03.46-.07.15-.05.29-.11.41-.2.13-.09.24-.19.34-.31.1-.12.18-.25.24-.4l2.15-5.25,2.15-5.25,2.15-5.25,2.15-5.25c.11-.26.14-.53.11-.78-.03-.25-.12-.49-.26-.7-.14-.21-.33-.38-.55-.5-.22-.12-.48-.19-.76-.19h-1.16s-1.16,0-1.16,0h-1.16s-1.16,0-1.16,0c-.16,0-.32.03-.46.07"/>
    </clipPath>
    <clipPath id="clippath-22">
      <path class="st23" d="M160.11,30.97c-.61-.25-1.15-.63-1.62-1.14-.48-.51-.83-1.12-1.07-1.82-.24-.71-.36-1.51-.36-2.41,0-.89.11-1.68.35-2.38.23-.7.59-1.3,1.06-1.8.47-.5,1.01-.88,1.62-1.14.61-.25,1.28-.38,2.02-.39.74,0,1.41.12,2.02.37.61.25,1.15.63,1.63,1.13.48.5.83,1.1,1.07,1.79.24.69.36,1.49.36,2.37,0,.9-.11,1.71-.35,2.42-.23.71-.59,1.32-1.06,1.83-.47.51-1.01.9-1.62,1.15-.61.26-1.28.39-2.02.39h-.02c-.73,0-1.4-.13-2-.38M162.07,13.18c-1.3,0-2.54.14-3.7.41-1.16.27-2.26.67-3.29,1.19-1.03.53-1.94,1.16-2.75,1.9-.8.74-1.5,1.58-2.08,2.53s-1.02,1.96-1.31,3.02c-.29,1.07-.43,2.19-.43,3.38,0,1.2.15,2.33.45,3.41.3,1.07.74,2.08,1.33,3.03.59.95,1.29,1.79,2.1,2.52.81.74,1.74,1.37,2.78,1.9,1.04.53,2.14.93,3.3,1.19,1.16.26,2.39.39,3.67.39,1.3,0,2.54-.14,3.71-.41,1.17-.27,2.27-.67,3.3-1.21,1.03-.54,1.95-1.18,2.76-1.92.8-.74,1.49-1.59,2.07-2.54.57-.95,1-1.96,1.29-3.03s.42-2.21.42-3.41c0-1.2-.15-2.33-.44-3.4-.29-1.07-.73-2.07-1.31-3.01-.58-.94-1.28-1.77-2.08-2.5-.81-.73-1.73-1.36-2.77-1.88-1.04-.52-2.14-.91-3.31-1.17-1.15-.25-2.36-.38-3.64-.38h-.07"/>
    </clipPath>
    <clipPath id="clippath-23">
      <path class="st23" d="M160.11,30.97c-.61-.25-1.15-.63-1.62-1.14-.48-.51-.83-1.12-1.07-1.82-.24-.71-.36-1.51-.36-2.41,0-.89.11-1.68.35-2.38.23-.7.59-1.3,1.06-1.8.47-.5,1.01-.88,1.62-1.14.61-.25,1.28-.38,2.02-.39.74,0,1.41.12,2.02.37.61.25,1.15.63,1.63,1.13.48.5.83,1.1,1.07,1.79.24.69.36,1.49.36,2.37,0,.9-.11,1.71-.35,2.42-.23.71-.59,1.32-1.06,1.83-.47.51-1.01.9-1.62,1.15-.61.26-1.28.39-2.02.39h-.02c-.73,0-1.4-.13-2-.38M162.07,13.18c-1.3,0-2.54.14-3.7.41-1.16.27-2.26.67-3.29,1.19-1.03.53-1.94,1.16-2.75,1.9-.8.74-1.5,1.58-2.08,2.53s-1.02,1.96-1.31,3.02c-.29,1.07-.43,2.19-.43,3.38,0,1.2.15,2.33.45,3.41.3,1.07.74,2.08,1.33,3.03.59.95,1.29,1.79,2.1,2.52.81.74,1.74,1.37,2.78,1.9,1.04.53,2.14.93,3.3,1.19,1.16.26,2.39.39,3.67.39,1.3,0,2.54-.14,3.71-.41,1.17-.27,2.27-.67,3.3-1.21,1.03-.54,1.95-1.18,2.76-1.92.8-.74,1.49-1.59,2.07-2.54.57-.95,1-1.96,1.29-3.03s.42-2.21.42-3.41c0-1.2-.15-2.33-.44-3.4-.29-1.07-.73-2.07-1.31-3.01-.58-.94-1.28-1.77-2.08-2.5-.81-.73-1.73-1.36-2.77-1.88-1.04-.52-2.14-.91-3.31-1.17-1.15-.25-2.36-.38-3.64-.38h-.07"/>
    </clipPath>
  </defs>
  <g>
    <path class="st23" d="M21.32,18.68h-1.17c-.32,0-.61.14-.82.35-.21.21-.34.5-.34.82v1.17s0,1.17,0,1.17c0,.32.13.61.34.82.21.21.5.34.82.34h1.17s1.17,0,1.17,0c.32,0,.61-.13.82-.34.21-.21.34-.5.34-.82v-1.17s0-1.17,0-1.17c0-.32-.13-.61-.34-.82-.21-.21-.5-.34-.82-.34h-1.17Z"/>
    <g class="st24">
      <rect class="st23" x="-197.01" y="-144.43" width="569.68" height="395.61"/>
      <rect class="st23" x="17.02" y="16.7" width="8.62" height="8.62"/>
    </g>
  </g>
  <g>
    <path class="st23" d="M27.93,18.68h-1.17c-.32,0-.61.14-.82.35-.21.21-.34.5-.34.82v1.17s0,1.17,0,1.17c0,.32.13.61.34.82s.5.34.82.34h1.17s1.17,0,1.17,0c.32,0,.61-.13.82-.34.21-.21.34-.5.34-.82v-1.17s0-1.17,0-1.17c0-.32-.13-.61-.34-.82-.21-.21-.5-.34-.82-.34h-1.17Z"/>
    <g class="st14">
      <rect class="st23" x="-197.01" y="-144.43" width="569.68" height="395.61"/>
      <rect class="st23" x="23.63" y="16.7" width="8.62" height="8.62"/>
    </g>
  </g>
  <g>
    <path class="st23" d="M35.71,18.68h-1.17s-1.17,0-1.17,0c-.32,0-.61.13-.82.34-.21.21-.34.5-.34.82v1.17s0,1.17,0,1.17c0,.32.13.61.34.82.21.21.5.34.82.34h1.17s1.17,0,1.17,0c.32,0,.61-.13.82-.34.21-.21.34-.5.34-.82v-1.17s.02-1.17.02-1.17c0,0,0,0,0-.01h0c0-.33-.15-.62-.36-.83-.21-.2-.49-.32-.8-.32-.01,0-.02,0-.03,0"/>
    <g class="st17">
      <rect class="st23" x="-197.01" y="-144.43" width="569.68" height="395.61"/>
    </g>
  </g>
  <g>
    <path class="st23" d="M35.71,18.68h-1.17s-1.17,0-1.17,0c-.32,0-.61.13-.82.34-.21.21-.34.5-.34.82v1.17s0,1.17,0,1.17c0,.32.13.61.34.82.21.21.5.34.82.34h1.17s1.17,0,1.17,0c.32,0,.61-.13.82-.34.21-.21.34-.5.34-.82v-1.17s.02-1.17.02-1.17c0,0,0,0,0-.01h0c0-.33-.15-.62-.36-.83-.21-.2-.49-.32-.8-.32-.01,0-.02,0-.03,0"/>
    <g class="st15">
      <rect class="st23" x="30.24" y="16.7" width="8.64" height="8.62"/>
    </g>
  </g>
  <g>
    <path class="st23" d="M22.49,25.28h-1.17s-1.17,0-1.17,0c-.32,0-.61.13-.82.34-.21.21-.34.5-.34.82v1.17s0,1.17,0,1.17c0,.32.13.61.34.82.21.21.5.34.82.34h1.17s1.17,0,1.17,0c.32,0,.61-.13.82-.34.21-.21.34-.5.34-.82v-1.17s0-1.17,0-1.17c0-.32-.13-.61-.34-.82-.21-.21-.5-.34-.82-.34h0"/>
    <g class="st16">
      <rect class="st23" x="-197.01" y="-144.43" width="569.68" height="395.61"/>
    </g>
  </g>
  <g>
    <path class="st23" d="M22.49,25.28h-1.17s-1.17,0-1.17,0c-.32,0-.61.13-.82.34-.21.21-.34.5-.34.82v1.17s0,1.17,0,1.17c0,.32.13.61.34.82.21.21.5.34.82.34h1.17s1.17,0,1.17,0c.32,0,.61-.13.82-.34.21-.21.34-.5.34-.82v-1.17s0-1.17,0-1.17c0-.32-.13-.61-.34-.82-.21-.21-.5-.34-.82-.34h0"/>
    <g class="st22">
      <rect class="st23" x="17.02" y="23.31" width="8.62" height="8.62"/>
    </g>
  </g>
  <g>
    <path class="st23" d="M29.1,25.28h-1.17s-1.17,0-1.17,0c-.32,0-.61.13-.82.34-.21.21-.34.5-.34.82v1.17s0,1.17,0,1.17c0,.32.13.61.34.82.21.21.5.34.82.34h1.17s1.17,0,1.17,0c.32,0,.61-.13.82-.34.21-.21.34-.5.34-.82v-1.17s0-1.17,0-1.17c0-.32-.13-.61-.34-.82-.21-.21-.5-.34-.82-.34h0"/>
    <g class="st19">
      <rect class="st23" x="-197.01" y="-144.43" width="569.68" height="395.61"/>
    </g>
  </g>
  <g>
    <path class="st23" d="M29.1,25.28h-1.17s-1.17,0-1.17,0c-.32,0-.61.13-.82.34-.21.21-.34.5-.34.82v1.17s0,1.17,0,1.17c0,.32.13.61.34.82.21.21.5.34.82.34h1.17s1.17,0,1.17,0c.32,0,.61-.13.82-.34.21-.21.34-.5.34-.82v-1.17s0-1.17,0-1.17c0-.32-.13-.61-.34-.82-.21-.21-.5-.34-.82-.34h0"/>
    <g class="st18">
      <rect class="st23" x="23.63" y="23.31" width="8.62" height="8.62"/>
    </g>
  </g>
  <g>
    <path class="st23" d="M35.71,25.28h-1.17s-1.17,0-1.17,0c-.32,0-.61.13-.82.34-.21.21-.34.5-.34.82v1.17s0,1.17,0,1.17c0,.32.13.61.34.82.21.21.5.34.82.34h1.17s1.17,0,1.17,0c.32,0,.61-.13.82-.34.21-.21.34-.5.34-.82v-1.17s0-1.17,0-1.17c0-.32-.13-.61-.34-.82-.21-.21-.5-.34-.82-.34h0"/>
    <g class="st21">
      <rect class="st23" x="-197.01" y="-144.43" width="569.68" height="395.61"/>
    </g>
  </g>
  <g>
    <path class="st23" d="M35.71,25.28h-1.17s-1.17,0-1.17,0c-.32,0-.61.13-.82.34-.21.21-.34.5-.34.82v1.17s0,1.17,0,1.17c0,.32.13.61.34.82.21.21.5.34.82.34h1.17s1.17,0,1.17,0c.32,0,.61-.13.82-.34.21-.21.34-.5.34-.82v-1.17s0-1.17,0-1.17c0-.32-.13-.61-.34-.82-.21-.21-.5-.34-.82-.34h0"/>
    <g class="st20">
      <rect class="st23" x="30.24" y="23.31" width="8.62" height="8.62"/>
    </g>
  </g>
  <g>
    <path class="st23" d="M21.32,31.89h-1.17c-.32,0-.61.14-.82.35-.21.21-.34.5-.34.82v1.17s0,1.17,0,1.17c0,.32.13.61.34.82.21.21.5.34.82.34h1.17s1.17,0,1.17,0c.32,0,.61-.13.82-.34.21-.21.34-.5.34-.82v-1.17s0-1.17,0-1.17c0-.32-.13-.61-.34-.82-.21-.21-.5-.34-.82-.34h-1.17Z"/>
    <g class="st5">
      <rect class="st23" x="-197.01" y="-144.43" width="569.68" height="395.61"/>
      <rect class="st23" x="17.02" y="29.91" width="8.62" height="8.62"/>
    </g>
  </g>
  <g>
    <path class="st23" d="M27.94,31.89h-1.17c-.32,0-.61.14-.82.35-.21.21-.34.5-.34.82v1.17s0,1.17,0,1.17c0,.32.13.61.34.82.21.21.5.34.82.34h1.17s1.17,0,1.17,0c.32,0,.61-.13.82-.34.21-.21.34-.5.34-.82v-1.17s0-1.17,0-1.17c0-.32-.13-.61-.34-.82-.21-.21-.5-.34-.82-.34h-1.17Z"/>
    <g class="st2">
      <rect class="st23" x="-197.01" y="-144.43" width="569.68" height="395.61"/>
      <rect class="st23" x="23.63" y="29.91" width="8.62" height="8.62"/>
    </g>
  </g>
  <g>
    <path class="st23" d="M34.55,31.89h-1.17c-.32,0-.61.14-.82.35-.21.21-.34.5-.34.82v1.17s0,1.17,0,1.17c0,.32.13.61.34.82.21.21.5.34.82.34h1.17s1.17,0,1.17,0c.32,0,.61-.13.82-.34.21-.21.34-.5.34-.82v-1.17s0-1.17,0-1.17c0-.32-.13-.61-.34-.82-.21-.21-.5-.34-.82-.34h-1.17Z"/>
    <g class="st9">
      <rect class="st23" x="-197.01" y="-144.43" width="569.68" height="395.61"/>
      <rect class="st23" x="30.24" y="29.91" width="8.62" height="8.62"/>
    </g>
  </g>
  <g>
    <path class="st23" d="M8.61,39.06c-1.84-1.67-3.04-4.01-3.16-6.65-.08-1.82.33-3.56,1.15-5.09.82-1.52,2.05-2.82,3.62-3.76l.65-.39.65-.39c.17-.1.32-.23.43-.39.12-.15.21-.33.26-.52l.21-.73.21-.73c.98-3.36,3.05-6.22,5.74-8.24,2.69-2.02,6.01-3.21,9.52-3.22,3.51-.01,6.84,1.15,9.54,3.15,2.7,2,4.78,4.85,5.79,8.2l.22.73.22.73c.06.19.15.36.27.52.12.15.27.28.44.38l.65.39.65.39c1.57.92,2.81,2.22,3.64,3.73.83,1.52,1.25,3.26,1.18,5.08-.1,2.64-1.29,4.99-3.11,6.67-1.82,1.69-4.28,2.71-6.93,2.72l-12.45.04-12.45.04h-.04c-2.63,0-5.08-1.01-6.91-2.67M27.88,3.52c-4.75.02-9.13,1.58-12.67,4.21-3.54,2.63-6.24,6.33-7.62,10.62-.06.17-.14.34-.25.48-.11.14-.24.27-.4.37-2.19,1.42-3.99,3.39-5.2,5.7C.52,27.22-.12,29.89.02,32.72c.2,4.09,2.06,7.7,4.9,10.28,2.83,2.58,6.64,4.13,10.74,4.12h24.74c4.1-.01,7.89-1.62,10.71-4.24,2.82-2.62,4.65-6.26,4.82-10.36.12-2.83-.54-5.5-1.77-7.8-1.23-2.31-3.05-4.26-5.24-5.67-.15-.1-.29-.22-.4-.36-.11-.14-.2-.3-.25-.48-1.41-4.28-4.13-7.96-7.69-10.57-3.54-2.59-7.9-4.12-12.62-4.12h-.07"/>
    <g class="st7">
      <rect class="st23" x="-197.01" y="-144.43" width="569.68" height="395.61"/>
    </g>
  </g>
  <g>
    <path class="st23" d="M77.64,31.25c-.61-.25-1.15-.63-1.63-1.14-.47-.51-.83-1.11-1.07-1.81-.24-.7-.36-1.49-.36-2.38,0-.89.11-1.68.35-2.38.23-.7.59-1.31,1.06-1.82.47-.51,1.01-.9,1.62-1.15s1.28-.39,2.02-.39c.74,0,1.41.12,2.02.38.61.25,1.15.63,1.63,1.14.47.51.83,1.11,1.07,1.81.24.7.36,1.49.36,2.38,0,.89-.11,1.68-.35,2.38-.24.7-.59,1.31-1.06,1.82-.47.51-1.01.9-1.62,1.16-.61.26-1.28.39-2.02.39h-.02c-.73,0-1.4-.13-2-.38M80.39,13.46c-1.58,0-2.97.24-4.15.71-1.18.47-2.17,1.17-2.95,2.11v-.5s.02-.5.02-.5c0-.44-.18-.83-.47-1.11-.29-.28-.68-.46-1.12-.46h-2.44s-2.44.02-2.44.02c-.44,0-.83.18-1.11.47-.28.29-.46.68-.46,1.12l.04,15.11.04,15.11c0,.44.18.83.47,1.11.29.28.68.46,1.12.46h2.64s2.64-.02,2.64-.02c.44,0,.83-.18,1.11-.47.28-.29.46-.68.46-1.12v-4.84s0-4.84,0-4.84c.83.84,1.8,1.47,2.91,1.89,1.11.42,2.37.62,3.77.62,1.1,0,2.14-.14,3.14-.39.99-.26,1.94-.65,2.83-1.16.89-.51,1.7-1.13,2.4-1.86.71-.73,1.32-1.56,1.85-2.5.52-.94.91-1.96,1.17-3.05.26-1.09.39-2.26.38-3.5,0-1.24-.14-2.41-.41-3.5-.27-1.09-.66-2.1-1.19-3.04-.53-.94-1.15-1.77-1.86-2.49-.71-.72-1.52-1.34-2.42-1.85-.9-.51-1.84-.89-2.84-1.14-.98-.25-2.02-.37-3.1-.37h-.04"/>
    <g class="st8">
      <rect class="st23" x="-197.01" y="-144.43" width="569.68" height="395.61"/>
    </g>
  </g>
  <g>
    <path class="st23" d="M77.64,31.25c-.61-.25-1.15-.63-1.63-1.14-.47-.51-.83-1.11-1.07-1.81-.24-.7-.36-1.49-.36-2.38,0-.89.11-1.68.35-2.38.23-.7.59-1.31,1.06-1.82.47-.51,1.01-.9,1.62-1.15s1.28-.39,2.02-.39c.74,0,1.41.12,2.02.38.61.25,1.15.63,1.63,1.14.47.51.83,1.11,1.07,1.81.24.7.36,1.49.36,2.38,0,.89-.11,1.68-.35,2.38-.24.7-.59,1.31-1.06,1.82-.47.51-1.01.9-1.62,1.16-.61.26-1.28.39-2.02.39h-.02c-.73,0-1.4-.13-2-.38M80.39,13.46c-1.58,0-2.97.24-4.15.71-1.18.47-2.17,1.17-2.95,2.11v-.5s.02-.5.02-.5c0-.44-.18-.83-.47-1.11-.29-.28-.68-.46-1.12-.46h-2.44s-2.44.02-2.44.02c-.44,0-.83.18-1.11.47-.28.29-.46.68-.46,1.12l.04,15.11.04,15.11c0,.44.18.83.47,1.11.29.28.68.46,1.12.46h2.64s2.64-.02,2.64-.02c.44,0,.83-.18,1.11-.47.28-.29.46-.68.46-1.12v-4.84s0-4.84,0-4.84c.83.84,1.8,1.47,2.91,1.89,1.11.42,2.37.62,3.77.62,1.1,0,2.14-.14,3.14-.39.99-.26,1.94-.65,2.83-1.16.89-.51,1.7-1.13,2.4-1.86.71-.73,1.32-1.56,1.85-2.5.52-.94.91-1.96,1.17-3.05.26-1.09.39-2.26.38-3.5,0-1.24-.14-2.41-.41-3.5-.27-1.09-.66-2.1-1.19-3.04-.53-.94-1.15-1.77-1.86-2.49-.71-.72-1.52-1.34-2.42-1.85-.9-.51-1.84-.89-2.84-1.14-.98-.25-2.02-.37-3.1-.37h-.04"/>
    <g class="st6">
      <rect class="st23" x="63.3" y="11.48" width="30.93" height="37.6"/>
    </g>
  </g>
  <g>
    <path class="st23" d="M102.94,5.36h-2.64s-2.64.02-2.64.02c-.44,0-.83.18-1.11.47-.29.29-.46.68-.46,1.12v14.9s0,14.9,0,14.9c0,.44.18.83.47,1.11.29.29.68.46,1.12.46h2.64s2.64-.02,2.64-.02c.44,0,.83-.18,1.11-.47.28-.29.46-.68.46-1.12V6.93c0-.44-.18-.83-.47-1.11-.29-.28-.68-.46-1.11-.46h0"/>
    <g class="st3">
      <rect class="st23" x="-197.01" y="-144.43" width="569.68" height="395.61"/>
    </g>
  </g>
  <g>
    <path class="st23" d="M102.94,5.36h-2.64s-2.64.02-2.64.02c-.44,0-.83.18-1.11.47-.29.29-.46.68-.46,1.12v14.9s0,14.9,0,14.9c0,.44.18.83.47,1.11.29.29.68.46,1.12.46h2.64s2.64-.02,2.64-.02c.44,0,.83-.18,1.11-.47.28-.29.46-.68.46-1.12V6.93c0-.44-.18-.83-.47-1.11-.29-.28-.68-.46-1.11-.46h0"/>
    <g class="st0">
      <rect class="st23" x="94.11" y="3.38" width="12.39" height="36.92"/>
    </g>
  </g>
  <g>
    <path class="st23" d="M113.77,5.36h-2.6c-.45,0-.85.18-1.14.47-.29.29-.47.69-.47,1.14v3.87c0,.44.18.85.47,1.14.29.29.7.47,1.14.47h5.21c.45,0,.85-.18,1.14-.47.29-.29.47-.7.47-1.14v-3.87c0-.45-.18-.85-.47-1.14-.29-.29-.69-.47-1.14-.47h-2.6Z"/>
    <g class="st4">
      <rect class="st23" x="-197.01" y="-144.43" width="569.68" height="395.61"/>
      <rect class="st23" x="107.58" y="3.38" width="12.39" height="11.05"/>
    </g>
  </g>
  <g>
    <path class="st23" d="M113.77,14.18h-2.6c-.45,0-.85.18-1.14.47-.29.29-.47.69-.47,1.14v20.92c0,.44.18.85.47,1.14.29.29.7.47,1.14.47h5.21c.45,0,.85-.18,1.14-.47.29-.29.47-.7.47-1.14V15.8c0-.44-.18-.85-.47-1.14-.29-.29-.69-.47-1.14-.47h-2.6Z"/>
    <g class="st1">
      <rect class="st23" x="-197.01" y="-144.43" width="569.68" height="395.61"/>
      <rect class="st23" x="107.58" y="12.21" width="12.39" height="28.1"/>
    </g>
  </g>
  <g>
    <path class="st23" d="M127.51,14.17h-1.31s-1.31,0-1.31,0h-1.31s-1.31,0-1.31,0c-.28,0-.54.07-.76.2-.22.12-.41.3-.55.51-.14.21-.23.45-.26.7-.03.25,0,.52.11.78l2.15,5.25,2.15,5.25,2.15,5.25,2.15,5.25c.06.15.14.28.24.4.1.12.21.22.34.31.13.08.27.15.42.2.15.05.3.07.46.07h6.61c.16,0,.31-.03.46-.07.15-.05.29-.11.41-.2.13-.09.24-.19.34-.31.1-.12.18-.25.24-.4l2.15-5.25,2.15-5.25,2.15-5.25,2.15-5.25c.11-.26.14-.53.11-.78-.03-.25-.12-.49-.26-.7-.14-.21-.33-.38-.55-.5-.22-.12-.48-.19-.76-.19h-1.16s-1.16,0-1.16,0h-1.16s-1.16,0-1.16,0c-.16,0-.32.03-.46.07-.15.05-.29.12-.41.21-.13.09-.24.2-.34.32-.1.12-.18.26-.24.41l-1.4,3.42-1.4,3.42-1.4,3.42-1.4,3.42-1.36-3.42-1.36-3.42-1.36-3.42-1.36-3.42c-.06-.15-.14-.29-.24-.41-.1-.12-.21-.23-.34-.31-.13-.09-.27-.16-.42-.2-.15-.05-.3-.07-.46-.07h0"/>
    <g class="st10">
      <rect class="st23" x="-197.01" y="-144.43" width="569.68" height="395.61"/>
    </g>
  </g>
  <g>
    <path class="st23" d="M141.01,14.24c-.15.05-.29.12-.41.21-.13.09-.24.2-.34.32-.1.12-.18.26-.24.41l-1.4,3.42-1.4,3.42-1.4,3.42-1.4,3.42-1.36-3.42-1.36-3.42-1.36-3.42-1.36-3.42c-.06-.15-.14-.29-.24-.41-.1-.12-.21-.23-.34-.31-.13-.09-.27-.16-.42-.2-.15-.05-.3-.07-.46-.07h-1.31s-1.31,0-1.31,0h-1.31s-1.31,0-1.31,0c-.28,0-.54.07-.76.2-.22.12-.41.3-.55.51-.14.21-.23.45-.26.7-.03.25,0,.52.11.78l2.15,5.25,2.15,5.25,2.15,5.25,2.15,5.25c.06.15.14.28.24.4.1.12.21.22.34.31.13.08.27.15.42.2.15.05.3.07.46.07h6.61c.16,0,.31-.03.46-.07.15-.05.29-.11.41-.2.13-.09.24-.19.34-.31.1-.12.18-.25.24-.4l2.15-5.25,2.15-5.25,2.15-5.25,2.15-5.25c.11-.26.14-.53.11-.78-.03-.25-.12-.49-.26-.7-.14-.21-.33-.38-.55-.5-.22-.12-.48-.19-.76-.19h-1.16s-1.16,0-1.16,0h-1.16s-1.16,0-1.16,0c-.16,0-.32.03-.46.07"/>
    <g class="st11">
      <rect class="st23" x="118.73" y="12.19" width="30.92" height="28.12"/>
    </g>
  </g>
  <g>
    <path class="st23" d="M160.11,30.97c-.61-.25-1.15-.63-1.62-1.14-.48-.51-.83-1.12-1.07-1.82-.24-.71-.36-1.51-.36-2.41,0-.89.11-1.68.35-2.38.23-.7.59-1.3,1.06-1.8.47-.5,1.01-.88,1.62-1.14.61-.25,1.28-.38,2.02-.39.74,0,1.41.12,2.02.37.61.25,1.15.63,1.63,1.13.48.5.83,1.1,1.07,1.79.24.69.36,1.49.36,2.37,0,.9-.11,1.71-.35,2.42-.23.71-.59,1.32-1.06,1.83-.47.51-1.01.9-1.62,1.15-.61.26-1.28.39-2.02.39h-.02c-.73,0-1.4-.13-2-.38M162.07,13.18c-1.3,0-2.54.14-3.7.41-1.16.27-2.26.67-3.29,1.19-1.03.53-1.94,1.16-2.75,1.9-.8.74-1.5,1.58-2.08,2.53s-1.02,1.96-1.31,3.02c-.29,1.07-.43,2.19-.43,3.38,0,1.2.15,2.33.45,3.41.3,1.07.74,2.08,1.33,3.03.59.95,1.29,1.79,2.1,2.52.81.74,1.74,1.37,2.78,1.9,1.04.53,2.14.93,3.3,1.19,1.16.26,2.39.39,3.67.39,1.3,0,2.54-.14,3.71-.41,1.17-.27,2.27-.67,3.3-1.21,1.03-.54,1.95-1.18,2.76-1.92.8-.74,1.49-1.59,2.07-2.54.57-.95,1-1.96,1.29-3.03s.42-2.21.42-3.41c0-1.2-.15-2.33-.44-3.4-.29-1.07-.73-2.07-1.31-3.01-.58-.94-1.28-1.77-2.08-2.5-.81-.73-1.73-1.36-2.77-1.88-1.04-.52-2.14-.91-3.31-1.17-1.15-.25-2.36-.38-3.64-.38h-.07"/>
    <g class="st12">
      <rect class="st23" x="-197.01" y="-144.43" width="569.68" height="395.61"/>
    </g>
  </g>
  <g>
    <path class="st23" d="M160.11,30.97c-.61-.25-1.15-.63-1.62-1.14-.48-.51-.83-1.12-1.07-1.82-.24-.71-.36-1.51-.36-2.41,0-.89.11-1.68.35-2.38.23-.7.59-1.3,1.06-1.8.47-.5,1.01-.88,1.62-1.14.61-.25,1.28-.38,2.02-.39.74,0,1.41.12,2.02.37.61.25,1.15.63,1.63,1.13.48.5.83,1.1,1.07,1.79.24.69.36,1.49.36,2.37,0,.9-.11,1.71-.35,2.42-.23.71-.59,1.32-1.06,1.83-.47.51-1.01.9-1.62,1.15-.61.26-1.28.39-2.02.39h-.02c-.73,0-1.4-.13-2-.38M162.07,13.18c-1.3,0-2.54.14-3.7.41-1.16.27-2.26.67-3.29,1.19-1.03.53-1.94,1.16-2.75,1.9-.8.74-1.5,1.58-2.08,2.53s-1.02,1.96-1.31,3.02c-.29,1.07-.43,2.19-.43,3.38,0,1.2.15,2.33.45,3.41.3,1.07.74,2.08,1.33,3.03.59.95,1.29,1.79,2.1,2.52.81.74,1.74,1.37,2.78,1.9,1.04.53,2.14.93,3.3,1.19,1.16.26,2.39.39,3.67.39,1.3,0,2.54-.14,3.71-.41,1.17-.27,2.27-.67,3.3-1.21,1.03-.54,1.95-1.18,2.76-1.92.8-.74,1.49-1.59,2.07-2.54.57-.95,1-1.96,1.29-3.03s.42-2.21.42-3.41c0-1.2-.15-2.33-.44-3.4-.29-1.07-.73-2.07-1.31-3.01-.58-.94-1.28-1.77-2.08-2.5-.81-.73-1.73-1.36-2.77-1.88-1.04-.52-2.14-.91-3.31-1.17-1.15-.25-2.36-.38-3.64-.38h-.07"/>
    <g class="st13">
      <rect class="st23" x="146.54" y="11.2" width="31.13" height="28.82"/>
    </g>
  </g>
</svg>