<svg width="196" height="30" viewBox="0 0 196 30" fill="none" xmlns="http://www.w3.org/2000/svg">
<g clip-path="url(#clip0_1288_73)">
<path d="M36.2 29.9999H15.6C13.9 29.9999 12.5 28.5999 12.5 26.8999V21.7999H8.5C7.5 21.7999 6.7 20.9999 6.7 19.9999C6.7 18.9999 7.5 18.1999 8.5 18.1999H12.5V13.0999C12.5 11.3999 13.9 9.8999 15.6 9.8999H42.6C43.6 9.8999 44.4 10.6999 44.4 11.6999C44.4 12.6999 43.6 13.4999 42.6 13.4999H16V18.1999H36.2C39.4 18.1999 42.1 20.7999 42.1 24.0999V24.1999C42 27.3999 39.4 29.9999 36.2 29.9999ZM16 26.4999H36.2C37.5 26.4999 38.5 25.4999 38.5 24.1999V24.0999C38.5 22.7999 37.5 21.7999 36.2 21.7999H16V26.4999Z" fill="white"/>
<path d="M59.7 0.899951C59.5 0.599951 59.2 0.399951 58.9 0.299951C58.6 0.199951 58.2 0.199951 57.9 0.199951C57.6 0.299951 57.3 0.499951 57 0.699951C55.5 2.29995 53.9 3.79995 52.1 5.09995C49.1 7.29995 45.8 8.89995 42.3 9.99995V13.4C45.9 14.5 49.2 16.0999 52.1 18.2999C53.9 19.5999 55.5 21.1 57 22.7C57.2 22.9 57.4 23 57.6 23.1C57.8 23.2 58.1 23.2 58.3 23.2C58.5 23.2 58.7 23.2 58.9 23.1C59.2 23 59.5 22.8 59.7 22.5C59.9 22.2 60 21.9 60 21.5V1.89995C60 1.59995 59.9 1.19995 59.7 0.899951ZM56.7 17.7C55.9 17 55 16.3 54.2 15.6C52.1 14.1 49.9 12.8 47.5 11.7C49.9 10.7 52.1 9.39995 54.2 7.79995C55.1 7.19995 55.9 6.49995 56.7 5.69995V17.7Z" fill="white"/>
<path d="M3.4 21.7999H1.8C0.8 21.7999 0 21 0 20C0 19 0.8 18.2 1.8 18.2H3.5C4.5 18.2 5.3 19 5.3 20C5.3 21 4.4 21.7999 3.4 21.7999Z" fill="white"/>
<path d="M66.3 4.19985H64.6C63.6 4.19985 62.8 3.39985 62.8 2.39985C62.8 1.39985 63.6 0.599854 64.6 0.599854H66.3C67.3 0.599854 68.1 1.39985 68.1 2.39985C68.1 3.39985 67.3 4.19985 66.3 4.19985Z" fill="white"/>
<path d="M66.3 22.6999H64.6C63.6 22.6999 62.8 21.8999 62.8 20.8999C62.8 19.8999 63.6 19.0999 64.6 19.0999H66.3C67.3 19.0999 68.1 19.8999 68.1 20.8999C68.1 21.8999 67.3 22.6999 66.3 22.6999Z" fill="white"/>
<path d="M71.7 13.4999H70C69 13.4999 68.2 12.6999 68.2 11.6999C68.2 10.6999 69 9.8999 70 9.8999H71.7C72.7 9.8999 73.5 10.6999 73.5 11.6999C73.5 12.6999 72.7 13.4999 71.7 13.4999Z" fill="white"/>
<path d="M83 7.89995V15.4C83 18 83.3 19.3 84.5 20.4C85.5 21.4 86.6 21.7999 88.5 21.7999C89.1 21.7999 89.6 21.8 90.4 21.6L90.8 18.4C90.2 18.5 89.8 18.6 89.3 18.6C87.5 18.6 86.6 17.6 86.6 15.4V7.89995H90.3L90.8 5.09995H86.6V0.199951L83 1.99995V5.09995H81.6L81 7.89995H83ZM96 21.2V14.1C96 10.6 97.9 7.99995 100.6 7.99995C100.8 7.99995 100.9 7.99995 101.2 7.99995L102.3 4.59995C101.8 4.49995 101.6 4.49995 101.3 4.49995C99.8 4.49995 98.4 4.99995 97.5 5.79995C97 6.29995 96.4 7.09995 95.8 8.29995V4.79995L92.4 5.29995V21.7999L96 21.2ZM114.2 21.7L117.7 21.2999V4.79995L114.2 5.29995V13.9C114.2 15.3 114.1 15.6 114 16.1C113.5 17.7 112.1 18.7 110.4 18.7C108.9 18.7 107.8 17.9999 107.6 16.7999C107.5 16.3999 107.5 16 107.5 15V4.79995L103.9 5.29995V14.5C103.9 15.7 103.9 16.5999 104 17.2999C104.3 20.1999 106.3 21.9 109.3 21.9C111.2 21.9 112.4 21.4 113.6 20.1C113.9 19.8 114 19.7 114.3 19.2L114.2 21.7ZM125.4 21.4V12.1C125.4 9.59995 126.8 7.59995 128.7 7.59995C129.8 7.59995 130.7 8.19995 131.1 9.09995C131.3 9.39995 131.3 9.89995 131.3 10.5V21.5L134.8 21V12.5C134.8 10.6 135 9.89995 135.7 8.99995C136.4 8.09995 137.2 7.69995 138.2 7.69995C139.5 7.69995 140.5 8.49995 140.8 9.59995C140.9 10.1 140.9 10.9 140.9 11.6V21.6L144.4 21.1V10.1C144.4 6.49995 142.6 4.49995 139.4 4.49995C137.5 4.49995 136.2 4.99995 135.1 6.39995C134.8 6.69995 134.7 6.89995 134.4 7.39995C134 6.39995 133.6 5.79995 132.9 5.29995C132.2 4.79995 131 4.49995 130 4.49995C128.2 4.49995 126.9 5.09995 126 6.29995C125.7 6.59995 125.6 6.79995 125.3 7.39995V4.79995L121.9 5.19995V21.7L125.4 21.4ZM152.1 27.5V19.1C153.7 21.1 155.5 21.9 157.8 21.9C162.4 21.9 166 18.1 166 13.3C166 8.29995 162.4 4.59995 157.7 4.59995C155.3 4.59995 153.8 5.39995 152.1 7.49995V4.69995L148.6 5.29995V27.9L152.1 27.5ZM157.3 7.89995C160.2 7.89995 162.5 10.3 162.5 13.3C162.5 16.3 160.2 18.6 157.3 18.6C154.4 18.6 152.1 16.3 152.1 13.3C152.1 10.3 154.3 7.89995 157.3 7.89995ZM185.2 8.99995C182.9 5.89995 180.6 4.59995 177.4 4.59995C172.4 4.59995 168.7 8.29995 168.7 13.2C168.7 18.1 172.5 21.7999 177.6 21.7999C179.8 21.7999 181.9 21.1 183.6 19.7C184.1 19.3 184.4 19.1 185 18.4L182.7 16.2C181.1 17.9 179.6 18.7 177.7 18.7C175.9 18.7 174.6 18 173.5 16.5L185.2 8.99995ZM172.3 14.1C172.2 13.5 172.2 13.3 172.2 12.9C172.2 9.99995 174.5 7.59995 177.3 7.59995C178.6 7.59995 179.4 7.89995 180.6 8.79995L172.3 14.1ZM188.2 7.89995V15.4C188.2 18 188.5 19.3 189.7 20.4C190.7 21.4 191.8 21.7999 193.7 21.7999C194.3 21.7999 194.8 21.8 195.6 21.6L196 18.4C195.4 18.5 195 18.6 194.5 18.6C192.7 18.6 191.8 17.6 191.8 15.4V7.89995H195.5L196 5.09995H191.8V0.199951L188.2 1.99995V5.09995H186.8L186.2 7.89995H188.2Z" fill="white"/>
</g>
<defs>
<clipPath id="clip0_1288_73">
<rect width="196" height="30" fill="white"/>
</clipPath>
</defs>
</svg>
