<svg width="138" height="36" viewBox="0 0 138 36" fill="none" xmlns="http://www.w3.org/2000/svg">
<g clip-path="url(#clip0_1063_310)">
<path d="M18.3475 35.4317C27.9976 35.4317 35.8205 27.7199 35.8205 18.2068C35.8205 8.69378 27.9976 0.981934 18.3475 0.981934C8.69744 0.981934 0.874512 8.69378 0.874512 18.2068C0.874512 27.7199 8.69744 35.4317 18.3475 35.4317Z" fill="white"/>
<path fill-rule="evenodd" clip-rule="evenodd" d="M18.3475 5.63257C15.3916 5.63257 12.9255 7.83735 12.5232 10.7139C12.5232 10.7311 12.5407 10.7484 12.5582 10.7484C12.9255 10.6967 13.2928 10.6622 13.6776 10.6622C14.1148 10.6622 14.5346 10.6967 14.9369 10.7828C14.9544 10.7828 14.9719 10.7828 14.9719 10.7484C15.3392 9.21534 16.7034 8.0785 18.33 8.0785C19.9742 8.0785 21.3384 9.21534 21.6882 10.7484C21.6882 10.7656 21.7057 10.7828 21.7232 10.7828C22.1255 10.7139 22.5627 10.6622 22.9825 10.6622C23.3673 10.6622 23.7346 10.6967 24.1019 10.7484C24.1194 10.7484 24.1369 10.7311 24.1369 10.7139C23.7696 7.83735 21.3209 5.63257 18.3475 5.63257ZM13.6776 11.8163C15.1643 11.8163 16.5285 12.3675 17.5605 13.2804C17.578 13.2976 17.578 13.3149 17.5605 13.3321C17.0532 13.9866 16.6685 14.7101 16.4236 15.5196C16.4236 15.5541 16.3711 15.5541 16.3536 15.5369C15.724 14.7618 14.762 14.2622 13.6776 14.2622C11.7711 14.2622 10.2145 15.8125 10.2145 17.7417C10.2145 19.6708 11.7711 21.2211 13.6776 21.2211C14.797 21.2211 15.7764 20.6871 16.4061 19.8775C16.4236 19.8603 16.4586 19.8603 16.4761 19.8948C16.7384 20.6871 17.1582 21.4106 17.6829 22.0479C17.7004 22.0651 17.7004 22.0823 17.6829 22.0996C16.6335 23.0814 15.2342 23.667 13.6951 23.667C10.4418 23.667 7.81826 21.0144 7.81826 17.7589C7.80077 14.4689 10.4418 11.8163 13.6776 11.8163ZM18.33 30.7637C18.3475 30.7809 18.365 30.7809 18.3825 30.7637L26.638 22.4613C26.6555 22.444 26.6555 22.4268 26.638 22.4096L24.9764 20.7388C24.9589 20.7216 24.9415 20.7216 24.924 20.7388L18.3825 27.3187C18.365 27.3359 18.3475 27.3359 18.33 27.3187L16.0913 25.0795C16.0738 25.0622 16.0563 25.0622 16.0388 25.0795L14.3772 26.7503C14.3597 26.7675 14.3597 26.7847 14.3772 26.8019L18.33 30.7637ZM17.1407 17.7244C17.1407 19.0852 17.5954 20.3254 18.365 21.3244C18.3825 21.3417 18.4 21.3417 18.4175 21.3244L20.0966 19.6192C20.1141 19.6019 20.1141 19.5847 20.0966 19.5847C19.7468 19.0507 19.5544 18.3962 19.5544 17.7072C19.5544 15.778 21.111 14.2278 23.0175 14.2278C24.924 14.2278 26.4806 15.778 26.4806 17.7072C26.4806 18.5168 26.2008 19.2574 25.746 19.8431C25.7285 19.8603 25.7285 19.8775 25.746 19.8948L27.4251 21.5828C27.4426 21.6 27.4601 21.6 27.4776 21.5828C28.3696 20.5493 28.9118 19.1885 28.9118 17.7244C28.9118 14.4517 26.2707 11.8163 23.035 11.8163C19.7993 11.8163 17.1407 14.4689 17.1407 17.7244Z" fill="#0D0E13"/>
<path d="M57.6487 11.0065C56.1445 9.64575 54.1331 8.83618 51.9468 8.83618C47.1893 8.83618 43.3414 12.7118 43.3414 17.5003C43.3414 22.2888 47.1893 26.1644 51.9468 26.1644C54.1331 26.1644 56.127 25.3376 57.6487 23.9941C56.9665 23.1156 56.4243 22.1338 56.057 21.0658C55.0601 22.2371 53.5909 22.9606 51.9468 22.9606C48.9559 22.9606 46.5247 20.5146 46.5247 17.5175C46.5247 14.5032 48.9559 12.0745 51.9468 12.0745C53.5909 12.0745 55.0601 12.8151 56.057 13.9692C56.4418 12.8668 56.984 11.885 57.6487 11.0065Z" fill="white"/>
<path fill-rule="evenodd" clip-rule="evenodd" d="M74.5795 17.5865C74.5795 22.375 70.7316 26.2506 65.9742 26.2506C61.2167 26.2506 57.3688 22.375 57.3688 17.5865C57.3688 12.798 61.2167 8.92236 65.9742 8.92236C70.7316 8.92236 74.5795 12.798 74.5795 17.5865ZM65.9742 23.0295C68.965 23.0295 71.3962 20.5836 71.3962 17.5865C71.3962 14.5721 68.965 12.1434 65.9742 12.1434C62.9833 12.1434 60.5521 14.5893 60.5521 17.5865C60.5521 20.5836 62.9833 23.0295 65.9742 23.0295Z" fill="white"/>
<path d="M76.4859 5.61523H79.6692V26.199H76.4859V5.61523Z" fill="white"/>
<path d="M81.5931 5.61523H84.7764V26.199H81.5931V5.61523Z" fill="white"/>
<path fill-rule="evenodd" clip-rule="evenodd" d="M100.71 8.88788H103.894V26.1989H100.71V24.2008C99.2235 25.4065 97.3521 26.13 95.2882 26.13C90.5308 26.13 86.6829 22.2544 86.6829 17.4659C86.6829 12.6774 90.5308 8.80176 95.2882 8.80176C97.3346 8.80176 99.2235 9.5252 100.71 10.7309V8.88788ZM95.3057 22.9434C98.2966 22.9434 100.728 20.4975 100.728 17.4831C100.728 14.4687 98.2966 12.0228 95.3057 12.0228C92.3148 12.0228 89.8836 14.4687 89.8836 17.4831C89.8836 20.4975 92.3148 22.9434 95.3057 22.9434Z" fill="white"/>
<path d="M114.423 26.1474C109.683 26.1474 105.852 22.3063 105.818 17.5522V5.63257H109.001V8.8364H116.014V12.0402H109.001V17.5522C109.036 20.5321 111.449 22.9436 114.423 22.9436C116.067 22.9436 117.536 22.2029 118.533 21.0488C118.918 22.1168 119.46 23.0986 120.125 23.9771C118.603 25.3206 116.609 26.1474 114.423 26.1474Z" fill="white"/>
<path fill-rule="evenodd" clip-rule="evenodd" d="M137.038 17.4832C137.038 22.2717 133.19 26.1473 128.433 26.1473C123.675 26.1473 119.827 22.2717 119.827 17.4832C119.827 12.6947 123.675 8.81909 128.433 8.81909C133.19 8.83632 137.038 12.7119 137.038 17.4832ZM128.433 22.9263C131.424 22.9263 133.855 20.4803 133.855 17.4832C133.855 14.4689 131.424 12.0401 128.433 12.0401C125.442 12.0401 123.011 14.4861 123.011 17.4832C123.028 20.4976 125.442 22.9263 128.433 22.9263Z" fill="white"/>
</g>
<defs>
<clipPath id="clip0_1063_310">
<rect width="138" height="36" fill="white"/>
</clipPath>
</defs>
</svg>
