<?xml version="1.0" encoding="utf-8"?>
<!-- Generator: Adobe Illustrator 26.0.0, SVG Export Plug-In . SVG Version: 6.00 Build 0)  -->
<svg version="1.1" id="Layer_1" xmlns="http://www.w3.org/2000/svg" xmlns:xlink="http://www.w3.org/1999/xlink" x="0px" y="0px"
	 viewBox="0 0 124.8 50.3" style="enable-background:new 0 0 124.8 50.3;" xml:space="preserve">
<style type="text/css">
	.st0{fill:#FFFFFF;}
</style>
<path class="st0" d="M25.4,15c0-3.7-2.1-5.8-5.2-5.2c0,0-0.1,0-0.1,0l0,0c0,0-5.8,0.7-5.8,8v16.1c0,2.7-2.1,5.3-4.6,5.9l-0.8,0.2
	c-2.5,0.5-4.6-1.3-4.6-4v-9.7c0.6,0.1,1.2,0.1,1.7,0c3.1-0.6,5.3-3.7,5.3-7.4c0-3.7-2.1-5.8-5.2-5.2c0,0-0.1,0-0.1,0l0,0
	c0,0-5.8,0.7-5.8,8v15.1c0,5.1,3.9,8.1,8.7,7.2l0.8-0.2c4.8-1,8.7-5.6,8.7-10.7V22.5c0.6,0.1,1.2,0.1,1.7,0
	C23.1,21.8,25.4,18.7,25.4,15 M7.5,19.7c0,1.4-0.7,2.5-1.9,2.7c-1.1,0.2-1.9-0.6-1.9-2c0-1.4,0.7-2.5,1.9-2.7S7.5,18.3,7.5,19.7
	 M19.8,18.5c-1.1,0.2-1.9-0.6-1.9-2c0-1.4,0.7-2.5,1.9-2.7c1.1-0.2,1.9,0.5,1.9,2S21,18.3,19.8,18.5"/>
<path class="st0" d="M19,43c-0.8-0.4-1.7-0.1-2.1,0.6c-0.1,0.1-2,3.4-6.1,3.6c-0.9,0-1.6,0.8-1.5,1.7s0.8,1.6,1.7,1.5
	c6-0.3,8.7-5.1,8.8-5.3C20,44.3,19.7,43.4,19,43"/>
<path class="st0" d="M57.7,13.1c-0.1,0-0.1-0.1-0.2-0.1c-5.3-2.9-10-0.2-10.2-0.1c-0.8,0.4-1,1.4-0.6,2.2c0.4,0.7,1.4,1,2.1,0.6
	c0.1-0.1,3.5-1.9,7.1,0.1c0.8,0.4,1.7,0.2,2.2-0.6C58.5,14.4,58.3,13.6,57.7,13.1"/>
<path class="st0" d="M122.7,24.8c-0.1,0.1-3.7,1.4-7-1.2c-0.7-0.5-1.7-0.4-2.2,0.3c-0.5,0.7-0.4,1.7,0.3,2.2
	c4.8,3.7,9.9,1.7,10.1,1.6c0.8-0.3,1.2-1.2,0.9-2.1C124.4,24.9,123.5,24.5,122.7,24.8"/>
<path class="st0" d="M31.3,22.4c-2.4,0.5-4.1,1.9-4.8,3.3v-1.3c0-0.3-0.3-0.6-0.6-0.6c0,0-0.1,0-0.1,0l-2.9,0.6
	c-0.3,0.1-0.5,0.3-0.5,0.6v21.5c0,0.3,0.3,0.6,0.6,0.6c0,0,0.1,0,0.1,0l3-0.6c0.3-0.1,0.5-0.3,0.5-0.6v-7.4c0.8,0.9,2.4,1.5,4.5,1.1
	c4.4-0.9,7.4-5.1,7.4-10.1C38.5,24.6,35.9,21.5,31.3,22.4 M30.5,35.7c-2.2,0.4-3.9-0.9-3.9-3.8s1.7-4.9,3.9-5.4
	c2.2-0.4,3.9,0.9,3.9,3.8C34.4,33.3,32.6,35.3,30.5,35.7"/>
<path class="st0" d="M50.8,18.5c-2.4,0.5-4.1,1.9-4.8,3.3v-1.3c0-0.3-0.3-0.6-0.6-0.6c0,0-0.1,0-0.1,0l-2.9,0.6
	c-0.3,0.1-0.5,0.3-0.5,0.6v21.5c0,0.3,0.3,0.6,0.6,0.6c0,0,0.1,0,0.1,0l2.7-0.5c0.5-0.1,0.8-0.5,0.8-1v-7.1c0.8,0.9,2.4,1.5,4.5,1.1
	C55,34.7,58,30.5,58,25.5C58,20.7,55.3,17.5,50.8,18.5 M49.9,31.8C47.8,32.3,46,30.9,46,28s1.7-4.9,3.9-5.4s3.9,0.9,3.9,3.8
	C53.8,29.3,52.1,31.4,49.9,31.8"/>
<path class="st0" d="M70.2,14.5c-2.3,0.5-4,1.9-4.7,3.2V8.9c0-0.3-0.3-0.6-0.6-0.6c0,0-0.1,0-0.1,0l-3,0.6c-0.3,0.1-0.5,0.3-0.5,0.6
	v22.9c0,0.3,0.3,0.6,0.6,0.6c0,0,0.1,0,0.1,0l2.9-0.6c0.3-0.1,0.5-0.3,0.5-0.6v-1.5c0.8,1.2,2.5,1.9,4.6,1.5
	c4.4-0.9,7.4-5.2,7.4-10.1C77.4,16.7,74.8,13.6,70.2,14.5 M69.3,27.9c-2.1,0.4-3.9-0.9-3.9-3.9c0-3,1.8-5,3.9-5.4
	c2.2-0.4,3.9,0.8,3.9,3.8S71.5,27.5,69.3,27.9"/>
<path class="st0" d="M87.3,11c-4,0.8-7.7,4.9-7.7,10.2c0,5.5,3.8,8,8.1,7.1c3.2-0.6,5.8-2.9,6.9-5.9c0.1-0.3-0.1-0.7-0.4-0.8
	c0,0-0.1,0-0.1,0l-2.3-0.3c-0.3,0-0.5,0.1-0.6,0.4c-0.6,1.4-1.6,2.4-3.4,2.8c-2.1,0.4-3.8-0.8-3.9-2.9l10.6-2.1
	c0.4-0.1,0.6-0.4,0.6-0.7c0-0.2,0-0.5,0-0.8C95,12.6,92.1,10,87.3,11 M83.8,18.5c0.1-1.5,1.3-3.5,3.5-3.9c2.4-0.5,3.4,0.9,3.5,2.5
	L83.8,18.5z"/>
<path class="st0" d="M111.2,20.4v-8.1c0-3.3-1.8-5.9-6.8-4.9c-3.8,0.8-6,3.5-6.6,6c-0.1,0.3,0.1,0.7,0.4,0.7c0,0,0.1,0,0.1,0
	l2.5,0.1c0.3,0,0.5-0.2,0.6-0.5c0.3-1.4,1.5-2.5,2.9-2.8c1.8-0.4,2.6,0.4,2.6,1.6c0,0.6-0.3,1.1-1.2,1.4l-3.8,1.4
	c-2.6,0.9-4.7,3-4.7,5.9c0,2.6,2,4.5,5.4,3.8c2-0.4,3.7-1.6,4.6-3.4c0,0.4,0,0.9,0.1,1.3c0,0.3,0.3,0.6,0.7,0.5c0,0,0,0,0.1,0
	l2.7-0.5c0.3-0.1,0.5-0.3,0.5-0.7C111.2,21.8,111.2,21.1,111.2,20.4 M107.1,17.2c0,2.9-1.7,4.1-3.4,4.5c-1.4,0.3-2-0.5-2-1.5
	c0-1.3,0.9-2.1,1.9-2.5l3.5-1.3L107.1,17.2z"/>
<path class="st0" d="M114.3,10l2.1-0.4v7.6c0,3.2,1.9,4.7,5,4.1c0.7-0.1,1.4-0.4,2.1-0.7c0.2-0.1,0.3-0.3,0.3-0.5v-2.5
	c0-0.3-0.3-0.6-0.6-0.6c-0.1,0-0.1,0-0.2,0c-0.2,0-0.4,0.1-0.5,0.1c-1.2,0.2-1.8-0.1-1.8-1.5V8.7l2.7-0.5c0.3-0.1,0.5-0.3,0.5-0.6
	V4.9c0-0.3-0.3-0.6-0.6-0.6c0,0-0.1,0-0.1,0l-2.4,0.5V0.6c0-0.3-0.3-0.6-0.6-0.6c0,0-0.1,0-0.1,0l-2.6,0.5c-0.3,0.1-0.5,0.3-0.5,0.6
	v1.8c0,1.5-0.8,2.7-2.4,3.1L114,6.1c-0.3,0.1-0.5,0.3-0.5,0.6v2.7c0,0.3,0.3,0.6,0.6,0.6C114.2,10,114.2,10,114.3,10"/>
</svg>
