<?xml version="1.0" encoding="UTF-8"?>
<svg id="Layer_1" xmlns="http://www.w3.org/2000/svg" version="1.1" viewBox="0 0 175.7 50.3">
  <!-- Generator: Adobe Illustrator 29.4.0, SVG Export Plug-In . SVG Version: 2.1.0 Build 152)  -->
  <defs>
    <style>
      .st0 {
        fill: #0d0e13;
      }

      .st1 {
        fill: #fff;
      }
    </style>
  </defs>
  <g>
    <path class="st1" d="M38.04,8.26h5.94v12.33l.07.04,9.68-12.37h6.99l-10.47,12.93,11.1,14.13h-7.29l-10.02-13.23-.07.04v13.2h-5.94V8.26h0Z"/>
    <path class="st1" d="M70.68,35.73c-6.17,0-10.47-3.74-10.47-9.64s4.41-9.72,9.61-9.72c4.63,0,8.82,2.92,8.82,9.23,0,.64-.04,1.46-.11,1.94h-12.52c.56,2.54,2.65,3.7,5.38,3.7,2.09,0,4.3-.75,6.24-1.94v4.78c-1.76,1.05-4.49,1.64-6.95,1.64h0ZM73.41,24.03c-.3-2.28-1.83-3.33-3.66-3.33s-3.37,1.12-3.78,3.33h7.44Z"/>
    <path class="st1" d="M81.3,43.54l4.82-10.32-7.48-16.45h5.98l1.91,4.6c.82,1.98,1.61,3.92,2.35,5.87h.07c.82-2.06,1.64-4,2.5-5.98l1.94-4.49h5.65l-11.96,26.76h-5.79Z"/>
    <path class="st1" d="M101.11,16.78h3.07v-4.56l5.65-1.38v5.94h4.94v4.71h-4.94v6.54c0,1.94.82,2.95,2.5,2.95.86,0,1.76-.26,2.43-.52v4.49c-.93.45-2.47.78-4.04.78-4.41,0-6.54-2.5-6.54-7.1v-7.14h-3.07v-4.71h0Z"/>
    <path class="st1" d="M132.78,35.69c-1.83,0-3.29-.6-4.15-1.68-1.23.93-3.06,1.72-5.31,1.72-3.74,0-6.47-2.02-6.47-5.65,0-4,2.99-5.79,7.62-5.79,1.01,0,2.17.07,3.18.26v-.67c0-1.94-1.31-2.77-3.96-2.77-2.21,0-4.07.6-5.27,1.23v-4.56c1.42-.78,3.7-1.42,6.43-1.42,5.16,0,8.41,2.17,8.41,6.88v6.54c0,.78.38,1.35,1.38,1.35.38,0,.67-.07.97-.22v4.26c-.75.3-1.76.52-2.84.52h0ZM127.66,30.8v-2.88c-.56-.11-1.5-.22-2.21-.22-1.68,0-3.07.52-3.07,2.02,0,1.35,1.01,1.91,2.47,1.91,1.09,0,2.21-.34,2.8-.82h0Z"/>
    <path class="st1" d="M138.33,6.76h5.68v18.32l.07.04,6.5-8.34h6.54l-7.18,8.86,7.4,9.68h-6.65l-6.62-9.01-.07.04v8.97h-5.68V6.76Z"/>
    <path class="st1" d="M167.74,35.73c-6.17,0-10.47-3.74-10.47-9.64s4.41-9.72,9.61-9.72c4.63,0,8.82,2.92,8.82,9.23,0,.64-.04,1.46-.11,1.94h-12.52c.56,2.54,2.65,3.7,5.38,3.7,2.09,0,4.3-.75,6.24-1.94v4.78c-1.76,1.05-4.49,1.64-6.95,1.64h0ZM170.46,24.03c-.3-2.28-1.83-3.33-3.66-3.33s-3.37,1.12-3.78,3.33h7.44Z"/>
  </g>
  <g>
    <path class="st1" d="M5.11,8.16h17.11c2.82,0,5.11,2.29,5.11,5.11v17.11c0,2.82-2.29,5.11-5.11,5.11H5.11c-2.82,0-5.11-2.29-5.11-5.11V13.26c0-2.82,2.29-5.11,5.11-5.11Z"/>
    <g>
      <polygon class="st0" points="13.03 29.52 6.92 29.52 6.92 18.72 13.03 12.88 13.03 29.52"/>
      <circle class="st0" cx="17.76" cy="19.69" r="2.95"/>
      <circle class="st0" cx="17.76" cy="26.57" r="2.95"/>
    </g>
  </g>
</svg>