<?xml version="1.0" encoding="UTF-8"?>
<svg id="Layer_1" xmlns="http://www.w3.org/2000/svg" version="1.1" viewBox="0 0 175.7 50.3">
  <!-- Generator: Adobe Illustrator 29.4.0, SVG Export Plug-In . SVG Version: 2.1.0 Build 152)  -->
  <defs>
    <style>
      .st0 {
        fill: #fff;
      }
    </style>
  </defs>
  <g id="Layer_11" data-name="Layer_1">
    <path class="st0" d="M109.23,22.61h-.56c-1.81,0-3.35.74-4.61,2.23-1.26-1.49-2.79-2.23-4.61-2.23s-.37,0-.56,0c-1.81.19-3.3.88-4.47,2.14-1.21,1.35-1.81,3.12-1.81,5.3v10.19h3.86v-10.42c0-.98.23-1.81.74-2.47.47-.6,1.07-.88,1.86-.88s1.58.28,2.19.88c.6.56.88,1.26.88,2.05v10.89h3.86v-10.89c0-.84.28-1.49.88-2.05.6-.6,1.35-.88,2.19-.88s1.4.28,1.86.93c.51.7.79,1.49.79,2.47v10.42h3.86v-10.19c0-2.19-.6-3.95-1.86-5.3-1.12-1.3-2.65-2-4.47-2.19h-.05Z"/>
    <path class="st0" d="M139.42,34.52v-7.77h3.4v-3.81h-3.4v-5.4h-3.77v17.3c0,1.86.56,3.3,1.67,4.33,1.07.93,2.61,1.44,4.61,1.44h.88v-3.58h-.88c-1.77,0-2.51-.7-2.51-2.47v-.05Z"/>
    <path class="st0" d="M155.74,34.29c-.98,1.63-2.42,2.42-4.42,2.47h-.05c-1.35,0-2.47-.51-3.44-1.49-1.02-1.02-1.49-2.23-1.49-3.67s.51-2.61,1.58-3.67c1.02-.98,2.09-1.49,3.35-1.49h.09c1.95.05,3.35.88,4.33,2.61l.28.47h4.14l-.84-2c-.6-1.44-1.67-2.61-3.07-3.54-1.44-.93-3.02-1.4-4.7-1.4h-.09c-2.37,0-4.47.93-6.23,2.7-1.72,1.77-2.61,3.95-2.56,6.42,0,2.47.88,4.61,2.61,6.33,1.72,1.72,3.77,2.61,6.14,2.61h.14c3.54,0,6.19-1.67,7.86-4.93h0l.84-1.86h-4.14l-.28.47h-.05Z"/>
    <path class="st0" d="M173.42,24.89c-1.4-1.44-3.12-2.19-5.02-2.19s-.23,0-.37,0c-1.26.05-2.37.47-3.4,1.16v-6.37h-3.77v22.75h3.77v-10.09c0-1.07.33-1.91,1.02-2.56.7-.7,1.54-1.02,2.56-1.07h.14c.93,0,1.77.37,2.47,1.07.74.79,1.12,1.63,1.12,2.7v9.91h3.77v-9.72c0-2.23-.74-4.14-2.23-5.68l-.05.09Z"/>
    <path class="st0" d="M125.88,22.57h-.37c-2.23,0-4.19.88-5.81,2.56-1.72,1.81-2.56,3.95-2.56,6.47s.79,4.51,2.37,6.28c1.58,1.77,3.54,2.65,5.81,2.74h.28c1.21,0,2.37-.28,3.4-.79v-4.74s-.09.09-.14.14c-.93,1.02-2,1.49-3.26,1.49h-.23c-1.26-.05-2.33-.6-3.21-1.63-.93-1.02-1.35-2.23-1.3-3.63h0c0-1.4.47-2.56,1.4-3.58.93-.98,2.05-1.44,3.35-1.44s2.33.47,3.21,1.44c.93.98,1.35,2.14,1.4,3.54v8.79h3.77v-8.65c.09-2.42-.7-4.51-2.33-6.28-1.58-1.77-3.58-2.7-5.86-2.74l.09.05Z"/>
    <path class="st0" d="M14.14,25.13c-1.58-1.72-3.49-2.61-5.68-2.61s-.23,0-.37,0c-1.63.05-3.12.56-4.42,1.54v-6.61H0v14.05c-.05,2.47.79,4.65,2.51,6.47,1.63,1.72,3.58,2.61,5.77,2.61h.28c2.23-.09,4.19-1.02,5.72-2.74,1.54-1.77,2.33-3.86,2.33-6.28s-.84-4.65-2.51-6.47l.05.05ZM8.28,36.76h-.47c-1.02-.09-1.95-.6-2.74-1.49-.98-1.07-1.44-2.33-1.4-3.77h0c0-1.4.47-2.56,1.4-3.54.88-.98,1.91-1.44,3.16-1.44s2.37.47,3.3,1.49c.93.98,1.4,2.14,1.4,3.54s-.42,2.61-1.3,3.63-1.91,1.54-3.16,1.63h-.23l.05-.05Z"/>
    <path class="st0" d="M30.24,34.34c-.84,1.54-2.09,2.33-3.86,2.33h-.05c-1.21,0-2.28-.42-3.16-1.26-.65-.6-1.12-1.35-1.35-2.19h12.79v-2.05c0-2.14-.79-4.14-2.28-5.86h0c-1.58-1.77-3.44-2.7-5.63-2.84h-.51c-2.19,0-4.14.88-5.77,2.61-1.77,1.86-2.61,4.09-2.56,6.65,0,2.42.93,4.56,2.61,6.33,1.63,1.72,3.58,2.61,5.72,2.61h.14c1.77,0,3.35-.6,4.79-1.67,1.44-1.07,2.47-2.56,3.07-4.42v-.23s-3.95,0-3.95,0h0ZM23.21,27.59c.88-.74,1.86-1.12,3.02-1.12h.05c1.21,0,2.19.37,3.02,1.16.56.51.98,1.12,1.3,1.86h-8.7c.28-.74.74-1.35,1.35-1.86l-.05-.05Z"/>
    <path class="st0" d="M63.78,34.34c-.84,1.54-2.09,2.33-3.86,2.33h-.05c-1.21,0-2.28-.42-3.16-1.26-.65-.6-1.12-1.35-1.35-2.19h12.79v-2.05c0-2.14-.79-4.14-2.28-5.86h0c-1.58-1.77-3.44-2.7-5.63-2.84h-.51c-2.19,0-4.14.88-5.77,2.61-1.77,1.86-2.61,4.09-2.56,6.65,0,2.42.93,4.56,2.61,6.33,1.63,1.72,3.58,2.61,5.72,2.61h.14c1.77,0,3.35-.6,4.79-1.67,1.44-1.07,2.47-2.56,3.07-4.42v-.23s-3.95,0-3.95,0h0ZM56.75,27.59c.88-.74,1.86-1.12,3.02-1.12h.05c1.21,0,2.19.37,3.02,1.16.56.51.98,1.12,1.3,1.86h-8.7c.28-.74.74-1.35,1.35-1.86l-.05-.05Z"/>
    <path class="st0" d="M39.5,17.54h-3.67v17.3c0,1.86.56,3.3,1.63,4.33,1.02.93,2.56,1.44,4.51,1.44h.88v-3.58h-.88c-1.77,0-2.47-.74-2.47-2.51v-7.77h3.35v-3.81h-3.35v-5.4h0Z"/>
    <path class="st0" d="M47.96,34.52v-7.77h3.35v-3.81h-3.35v-5.4h-3.67v17.3c0,1.86.56,3.3,1.63,4.33,1.02.93,2.56,1.44,4.51,1.44h.88v-3.58h-.88c-1.77,0-2.47-.7-2.47-2.47v-.05Z"/>
    <path class="st0" d="M76.15,22.66c-.84,0-1.67.23-2.47.7-.19.09-.33.19-.51.33v-1.02h-3.58v17.63h3.81v-10.19c0-.84.14-1.44.37-1.91.09-.19.37-.51.93-1.02.42-.37.93-.56,1.67-.56h.84v-3.91h-.84s-.14-.05-.23-.05Z"/>
    <path class="st0" d="M85.32,9.64v2.79c-4.05,0-7.63,2.47-9.3,6.33h-2.84c.84-2.51,2.42-4.79,4.42-6.37,2.23-1.77,4.88-2.7,7.72-2.7v-.05Z"/>
    <path class="st0" d="M97.41,18.75h-2.84c-1.67-3.81-5.26-6.33-9.3-6.33v-2.79c5.44,0,10.33,3.67,12.14,9.12Z"/>
  </g>
</svg>