<svg width="176" height="51" viewBox="0 0 176 51" fill="none" xmlns="http://www.w3.org/2000/svg">
<g clip-path="url(#clip0_1063_262)">
<path d="M55.9 6.7001V23.7001H62.3C67.4 23.7001 70.3 20.6001 70.3 15.1001C70.3 9.8001 67.4 6.7001 62.3 6.7001H55.9ZM58.9 9.3001H61.8C65.1 9.3001 67.1 11.4001 67.1 15.1001C67.1 18.9001 65.2 21.0001 61.8 21.0001H58.9V9.3001ZM76.7 9.2001H80.1C82 9.2001 83.2 10.3001 83.2 12.0001C83.2 13.8001 82.1 14.8001 80.2 14.8001H76.7V9.2001ZM76.7 17.3001H80.1L83.4 23.7001H86.9L83.2 16.9001C85.2 16.2001 86.4 14.3001 86.4 12.1001C86.4 8.8001 84.2 6.8001 80.6 6.8001H73.7V23.8001H76.7V17.3001ZM101 23.6001H104.3L98.3 6.6001H94.9L88.9 23.6001H92L93.5 19.3001H99.7L101 23.6001ZM96.4 9.9001H96.6L98.9 16.9001H94L96.4 9.9001ZM107.2 6.7001V23.7001H110.2V18.1001H113.9C117.3 18.1001 119.7 15.8001 119.7 12.4001C119.7 9.0001 117.4 6.7001 114 6.7001H107.2ZM110.2 9.2001H113.2C115.4 9.2001 116.6 10.3001 116.6 12.4001C116.6 14.4001 115.3 15.5001 113.2 15.5001H110.2V9.2001ZM134.1 21.0001H126.2V16.3001H133.7V13.8001H126.2V9.3001H134.1V6.7001H123.1V23.7001H134.1V21.0001ZM140.9 9.2001H144.3C146.2 9.2001 147.4 10.3001 147.4 12.0001C147.4 13.8001 146.3 14.8001 144.4 14.8001H140.9V9.2001ZM140.9 17.3001H144.3L147.6 23.7001H151.1L147.4 16.9001C149.4 16.2001 150.6 14.3001 150.6 12.1001C150.6 8.8001 148.4 6.8001 144.8 6.8001H137.9V23.8001H140.9V17.3001ZM55.5 33.1001V46.1001H60.2C64.1 46.1001 66.3 43.7001 66.3 39.6001C66.3 35.5001 64 33.1001 60.2 33.1001H55.5ZM57.5 34.9001H60C62.7 34.9001 64.3 36.6001 64.3 39.6001C64.3 42.6001 62.7 44.3001 60 44.3001H57.5V34.9001ZM72.8 37.8001C74.2 37.8001 75.2 38.8001 75.2 40.3001H70.2C70.4 38.8001 71.4 37.8001 72.8 37.8001ZM75.2 43.5001C74.8 44.3001 74 44.7001 72.9 44.7001C71.3 44.7001 70.3 43.6001 70.3 41.9001V41.8001H77.2V41.1001C77.2 38.0001 75.6 36.2001 72.8 36.2001C70 36.2001 68.3 38.2001 68.3 41.3001C68.3 44.4001 70 46.4001 72.8 46.4001C75 46.4001 76.6 45.3001 77.1 43.6001L75.2 43.5001ZM87.8 39.5001C87.5 37.5001 86.1 36.1001 83.6 36.1001C80.7 36.1001 79 38.0001 79 41.2001C79 44.4001 80.7 46.3001 83.6 46.3001C86 46.3001 87.5 44.9001 87.8 43.0001H85.9C85.6 44.1001 84.8 44.6001 83.6 44.6001C82 44.6001 81 43.3001 81 41.2001C81 39.1001 82 37.9001 83.6 37.9001C84.9 37.9001 85.7 38.6001 85.9 39.6001L87.8 39.5001ZM94.1 37.8001C95.5 37.8001 96.5 38.8001 96.5 40.3001H91.5C91.6 38.8001 92.6 37.8001 94.1 37.8001ZM96.5 43.5001C96.1 44.3001 95.3 44.7001 94.2 44.7001C92.6 44.7001 91.6 43.6001 91.6 41.9001V41.8001H98.5V41.1001C98.5 38.0001 96.9 36.2001 94.1 36.2001C91.3 36.2001 89.6 38.2001 89.6 41.3001C89.6 44.4001 91.3 46.4001 94.1 46.4001C96.3 46.4001 97.9 45.3001 98.4 43.6001L96.5 43.5001ZM100.8 46.1001H102.7V40.4001C102.7 38.9001 103.6 37.9001 105 37.9001C106.4 37.9001 107.1 38.7001 107.1 40.3001V46.2001H109V39.8001C109 37.5001 107.8 36.1001 105.6 36.1001C104.1 36.1001 103.1 36.8001 102.7 37.8001H102.6V36.2001H100.7L100.8 46.1001ZM112.5 33.9001V36.4001H111V38.0001H112.6V43.5001C112.6 45.4001 113.5 46.1001 115.6 46.1001C116 46.1001 116.3 46.1001 116.7 46.0001V44.4001C116.4 44.4001 116.3 44.4001 116 44.4001C115 44.4001 114.6 43.9001 114.6 42.9001V37.9001H116.7V36.3001H114.6V33.8001L112.5 33.9001ZM118.9 46.1001H120.8V40.3001C120.8 38.9001 121.8 38.0001 123.3 38.0001C123.6 38.0001 124.2 38.1001 124.4 38.1001V36.2001C124.2 36.1001 123.8 36.1001 123.5 36.1001C122.2 36.1001 121.1 36.8001 120.9 37.8001H120.8V36.3001H118.9V46.1001ZM129.4 44.6001C128.3 44.6001 127.6 44.1001 127.6 43.2001C127.6 42.3001 128.2 41.9001 129.6 41.8001L132 41.6001V42.4001C131.9 43.7001 130.9 44.6001 129.4 44.6001ZM128.9 46.3001C130.2 46.3001 131.3 45.7001 131.8 44.8001H132V46.2001H133.9V39.5001C133.9 37.4001 132.5 36.2001 130.1 36.2001C127.9 36.2001 126.3 37.3001 126.1 39.0001H128C128.2 38.3001 129 37.9001 130 37.9001C131.3 37.9001 132 38.5001 132 39.5001V40.3001L129.3 40.5001C127 40.6001 125.6 41.7001 125.6 43.4001C125.6 45.1001 127 46.3001 128.9 46.3001ZM136.7 46.1001H138.6V32.5001H136.7V46.1001ZM141.6 46.1001H143.5V36.3001H141.6V46.1001ZM142.6 34.6001C143.3 34.6001 143.9 34.1001 143.9 33.4001C143.9 32.7001 143.4 32.2001 142.6 32.2001C141.9 32.2001 141.3 32.7001 141.3 33.4001C141.3 34.1001 141.8 34.6001 142.6 34.6001ZM146.2 46.1001H154V44.5001H148.7V44.3001L154 37.7001V36.3001H146.3V37.9001H151.7V38.1001L146.3 44.8001V46.1001H146.2ZM160.3 37.8001C161.7 37.8001 162.7 38.8001 162.7 40.3001H157.7C157.9 38.8001 158.9 37.8001 160.3 37.8001ZM162.7 43.5001C162.3 44.3001 161.5 44.7001 160.4 44.7001C158.9 44.7001 157.8 43.6001 157.8 41.9001V41.8001H164.7V41.1001C164.7 38.0001 163.1 36.2001 160.3 36.2001C157.5 36.2001 155.8 38.2001 155.8 41.3001C155.8 44.4001 157.5 46.4001 160.3 46.4001C162.5 46.4001 164.1 45.3001 164.6 43.6001H162.7V43.5001ZM170.6 46.3001C172 46.3001 173.1 45.7001 173.7 44.6001H173.9V46.2001H175.8V32.5001H173.9V37.9001H173.8C173.3 36.8001 172.1 36.2001 170.8 36.2001C168.3 36.2001 166.7 38.2001 166.7 41.3001C166.5 44.3001 168.1 46.3001 170.6 46.3001ZM171.1 37.9001C172.7 37.9001 173.7 39.2001 173.7 41.2001C173.7 43.3001 172.7 44.5001 171.1 44.5001C169.5 44.5001 168.5 43.2001 168.5 41.2001C168.5 39.1001 169.5 37.9001 171.1 37.9001Z" fill="white"/>
<path d="M43 8.30003C43 8.30003 32.6 2.40003 22.9 2.70003C13.2 3.00003 5.3 7.60003 3.8 9.90003C2.3 12.2 2.6 29.5 12.4 40.2C22.2 50.9 24.2 47.1 26.3 46.3C28.3 45.5 47.5 29.1 43 8.30003Z" fill="#131314"/>
<path d="M45.8 10.3C45.5 17 44 23.5 41.5 29.7C37.8 38 31.8 45 24.1 49.7C23.4 50.2 22.4 50.2 21.7 49.7C11 42.7999 4.2 33.1 1.4 20.6C0.5 16.6 0.1 12.6 0 8.59995C0 7.29995 0.3 6.79995 1.6 6.39995C8.3 4.39995 15 2.49995 21.7 0.599951C22.5 0.399951 23.3 0.399951 24.1 0.599951C30.8 2.49995 37.4 4.39995 44.1 6.39995C45.4 6.79995 45.8 7.29995 45.8 8.69995C45.8 9.19995 45.8 9.79995 45.8 10.3ZM13.4 8.59995C13.3 8.99995 13.2 9.29995 13.1 9.59995C11.2 15.5 9.4 21.4 7.4 27.2999C6.9 28.5999 7.4 29.5 8.1 30.6C8.2 30.2 8.3 29.9 8.4 29.6C10.4 22.7999 12.4 16 14.3 9.09995C14.6 8.19995 15 7.99995 15.8 7.99995C15.7 8.39995 15.7 8.59995 15.6 8.89995C13.7 16.6 11.8 24.2999 9.9 31.9C9.7 32.7 9.4 33.5 10.1 34.2999C10.6 35 11.1 35.7 11.6 36.4C11.7 35.9 11.8 35.6 11.9 35.4C13.6 26.5 15.4 17.6 17.1 8.69995C17.4 7.29995 17.4 7.29995 18.9 7.29995C18.7 8.59995 18.6 9.89995 18.4 11.2C17.1 20.1 15.9 29.1 14.6 38C14.5 38.5999 14.5 39.2 14.7 39.7C14.9 40.2999 15.3 40.6999 15.7 41.0999C16.5 41.7999 17.3 42.5 18.2 43.4L21 4.99995C16.7 6.19995 12.6 7.39995 8.4 8.69995C8.1 8.79995 7.9 8.99995 7.8 9.29995C6.5 11.8 5.2 14.2999 4 16.7999C3.9 17.0999 3.8 17.4 3.8 17.7L4 17.7999C4.2 17.5 4.3 17.1999 4.5 16.9C5.6 14.7 6.6 12.5 7.7 10.3C7.9 9.99995 8.1 9.79995 8.4 9.59995L8.6 9.79995C8.4 10.2 8.3 10.5 8.1 10.9C6.9 13.5 5.7 16 4.5 18.6C4.4 19 4.3 19.5 4.2 20L4.5 20.1C4.6 20 4.6 19.8 4.7 19.7C6.1 16.6 7.5 13.5 9 10.4C9.2 10.1 9.4 9.79995 9.6 9.49995L9.9 9.69995C9.7 9.69995 9.6 9.99995 9.5 10.3C8 13.8 6.4 17.2 5 20.7C4.8 21.3 4.8 21.9 4.8 22.6L5.1 22.7C5.2 22.4 5.4 22.1999 5.5 21.9C7.1 17.9 8.8 13.9 10.4 9.89995C10.6 9.49995 10.7 8.89995 11.5 9.09995C9.6 13.9 7.8 18.7 5.9 23.4C5.5 24.2999 5.6 25.3 6.2 26.2C6.4 25.7 6.5 25.2999 6.7 24.7999L12.2 9.39995C12.4 8.89995 12.5 8.49995 13.4 8.59995ZM27.6 43.5999C28.8 42.5 29.7 41.5 30.7 40.5999C30.9 40.3999 31.1 40.0999 31.2 39.7999C31.3 39.5 31.3 39.2 31.2 38.9C30.1 31.3 29 23.7 28 16.1C27.6 13.2 27.2 10.3 26.8 7.29995C27.7 7.39995 28.4 7.39995 28.7 8.49995C30.2 16.2 31.7 24 33.2 31.7C33.5 33.2 33.8 34.7 34.1 36.4C34.6 35.6 35 35 35.5 34.5C36 33.7999 36.2 32.8999 35.9 32.0999C34.4 26.0999 32.9 20 31.4 14L30 7.99995C30.8 7.99995 31.3 8.19995 31.5 8.99995C32.8 13.8 34.2 18.5 35.6 23.2999C36.3 25.6999 37 28.1 37.7 30.6C38.5 29.6 38.8 28.3 38.4 27.1C36.4 21.4 34.6 15.6 32.8 9.79995C32.7 9.39995 32.6 8.99995 32.5 8.59995L32.9 8.39995C33.2 8.69995 33.5 9.09995 33.7 9.49995C35.1 13.4 36.5 17.2999 37.9 21.2999C38.5 22.9 39.1 24.5 39.7 26.2999C40.2 25.5 40.3 24.4 40 23.5C38.2 19 36.5 14.5 34.8 9.99995C34.7 9.69995 34.6 9.39995 34.5 9.09995L34.8 8.89995C35.1 9.19995 35.3 9.49995 35.5 9.79995C37.2 13.8 38.8 17.7 40.4 21.7C40.5 22 40.7 22.3 40.8 22.6L41.2 22.5C41.2 21.9 41.1 21.3 40.9 20.7C39.4 17.2 37.9 13.8 36.4 10.4C36.3 10.1 36.1 9.69995 36 9.29995C36.2 9.29995 36.4 9.29995 36.4 9.29995C38.1 12.8 39.8 16.4 41.5 19.9C41.7 19.4 41.6 18.9 41.4 18.4C40.2 15.7 38.9 13.1 37.6 10.5C37.5 10.2 37.4 9.89995 37.2 9.69995L37.5 9.49995C39.1 12.2 40.2 15.1 41.9 17.7C41.9 17.3 41.9 16.9 41.7 16.5C40.5 14.1 39.3 11.8 38.1 9.49995C37.9 9.09995 37.5 8.79995 37 8.59995C34.2 7.69995 31.4 6.89995 28.5 6.09995C27.3 5.79995 26.1 5.39995 24.7 4.99995C25.7 17.9 26.7 30.5999 27.6 43.5999Z" fill="white"/>
</g>
<defs>
<clipPath id="clip0_1063_262">
<rect width="175.7" height="50.3" fill="white"/>
</clipPath>
</defs>
</svg>
