<?xml version="1.0" encoding="utf-8"?>
<!-- Generator: Adobe Illustrator 27.7.0, SVG Export Plug-In . SVG Version: 6.00 Build 0)  -->
<svg version="1.1" id="Layer_1" xmlns="http://www.w3.org/2000/svg" xmlns:xlink="http://www.w3.org/1999/xlink" x="0px" y="0px"
	 viewBox="0 0 232 60" style="enable-background:new 0 0 232 60;" xml:space="preserve">
<style type="text/css">
	.st0{fill:#F8F8F8;}
	.st1{fill:#FFFFFF;}
	.st2{fill:#0D0E13;}
</style>
<g>
	<path class="st0" d="M194,19l-12,22h4.5l10-18.4l4,7.4h-6.1l-2.2,4h10.4l3.8,7h4.5l-12-22L194,19z M184,26c0-3.9-3.1-7-7-7
		c0,0,0,0,0,0h-19v22h4V23h14c2.2,0,4,1.3,4,3.5c0,2.2-1.8,3.5-4,3.5h-12v4h13c3.9,0,7-3.1,7-7V26z M227,19l-9,9.8l-9-9.8h-5l12,13
		v9h4v-9l12-13H227z"/>
</g>
<path class="st1" d="M96,34L81,19h-3v22h4V26l15,15h3V19h-4V34z M70,41h4V19h-4V41z M30,0C13.4,0,0,13.5,0,30s13.5,30,30,30
	c16.6,0,30-13.4,30-30C60,13.4,46.5,0,30,0z M110,33h12v-4h-12V33z M145,19h-10c-5,0-9,4-9,9v4c0,5,4,9,9,9c0,0,0,0,0,0h10
	c5,0,9-4,9-9c0,0,0,0,0,0v-4C154,23,150,19,145,19z M150,32c0,2.8-2.2,5-5,5h-10c-2.8,0-5-2.2-5-5v-4c0-2.8,2.2-5,5-5h10
	c2.8,0,5,2.2,5,5V32z M104,41h4V23h15v-4h-19V41z"/>
<g>
	<path class="st2" d="M44.1,30.8c0.2,0.1,0.4,0.1,0.6,0c1.4-0.2,2.4-1.3,2.6-2.7c0.4-1.6-0.5-3.2-2.1-3.7h-0.5
		c-1.4,0.3-2.4,1.4-2.6,2.8C41.7,29,42.7,30.6,44.1,30.8z M48.8,6.7c-0.7-0.6-1.5-1.2-2.3-1.7c4,5.3,6.1,11.9,6.1,18.6
		c0,8.3-3.1,15.7-7.9,20.6c-1.8,1.9-3.9,3.4-6.2,4.5l6.2-11.7l0.1-0.2c1-1.8,1-2.5-0.1-2.4c-0.5,0.1-1,0.2-1.4,0.3
		c-4.7,1.6-9.7,2.4-14.7,2.4c-11.7,0-22.1-4.3-28.4-10.7c-0.1,0.4-0.1,0.8-0.1,1.3C6.4,33.8,16.4,38,27.7,38.3
		c3.6,0.1,7.2-0.2,10.7-0.9l-5.1,11.7c-0.9,2.1,0,3.1,1.3,3.1c2.6-0.1,7.3-3.6,10-6.1c0.6-0.6,1.1-1,1.4-1.4
		c4.9-5.8,7.6-13.1,7.5-20.7C53.7,17.9,52,11.9,48.8,6.7z"/>
</g>
</svg>
