<svg width="158" height="41" viewBox="0 0 158 41" fill="none" xmlns="http://www.w3.org/2000/svg">
<g clip-path="url(#clip0_1063_215)">
<path d="M26.7197 20.5766C26.3125 21.5743 25.7799 22.5096 25.0908 23.3514C24.339 24.2555 23.4619 25.0037 22.4909 25.6273C22.4596 25.6584 22.4282 25.6584 22.4282 25.6896C20.956 26.5314 19.3898 27.0926 17.6669 27.2796C17.1971 27.342 16.7272 27.4044 16.2573 27.4044C13.7827 27.4044 11.3394 27.4044 8.83347 27.4044C8.83347 31.4262 8.83347 35.4168 8.83347 39.4698C5.88898 39.4698 2.94449 39.4698 0 39.4698C0 27.8408 0 16.243 0 4.5517C0.156622 4.5517 0.281919 4.5517 0.407217 4.5517C5.41911 4.5517 10.431 4.52052 15.4429 4.5517C17.7922 4.58288 20.0789 4.957 22.1776 6.11054C24.7776 7.5135 26.4377 9.66471 27.2522 12.5018C27.6594 13.9983 27.6594 15.4948 27.5968 16.9913C27.5341 18.2072 27.2209 19.3919 26.7823 20.5454C26.751 20.5454 26.7197 20.5454 26.7197 20.5766ZM8.83347 20.639C8.95876 20.639 9.08406 20.639 9.20936 20.639C10.7756 20.639 12.3105 20.6701 13.8767 20.639C14.5032 20.639 15.1297 20.5766 15.7248 20.4207C17.3537 19.9843 18.4814 18.9866 18.8886 17.3342C19.1705 16.2119 19.1392 15.0583 18.6693 13.9983C18.45 13.4995 18.0742 13.0006 17.6669 12.6265C16.7899 11.8471 15.6622 11.5041 14.5032 11.473C12.655 11.4106 10.7756 11.4418 8.92744 11.4418C8.89611 11.4418 8.89611 11.473 8.86479 11.473C8.83347 14.4971 8.83347 17.5525 8.83347 20.639Z" fill="white"/>
<path d="M107.85 26.8744C107.85 25.5338 107.787 24.1932 107.881 22.8526C107.944 22.0732 108.194 21.2938 108.382 20.5143C108.695 19.3608 109.291 18.332 110.042 17.3966C111.201 15.9625 112.674 14.9025 114.428 14.2478C115.43 13.8737 116.464 13.5619 117.529 13.3748C118.876 13.1254 120.254 13.0631 121.601 13.2501C122.666 13.406 123.762 13.5931 124.796 13.8737C125.579 14.0919 126.3 14.4037 127.02 14.7778C128.117 15.3078 129.119 16.0249 129.965 16.929C131.218 18.2696 132.063 19.8284 132.314 21.6679C132.439 22.6967 132.533 23.7256 132.565 24.7544C132.596 26.2821 132.596 27.7786 132.565 29.3062C132.533 31.5198 132.001 33.6086 130.654 35.4169C129.589 36.851 128.211 37.8799 126.613 38.6281C125.235 39.2828 123.825 39.6881 122.322 39.8752C121.382 39.9687 120.442 40.0622 119.502 40.0311C118.155 39.9687 116.84 39.7817 115.524 39.4075C114.146 39.0334 112.862 38.441 111.671 37.6304C110.544 36.851 109.667 35.8534 108.977 34.6686C108.414 33.6398 108.038 32.5486 107.912 31.3639C107.85 30.8027 107.818 30.2415 107.818 29.6803C107.818 28.7762 107.85 27.8409 107.85 26.8744ZM124.389 26.5938C124.389 25.5026 124.42 24.4114 124.389 23.3514C124.358 22.1355 123.95 21.0443 122.948 20.2337C121.852 19.3608 120.599 19.2361 119.283 19.4543C117.435 19.7661 116.057 21.3873 116.088 23.2579C116.088 25.3779 116.088 27.5291 116.119 29.6492C116.119 29.9921 116.151 30.3351 116.182 30.678C116.433 32.1745 117.247 33.2033 118.719 33.671C119.44 33.8892 120.16 34.0451 120.943 33.8892C121.883 33.7333 122.76 33.4216 123.418 32.7045C124.17 31.8939 124.42 30.9274 124.42 29.8674C124.389 28.7762 124.389 27.685 124.389 26.5938Z" fill="white"/>
<path d="M52.1237 28.5891C46.8299 28.5891 41.5987 28.5891 36.3362 28.5891C36.2109 29.8985 36.3049 31.1144 37.2133 32.1433C37.8398 32.8292 38.6229 33.2656 39.5 33.5462C40.6277 33.9204 41.7554 33.9827 42.9457 33.7956C44.7938 33.4839 46.5167 32.8603 48.0829 31.8315C48.2082 31.738 48.3335 31.6444 48.4901 31.5197C49.5238 33.0474 50.5575 34.5751 51.6225 36.1027C50.9334 36.8198 50.119 37.4122 49.2732 37.9422C47.6443 38.9398 45.8902 39.5322 44.042 39.8751C42.6638 40.1557 41.2228 40.1246 39.8132 40.0934C38.2157 40.0622 36.6808 39.7504 35.1459 39.2828C33.1725 38.6592 31.481 37.5369 30.1653 35.978C29.1943 34.8245 28.5365 33.4527 28.2546 31.9562C28.0666 31.0521 28.0353 30.1479 28.0353 29.2438C28.0353 27.3732 27.9413 25.5338 28.0666 23.6632C28.2546 21.1067 29.163 18.7996 30.9798 16.8978C32.6086 15.183 34.6134 14.1542 36.9001 13.593C38.4976 13.2189 40.0952 13.0942 41.724 13.1877C44.23 13.3748 46.548 14.0919 48.5527 15.6819C50.3069 17.0848 51.4659 18.9243 51.9044 21.1378C52.0924 22.1043 52.155 23.0708 52.1864 24.0373C52.2177 25.4091 52.1864 26.7497 52.1864 28.1215C52.1237 28.2773 52.1237 28.402 52.1237 28.5891ZM36.2109 23.8502C39.0301 23.8502 41.724 23.8502 44.4492 23.8502C44.4179 23.3202 44.3553 22.8526 44.3553 22.3537C44.2926 21.4184 43.9167 20.6078 43.165 20.0466C41.8807 19.049 40.3771 18.9554 38.8735 19.4231C37.7145 19.7972 36.9001 20.5766 36.5555 21.7302C36.3676 22.3849 36.3362 23.102 36.2109 23.8502Z" fill="white"/>
<path d="M133.974 36.0716C134.632 35.3233 135.29 34.6063 135.916 33.9204C136.48 33.2657 137.044 32.5798 137.608 31.925C137.764 31.738 137.921 31.5509 138.078 31.3639C138.234 31.1768 138.36 31.3015 138.485 31.395C139.237 32.0809 140.082 32.6733 141.022 33.1098C142.244 33.7021 143.497 34.0763 144.844 34.2321C146.003 34.3568 147.13 34.2633 148.227 33.8268C148.634 33.671 149.073 33.4215 149.323 33.0786C150.044 32.1433 149.668 30.678 148.289 30.3038C147.381 30.0544 146.441 29.8674 145.502 29.6491C144.687 29.4621 143.841 29.275 143.027 29.088C142.275 28.9009 141.492 28.7138 140.74 28.4956C139.456 28.1215 138.234 27.5603 137.201 26.6562C136.23 25.8144 135.603 24.7855 135.321 23.5696C135.133 22.7279 135.071 21.8549 135.196 20.982C135.321 19.9219 135.603 18.8931 136.136 17.9578C136.605 17.0849 137.232 16.3678 137.984 15.6819C139.769 14.123 141.899 13.406 144.186 13.1254C145.188 13.0007 146.222 13.063 147.224 13.0942C148.008 13.0942 148.822 13.1566 149.605 13.2501C151.986 13.5307 154.116 14.3725 156.027 15.8378C156.277 16.0248 156.496 16.2119 156.716 16.399C156.747 16.399 156.747 16.4301 156.747 16.4613C155.306 17.8643 153.834 19.2984 152.393 20.7014C152.236 20.8573 152.142 20.8884 151.923 20.7325C151.391 20.3584 150.827 19.9531 150.232 19.6414C149.292 19.1737 148.289 18.8619 147.224 18.7372C146.191 18.6437 145.188 18.6125 144.217 18.8931C143.34 19.1425 142.902 19.6102 142.745 20.4831C142.651 21.0131 143.027 21.699 143.685 21.9173C144.405 22.1667 145.188 22.3537 145.94 22.5408C147.224 22.8214 148.509 23.0396 149.793 23.3514C150.952 23.632 152.111 23.8814 153.207 24.2867C155.056 24.9726 156.559 26.1573 157.405 27.9968C157.781 28.7762 157.937 29.618 158 30.5221C158.063 31.925 157.812 33.2345 157.186 34.4816C156.434 36.0092 155.212 37.1004 153.771 37.9734C152.268 38.8775 150.607 39.4387 148.885 39.7193C147.6 39.9375 146.253 39.9687 144.969 39.9687C143.403 39.9375 141.805 39.7816 140.27 39.3763C138.485 38.9087 136.825 38.1916 135.353 37.0692C134.883 36.851 134.444 36.4769 133.974 36.0716Z" fill="white"/>
<path d="M90.778 4.08412C90.778 6.01709 90.778 7.85652 90.778 9.66478C90.1201 9.66478 89.4623 9.66478 88.8359 9.66478C88.3973 9.66478 87.9274 9.63361 87.4889 9.72714C86.8311 9.85184 86.3926 10.3195 86.3612 10.9742C86.2986 11.8472 86.3612 12.7201 86.3612 13.6242C87.8335 13.6242 89.337 13.6242 90.8719 13.6242C90.8719 15.4325 90.8719 17.2096 90.8719 19.049C89.3684 19.049 87.8648 19.049 86.3299 19.049C86.3299 25.8768 86.3299 32.6421 86.3299 39.4387C83.636 39.4387 80.9734 39.4387 78.2482 39.4387C78.2482 39.2828 78.2482 39.1581 78.2482 39.0022C78.2482 29.6492 78.2482 20.3273 78.2482 10.9742C78.2482 9.35301 78.6554 7.85652 79.5952 6.54709C80.4723 5.3312 81.6626 4.55177 83.1035 4.17765C83.8866 3.95941 84.701 3.83471 85.5155 3.77235C86.4552 3.71 87.3949 3.71 88.3347 3.77235C89.1491 3.83471 89.9635 3.99059 90.778 4.08412Z" fill="white"/>
<path d="M56.5718 39.4386C56.5718 30.8338 56.5718 22.2913 56.5718 13.7177C59.2343 13.7177 61.8969 13.7177 64.5595 13.7177C64.5595 15.0895 64.5595 16.4301 64.5595 17.833C67.1281 14.1542 70.5738 12.6577 75.0218 13.4994C75.0218 15.8065 75.0218 18.1136 75.0218 20.4519C74.2074 20.3584 73.4243 20.2336 72.6412 20.2025C71.9207 20.1713 71.2002 20.2025 70.4798 20.2648C69.9159 20.3272 69.3208 20.3895 68.7569 20.5454C66.5642 21.169 65.1546 22.5407 64.8101 24.879C64.7474 25.2219 64.7474 25.5337 64.7474 25.8767C64.7474 30.2414 64.7474 34.6062 64.7474 39.0021C64.7474 39.1268 64.7474 39.2827 64.7474 39.4386C61.9909 39.4386 59.297 39.4386 56.5718 39.4386Z" fill="white"/>
<path d="M103.558 14.3726C103.558 14.4973 103.59 14.622 103.59 14.7467C103.59 22.8527 103.59 30.9587 103.59 39.0647C103.59 39.1894 103.59 39.3141 103.59 39.4388C100.864 39.4388 98.1705 39.4388 95.4453 39.4388C95.4453 39.3141 95.4453 39.2205 95.4453 39.0958C95.4453 32.5175 95.4453 25.9392 95.4453 19.3297C95.4453 19.0491 95.5393 18.9244 95.7585 18.7997C97.45 17.8644 99.1415 16.8979 100.802 15.9626C101.585 15.5261 102.399 15.0585 103.182 14.5908C103.245 14.5596 103.276 14.4973 103.308 14.4661C103.37 14.4349 103.402 14.4037 103.464 14.4037C103.464 14.3726 103.496 14.3726 103.558 14.3726Z" fill="white"/>
<path d="M103.558 14.3725C103.527 14.3725 103.496 14.3725 103.433 14.3725C103.339 14.3101 103.214 14.2166 103.12 14.1542C103.088 14.1542 103.057 14.1542 103.057 14.1231C102.994 14.0919 102.963 14.0607 102.9 14.0607C102.775 13.9983 102.65 13.9048 102.525 13.8425C102.462 13.8113 102.431 13.7801 102.368 13.7801C102.243 13.7178 102.117 13.6242 101.992 13.5619C101.929 13.5307 101.898 13.4995 101.835 13.4995C101.71 13.4372 101.585 13.3436 101.46 13.2813C101.397 13.2501 101.366 13.2189 101.303 13.2189C101.24 13.1877 101.178 13.1566 101.115 13.1254C101.052 13.0942 100.99 13.063 100.927 13.0007C100.802 12.9383 100.676 12.8448 100.551 12.7824C100.488 12.7513 100.457 12.7201 100.395 12.7201C100.269 12.6577 100.144 12.5642 100.019 12.5019C99.956 12.4707 99.9247 12.4395 99.862 12.4395C99.7367 12.3771 99.6114 12.2836 99.4861 12.2213C99.4235 12.1901 99.3921 12.1589 99.3295 12.1589C99.2668 12.1277 99.2042 12.0966 99.1416 12.0654C99.0789 12.0342 99.0163 12.003 98.9536 11.9407C98.8283 11.8783 98.703 11.7848 98.5777 11.7224C98.5151 11.6913 98.4837 11.6601 98.4211 11.6601C98.2958 11.5977 98.1705 11.5042 98.0452 11.4418C97.9825 11.4107 97.9512 11.3795 97.8886 11.3483C97.638 11.1924 97.3874 11.0677 97.1368 10.9118C97.0741 10.8807 97.0428 10.8495 96.9802 10.8495C96.8549 10.7871 96.7296 10.6936 96.6043 10.6312C96.5416 10.6001 96.5103 10.5689 96.4477 10.5689C96.3224 10.5065 96.1971 10.413 96.0718 10.3506C96.0091 10.3195 95.9778 10.2883 95.9151 10.2883C95.8525 10.2571 95.7898 10.2259 95.7272 10.1948C95.6646 10.1636 95.6019 10.1324 95.5393 10.0701C95.4766 9.883 95.3513 9.69594 95.3513 9.4777C95.3513 6.67178 95.3513 3.83468 95.3513 1.02876C95.3513 0.904054 95.3513 0.74817 95.3513 0.592285C95.4453 0.623462 95.5393 0.654639 95.6019 0.654639C95.6646 0.716993 95.7585 0.74817 95.8212 0.810523C95.9151 0.872877 96.0091 0.904054 96.1344 0.966408C96.1971 1.02876 96.291 1.05994 96.3537 1.12229C96.573 1.247 96.7922 1.37171 97.0428 1.49641C97.1055 1.55877 97.1994 1.58995 97.2621 1.6523C97.3561 1.71465 97.45 1.74583 97.5753 1.80818C97.638 1.87054 97.732 1.90171 97.7946 1.96407C97.8886 2.02642 97.9826 2.0576 98.1079 2.11995C98.2958 2.24466 98.5151 2.36937 98.703 2.49407C98.797 2.55643 98.891 2.58761 99.0163 2.64996C99.0789 2.71231 99.1729 2.74349 99.2355 2.80584C99.3295 2.8682 99.4235 2.89937 99.5488 2.96173C99.6114 3.02408 99.7054 3.05526 99.768 3.11761C99.862 3.17997 99.956 3.21114 100.081 3.2735C100.269 3.3982 100.488 3.52291 100.676 3.64762C100.77 3.6788 100.864 3.74115 100.99 3.77233C101.052 3.83468 101.146 3.86586 101.209 3.92821C101.303 3.99057 101.397 4.05292 101.522 4.0841C101.585 4.11527 101.679 4.17763 101.741 4.2088C101.835 4.27116 101.929 4.33351 102.023 4.36469C102.211 4.45822 102.431 4.58293 102.619 4.67646C102.713 4.73881 102.838 4.80116 102.932 4.86352C102.994 4.92587 103.088 4.95705 103.151 5.0194C103.464 5.14411 103.527 5.36235 103.527 5.67412C103.496 8.51121 103.527 11.3171 103.527 14.1542C103.558 14.0607 103.558 14.2166 103.558 14.3725Z" fill="white"/>
</g>
<defs>
<clipPath id="clip0_1063_215">
<rect width="158" height="40.2182" fill="white"/>
</clipPath>
</defs>
</svg>
