<svg width="166" height="33" viewBox="0 0 166 33" fill="none" xmlns="http://www.w3.org/2000/svg">
<path fill-rule="evenodd" clip-rule="evenodd" d="M41.217 4.43145C39.708 2.92288 37.35 2.92288 35.8409 4.43145L31.408 8.76859L54.7045 32.0572C54.7989 32.1515 54.9875 32.1515 55.1761 32.0572L61.7784 25.4572C61.8727 25.3629 61.8727 25.1743 61.7784 24.9857L41.217 4.43145ZM9.43182 0.754308C9.3375 0.660022 9.14886 0.660022 8.96023 0.754308L2.35795 7.35431C2.26364 7.44859 2.26364 7.63717 2.35795 7.82574L23.0136 28.4743C24.5227 29.9829 26.8807 29.9829 28.3898 28.4743L32.8227 24.1372L9.43182 0.754308Z" fill="#EAEAEA"/>
<path d="M46.7818 10.0886L56.1193 0.754308C56.2136 0.660022 56.4023 0.660022 56.5909 0.754308L63.1932 7.35431C63.2875 7.44859 63.2875 7.63717 63.1932 7.82574L53.8557 17.16L46.7818 10.0886Z" fill="#F9F9F9"/>
<path d="M21.9761 4.43148C23.4852 2.92291 25.8432 2.92291 27.3523 4.43148L46.9705 23.9486L42.4432 28.38C40.9341 29.8886 38.5761 29.8886 37.067 28.38L17.5432 8.86291L21.9761 4.43148Z" fill="#F9F9F9"/>
<path d="M87.9045 11.4085L85.1693 22.6285H81.5852L80.5477 17.7257C80.5477 17.6314 80.4534 17.4428 80.4534 17.2543C80.4534 17.0657 80.3591 16.7828 80.2648 16.5C80.1705 16.2171 80.1705 15.9343 80.0761 15.6514C80.0761 15.3685 79.9818 15.18 79.9818 14.9914C79.9818 15.18 79.8875 15.3685 79.8875 15.6514C79.8875 15.9343 79.7932 16.2171 79.6989 16.5C79.6045 16.7828 79.6046 17.0657 79.5102 17.2543C79.5102 17.4428 79.4159 17.6314 79.4159 17.7257L78.4727 22.6285H74.8886L72.1534 11.4085H75.0773L76.3034 17.0657C76.3034 17.16 76.3977 17.4428 76.3977 17.6314C76.492 17.9143 76.492 18.1971 76.5864 18.48C76.6807 18.7628 76.6807 19.0457 76.775 19.3285C76.8693 19.6114 76.8693 19.8 76.8693 19.9885C76.8693 19.7057 76.9636 19.3285 77.058 18.9514C77.1523 18.5743 77.2466 18.1028 77.2466 17.7257C77.3409 17.3485 77.4352 16.8771 77.5295 16.5943C77.6239 16.2171 77.7182 15.9343 77.7182 15.7457L78.6614 11.5028H81.4909L82.4341 15.7457C82.5284 15.9343 82.5284 16.2171 82.6227 16.5943C82.717 16.9714 82.8114 17.3485 82.9057 17.7257C83 18.1028 83.0943 18.5743 83.1886 18.9514C83.283 19.3285 83.283 19.7057 83.3773 19.9885C83.3773 19.7057 83.4716 19.4228 83.5659 19.0457C83.6602 18.6685 83.7546 18.2914 83.7546 17.9143C83.8489 17.5371 83.8489 17.2543 83.9432 17.0657L85.1693 11.4085H87.9045ZM89.4136 22.6285V11.4085H92.4318V22.6285H89.4136ZM98.5625 11.4085C99.6 11.4085 100.449 11.5028 101.109 11.7857C101.769 12.0685 102.335 12.4457 102.618 12.9171C102.995 13.3885 103.09 14.0485 103.09 14.7085C103.09 15.18 102.995 15.5571 102.901 15.9343C102.713 16.3114 102.524 16.6885 102.241 16.9714C101.958 17.2543 101.581 17.5371 101.203 17.7257L104.505 22.6285H101.109L98.7511 18.5743H97.9966V22.6285H94.9784V11.4085H98.5625ZM98.4682 13.6714H97.9023V16.2171H98.4682C98.9398 16.2171 99.317 16.1228 99.6 15.9343C99.883 15.7457 100.072 15.3685 100.072 14.8028C100.072 14.4257 99.9773 14.1428 99.6943 13.9543C99.4114 13.7657 99.0341 13.6714 98.4682 13.6714ZM112.144 22.6285H105.448V11.4085H112.144V13.86H108.56V15.6514H111.956V18.1028H108.56V20.1771H112.144V22.6285ZM121.482 19.2343C121.482 19.8 121.293 20.46 121.01 20.9314C120.727 21.4971 120.256 21.8743 119.595 22.2514C118.935 22.6285 118.086 22.7228 117.049 22.7228C116.577 22.7228 116.106 22.7228 115.728 22.6285C115.351 22.6285 114.974 22.5343 114.691 22.44C114.314 22.3457 114.031 22.1571 113.653 22.0628V19.3285C114.219 19.6114 114.88 19.8943 115.54 19.9885C116.2 20.1771 116.766 20.2714 117.238 20.2714C117.52 20.2714 117.803 20.2714 117.992 20.1771C118.181 20.0828 118.369 19.9885 118.464 19.8943C118.558 19.8 118.558 19.6114 118.558 19.4228C118.558 19.2343 118.464 19.0457 118.369 18.9514C118.275 18.8571 117.992 18.6685 117.709 18.48C117.426 18.2914 117.049 18.1028 116.577 17.9143C116.2 17.7257 115.823 17.5371 115.445 17.3485C115.068 17.16 114.785 16.8771 114.597 16.6885C114.408 16.4057 114.219 16.1228 114.031 15.7457C113.936 15.3685 113.842 14.9914 113.842 14.52C113.842 13.7657 114.031 13.2 114.408 12.7285C114.785 12.2571 115.257 11.88 115.917 11.5971C116.577 11.3143 117.332 11.22 118.086 11.22C118.841 11.22 119.501 11.3143 120.067 11.5028C120.633 11.6914 121.199 11.88 121.67 12.0685L120.727 14.4257C120.256 14.2371 119.784 14.0485 119.313 13.86C118.841 13.7657 118.369 13.6714 117.992 13.6714C117.709 13.6714 117.52 13.6714 117.332 13.7657C117.143 13.86 117.049 13.9543 116.955 14.0485C116.86 14.1428 116.86 14.2371 116.86 14.4257C116.86 14.6143 116.955 14.7085 117.049 14.8971C117.143 14.9914 117.426 15.18 117.709 15.3685C117.992 15.5571 118.464 15.7457 119.03 16.0285C119.595 16.3114 120.067 16.5 120.444 16.7828C120.822 17.0657 121.105 17.4428 121.293 17.82C121.388 18.1971 121.482 18.6685 121.482 19.2343ZM128.178 22.6285H125.16V13.86H122.425V11.4085H130.914V13.86H128.178V22.6285ZM142.986 16.9714C142.986 17.82 142.892 18.6685 142.703 19.3285C142.515 19.9885 142.138 20.6485 141.76 21.12C141.289 21.5914 140.723 22.0628 140.062 22.3457C139.402 22.6285 138.553 22.7228 137.61 22.7228C136.667 22.7228 135.818 22.6285 135.158 22.3457C134.498 22.0628 133.932 21.6857 133.46 21.2143C132.989 20.7428 132.706 20.0828 132.423 19.4228C132.234 18.6685 132.14 17.9143 132.14 17.0657C132.14 15.9343 132.328 14.8971 132.706 14.0485C133.083 13.2 133.649 12.54 134.498 12.0685C135.347 11.5971 136.384 11.3143 137.61 11.3143C138.931 11.3143 139.968 11.5971 140.723 12.0685C141.572 12.54 142.138 13.2 142.515 14.0485C142.798 14.8028 142.986 15.84 142.986 16.9714ZM135.252 16.9714C135.252 17.6314 135.347 18.1971 135.441 18.6685C135.63 19.14 135.818 19.5171 136.195 19.8C136.573 20.0828 136.95 20.1771 137.516 20.1771C138.082 20.1771 138.553 20.0828 138.836 19.8C139.214 19.5171 139.402 19.14 139.591 18.6685C139.78 18.1971 139.78 17.6314 139.78 16.9714C139.78 15.9343 139.591 15.18 139.308 14.6143C138.931 14.0485 138.365 13.7657 137.61 13.7657C137.044 13.7657 136.573 13.86 136.29 14.1428C135.913 14.4257 135.724 14.8028 135.535 15.2743C135.347 15.7457 135.252 16.3114 135.252 16.9714ZM150.06 13.7657C149.683 13.7657 149.4 13.86 149.117 13.9543C148.834 14.1428 148.551 14.3314 148.363 14.6143C148.174 14.8971 147.985 15.2743 147.891 15.6514C147.797 16.0285 147.702 16.5 147.702 17.0657C147.702 17.7257 147.797 18.3857 147.985 18.8571C148.174 19.3285 148.457 19.7057 148.834 19.9885C149.211 20.2714 149.683 20.3657 150.249 20.3657C150.72 20.3657 151.192 20.2714 151.664 20.1771C152.135 20.0828 152.607 19.8943 153.078 19.7057V22.2514C152.607 22.44 152.041 22.6285 151.569 22.7228C151.098 22.8171 150.532 22.9114 149.872 22.9114C148.645 22.9114 147.702 22.6285 146.853 22.1571C146.099 21.6857 145.533 21.0257 145.156 20.1771C144.778 19.3285 144.59 18.2914 144.59 17.16C144.59 16.3114 144.684 15.5571 144.967 14.8028C145.25 14.1428 145.533 13.4828 146.005 13.0114C146.476 12.4457 147.042 12.0685 147.702 11.7857C148.363 11.5028 149.117 11.3143 150.06 11.3143C150.626 11.3143 151.192 11.4085 151.758 11.5028C152.324 11.5971 152.984 11.7857 153.55 12.0685L152.607 14.4257C152.23 14.2371 151.758 14.0485 151.381 13.9543C150.909 13.7657 150.532 13.7657 150.06 13.7657ZM164.774 22.6285H161.378L159.115 18.3857L158.172 18.9514V22.7228H155.153V11.4085H158.172V16.3114C158.266 16.0285 158.455 15.84 158.643 15.5571C158.832 15.2743 159.02 15.0857 159.115 14.8971L161.473 11.5028H164.774L161.19 16.5L164.774 22.6285Z" fill="white"/>
</svg>
