<?xml version="1.0" encoding="utf-8"?>
<!-- Generator: Adobe Illustrator 27.7.0, SVG Export Plug-In . SVG Version: 6.00 Build 0)  -->
<svg version="1.1" id="Layer_1" xmlns="http://www.w3.org/2000/svg" xmlns:xlink="http://www.w3.org/1999/xlink" x="0px" y="0px"
	 viewBox="0 0 175 54" style="enable-background:new 0 0 175 54;" xml:space="preserve">
<style type="text/css">
	.st0{fill:#FFFFFF;}
	.st1{fill:#F8F8F8;}
	.st2{fill:#F2F2F2;}
</style>
<path class="st0" d="M81.9,27v7.3c0,0.2-0.1,0.4-0.4,0.4h-1.8c-0.2,0-0.4-0.1-0.4-0.4v-6.8c0-1.4-0.8-2.2-2-2.2c-1.2,0-2,0.8-2,2.2
	v6.8c0,0.2-0.1,0.4-0.4,0.4h-1.8c-0.2,0-0.4-0.1-0.4-0.4v-6.8c0-1.4-0.8-2.2-2-2.2c-1.1,0-1.9,0.7-2,1.8v7.2c0,0.2-0.1,0.4-0.4,0.4
	h-1.8c-0.2,0-0.4-0.1-0.4-0.4V23.6c0-0.2,0.1-0.4,0.4-0.4h1.8c0.2,0,0.4,0.1,0.4,0.4v0.6c0,0.1,0.1,0.2,0.2,0
	c0.6-0.8,1.6-1.2,2.8-1.2c1.4,0,2.5,0.6,3.1,1.7c0,0.1,0.1,0.1,0.2,0c0.7-1.2,1.9-1.7,3.2-1.7C80.6,23.1,81.9,24.5,81.9,27z"/>
<path class="st0" d="M84.6,31.5c-0.2-0.7-0.4-1.7-0.4-2.6c0-0.9,0.1-1.9,0.4-2.6c0.6-2.1,2.4-3.3,4.7-3.3c2.2,0,3.9,1.2,4.6,3.3
	c0.3,0.7,0.4,1.7,0.4,2.6c0,0.9-0.1,1.8-0.4,2.6c-0.7,2.1-2.4,3.4-4.6,3.4C87,34.9,85.2,33.6,84.6,31.5z M91.5,30.8
	c0.2-0.5,0.2-1.2,0.2-1.9c0-0.7-0.1-1.4-0.2-1.9c-0.3-1.1-1.2-1.8-2.3-1.8c-1.1,0-1.9,0.6-2.3,1.8c-0.1,0.5-0.2,1.1-0.2,1.9
	c0,0.7,0.1,1.4,0.2,1.9c0.3,1.1,1.2,1.8,2.3,1.8C90.3,32.7,91.1,32,91.5,30.8z"/>
<path class="st0" d="M106.5,28.9c0,1-0.1,2-0.4,2.8c-0.6,1.9-2.1,3.1-4.2,3.1c-1.1,0-1.9-0.4-2.5-1.2c-0.1-0.1-0.2-0.1-0.2,0v0.6
	c0,0.2-0.1,0.4-0.4,0.4h-1.8c-0.2,0-0.4-0.1-0.4-0.4v-15c0-0.2,0.1-0.4,0.4-0.4h1.8c0.2,0,0.4,0.1,0.4,0.4v4.8c0,0.1,0.1,0.1,0.2,0
	c0.6-0.7,1.4-1.1,2.5-1.1c2.2,0,3.6,1.2,4.2,3.1C106.4,27,106.5,27.9,106.5,28.9z M103.8,29c0-1.2-0.2-2.1-0.6-2.7
	c-0.4-0.6-1-0.9-1.7-0.9c-0.7,0-1.3,0.4-1.6,1c-0.4,0.6-0.5,1.5-0.5,2.7c0,1.1,0.2,2,0.5,2.6c0.4,0.7,0.9,1,1.7,1
	c0.8,0,1.5-0.4,1.8-1.1C103.7,30.9,103.8,30,103.8,29z"/>
<path class="st0" d="M108.5,20.2c0-0.9,0.7-1.6,1.6-1.6s1.6,0.7,1.6,1.6c0,1-0.7,1.6-1.6,1.6C109.2,21.8,108.5,21.1,108.5,20.2z
	 M108.9,34.3V23.6c0-0.2,0.1-0.4,0.4-0.4h1.8c0.2,0,0.4,0.1,0.4,0.4v10.7c0,0.2-0.1,0.4-0.4,0.4h-1.8
	C109,34.7,108.9,34.6,108.9,34.3z"/>
<path class="st0" d="M114.3,31.6c-0.3-0.8-0.4-1.7-0.4-2.7c0-1.2,0.1-2,0.4-2.7c0.6-2,2.4-3.2,4.6-3.2c2.3,0,4.1,1.3,4.7,3.1
	c0.1,0.2,0.1,0.5,0.1,0.6c0,0.2-0.1,0.4-0.3,0.4l-1.8,0.3c-0.2,0-0.4-0.1-0.4-0.3l-0.1-0.3c-0.2-0.9-1.1-1.6-2.2-1.6
	c-1.1,0-1.9,0.6-2.2,1.6c-0.1,0.4-0.2,1.1-0.2,2c0,0.9,0.1,1.6,0.2,2c0.3,1,1.1,1.7,2.2,1.7c1.1,0,2-0.6,2.2-1.6c0-0.1,0-0.1,0-0.1
	c0-0.1,0.2-0.4,0.4-0.3l1.8,0.3c0.2,0,0.3,0.2,0.3,0.4c0,0.1,0,0.3-0.1,0.4c-0.6,1.9-2.4,3.1-4.7,3.1
	C116.7,34.9,115,33.6,114.3,31.6z"/>
<path class="st0" d="M125.9,34.3v-15c0-0.2,0.1-0.4,0.4-0.4h1.8c0.2,0,0.4,0.1,0.4,0.4v15c0,0.2-0.1,0.4-0.4,0.4h-1.8
	C126,34.7,125.9,34.6,125.9,34.3z"/>
<path class="st0" d="M131.3,31.5c-0.2-0.7-0.4-1.7-0.4-2.6c0-0.9,0.1-1.9,0.4-2.6c0.6-2.1,2.4-3.3,4.7-3.3c2.2,0,3.9,1.2,4.6,3.3
	c0.3,0.7,0.4,1.7,0.4,2.6c0,0.9-0.1,1.8-0.4,2.6c-0.6,2.1-2.4,3.4-4.6,3.4C133.7,34.9,131.9,33.6,131.3,31.5z M138.2,30.8
	c0.2-0.5,0.2-1.2,0.2-1.9c0-0.7-0.1-1.4-0.2-1.9c-0.3-1.1-1.2-1.8-2.3-1.8c-1.1,0-1.9,0.6-2.2,1.8c-0.1,0.5-0.2,1.1-0.2,1.9
	c0,0.7,0.1,1.4,0.2,1.9c0.3,1.1,1.2,1.8,2.3,1.8C137,32.7,137.9,32,138.2,30.8z"/>
<path class="st0" d="M143.4,31.6c-0.3-0.8-0.4-1.7-0.4-2.7c0-1.2,0.1-2,0.4-2.7c0.6-2,2.4-3.2,4.6-3.2c2.3,0,4.1,1.3,4.7,3.1
	c0.1,0.2,0.1,0.5,0.1,0.6c0,0.2-0.1,0.4-0.3,0.4l-1.8,0.3c-0.2,0-0.4-0.1-0.4-0.3l-0.1-0.3c-0.2-0.9-1.1-1.6-2.2-1.6
	c-1.1,0-1.9,0.6-2.2,1.6c-0.1,0.4-0.2,1.1-0.2,2c0,0.9,0.1,1.6,0.2,2c0.3,1,1.1,1.7,2.2,1.7c1.1,0,2-0.6,2.2-1.6c0-0.1,0-0.1,0-0.1
	c0-0.1,0.2-0.4,0.4-0.3l1.8,0.3c0.2,0,0.3,0.2,0.3,0.4c0,0.1,0,0.3-0.1,0.4c-0.6,1.9-2.4,3.1-4.7,3.1
	C145.8,34.9,144.1,33.6,143.4,31.6z"/>
<path class="st0" d="M155,34.3v-15c0-0.2,0.1-0.4,0.4-0.4h1.8c0.2,0,0.4,0.1,0.4,0.4v8c0,0.1,0.1,0.2,0.2,0.1l3.5-4
	c0.1-0.1,0.3-0.2,0.4-0.2h2.1c0.3,0,0.4,0.2,0.2,0.4l-2.7,3.3c0,0,0,0.1,0,0.2l3.2,7.1c0.1,0.3,0,0.4-0.3,0.4h-1.9
	c-0.2,0-0.3-0.1-0.4-0.3l-2.4-5.6c0-0.1-0.1-0.1-0.2,0l-1.7,2c0,0.1-0.1,0.1-0.1,0.2v3.4c0,0.2-0.1,0.4-0.4,0.4h-1.8
	C155.1,34.7,155,34.6,155,34.3z"/>
<path class="st0" d="M165.8,31.6v-0.1c0-0.2,0.1-0.4,0.4-0.4h1.7c0.2,0,0.4,0.1,0.4,0.2v0.2c0,0.7,0.9,1.4,2.1,1.4
	c1.2,0,2-0.6,2-1.3c0-0.9-1.3-1.1-2.7-1.6c-1.7-0.5-3.7-1.3-3.7-3.5c0-2.1,1.8-3.4,4.3-3.4c2.7,0,4.5,1.4,4.5,3.4
	c0,0.2-0.1,0.3-0.4,0.3h-1.7c-0.2,0-0.4,0-0.4-0.1v-0.1c0-0.7-0.8-1.4-2.1-1.4c-1.1,0-1.9,0.4-1.9,1.2c0,0.9,1.2,1.1,2.7,1.6
	c1.8,0.5,3.9,1.2,3.9,3.5c0,2.1-1.8,3.4-4.5,3.4C167.6,34.8,165.8,33.5,165.8,31.6z"/>
<path class="st1" d="M21,48.6c7.4,7.1,19.3,4.7,23.5-4.7L60.3,8.4c2.1-4.6-3.2-9.1-7.2-6L22.4,25.4C14.9,31,14.3,42.2,21,48.6z
	 M25.2,37.5c0-3.2,2.5-5.9,5.7-5.9c3.2,0,5.7,2.6,5.8,5.8c0,3.3-2.5,5.9-5.7,5.9C27.8,43.4,25.2,40.8,25.2,37.5z"/>
<path class="st2" d="M43.2,29.2L30,19.7l4.2-3.1L43.2,29.2z"/>
<path class="st0" d="M0.5,8.9l17.3,35.4c4.1,8.5,14.7,11.1,22.1,5.4c8.1-6.2,7.8-18.7-0.5-24.6L7.6,2.6C3.5-0.3-1.7,4.3,0.5,8.9z
	 M25.2,37.5c0-3.2,2.5-5.9,5.7-5.9c3.2,0,5.7,2.6,5.8,5.8c0,3.3-2.5,5.9-5.7,5.9C27.8,43.4,25.2,40.8,25.2,37.5z"/>
</svg>
