<svg width="170" height="42" viewBox="0 0 170 42" fill="none" xmlns="http://www.w3.org/2000/svg">
<path d="M47.8506 20.485H58.9695L58.6536 33.3396H56.0313L55.6469 29.1938C54.202 32.3507 51.4516 33.9269 47.3955 33.9269C43.642 33.9269 40.653 32.6651 38.4262 30.1434C36.1994 27.6218 35.0882 24.5742 35.0882 21.0045C35.0882 18.6774 35.572 16.5531 36.5396 14.6297C37.5072 12.7063 38.9741 11.1344 40.9447 9.91179C42.913 8.69137 45.2283 8.08008 47.886 8.08008C50.8706 8.08008 53.283 8.83547 55.1232 10.3441C56.9635 11.8526 58.2117 13.7935 58.8657 16.1666H54.5998C53.5968 13.1255 51.3588 11.6059 47.886 11.6059C45.1819 11.6059 43.0787 12.5098 41.5742 14.3175C40.072 16.1252 39.3187 18.3542 39.3187 21.0045C39.3187 23.6551 40.0587 25.8818 41.539 27.6918C43.019 29.4994 45.0649 30.4055 47.6762 30.4055C49.7748 30.4055 51.5399 29.8247 52.9738 28.6611C54.4075 27.4974 55.216 25.8447 55.4039 23.703L47.8506 23.738V20.485Z" fill="white"/>
<path d="M76.7286 31.2146C74.9812 32.9546 72.7544 33.8235 70.0503 33.8235C67.3462 33.8235 65.1194 32.9546 63.3719 31.2146C61.6245 29.4766 60.7497 27.2127 60.7497 24.4247C60.7497 21.6368 61.6245 19.3685 63.3719 17.6176C65.1194 15.8667 67.3462 14.9912 70.0503 14.9912C72.7544 14.9912 74.9812 15.8667 76.7286 17.6176C78.4761 19.3685 79.3511 21.6368 79.3511 24.4247C79.3511 27.2127 78.4761 29.4766 76.7286 31.2146ZM66.2903 28.8479C67.28 30.0008 68.5327 30.5749 70.0482 30.5749C71.5636 30.5749 72.8162 29.9985 73.8059 28.8479C74.7956 27.6951 75.2927 26.2216 75.2927 24.4247C75.2927 22.628 74.7979 21.1543 73.8059 20.0016C72.814 18.8489 71.5613 18.2747 70.0482 18.2747C68.5569 18.2747 67.3087 18.8512 66.3057 20.0016C65.3027 21.1543 64.8014 22.628 64.8014 24.4247C64.8014 26.2216 65.2984 27.6974 66.2903 28.8479Z" fill="white"/>
<path d="M81.2352 8.66797H85.2913V33.3403H81.2352V8.66797Z" fill="white"/>
<path d="M101.32 8.66797H105.516V33.3403H101.32V30.0918H101.285C100.887 31.2204 100.189 32.1309 99.1861 32.8207C98.1833 33.5129 96.9372 33.8578 95.4438 33.8578C93.0424 33.8578 91.0718 32.9714 89.5342 31.1964C87.9966 29.4236 87.2256 27.1422 87.2256 24.3542C87.2256 21.5903 87.9877 19.3394 89.5165 17.5994C91.0431 15.8594 93.0182 14.9905 95.4438 14.9905C96.9129 14.9905 98.1722 15.3529 99.2194 16.0799C100.269 16.8048 100.967 17.6867 101.318 18.7238V8.66797H101.32ZM96.4601 30.5414C98.1612 30.5414 99.4447 29.9716 100.306 28.832C101.168 27.6924 101.601 26.2012 101.601 24.3565V24.149C101.554 22.4221 101.071 21.0096 100.149 19.9159C99.2283 18.822 97.9999 18.274 96.4601 18.274C94.8982 18.274 93.6456 18.857 92.7022 20.0184C91.7589 21.182 91.2861 22.6273 91.2861 24.3542C91.2861 26.1293 91.7524 27.6029 92.6845 28.7774C93.6169 29.9542 94.8738 30.5414 96.4601 30.5414Z" fill="white"/>
<path d="M124.991 27.5686C124.572 29.5727 123.633 31.1164 122.177 32.1991C120.721 33.282 118.896 33.8235 116.705 33.8235C113.954 33.8235 111.681 32.9546 109.887 31.2146C108.091 29.4768 107.194 27.2127 107.194 24.4247C107.194 21.591 108.091 19.3118 109.887 17.5826C111.681 15.8557 113.954 14.9912 116.705 14.9912C118.918 14.9912 120.754 15.5501 122.212 16.6679C123.668 17.7858 124.572 19.2768 124.923 21.1435H121.041C120.319 19.1634 118.85 18.1722 116.636 18.1722C115.074 18.1722 113.775 18.742 112.737 19.8816C111.699 21.0212 111.182 22.5363 111.182 24.4247C111.182 26.2915 111.701 27.7935 112.737 28.9354C113.773 30.075 115.074 30.6448 116.636 30.6448C118.991 30.6448 120.482 29.6208 121.112 27.5686H124.991Z" fill="white"/>
<path d="M141.886 29.2287C141.886 31.1869 142.003 32.558 142.235 33.3417H138.109C137.992 32.7435 137.934 31.9489 137.934 30.9577V30.4402H137.899C137.525 31.3855 136.872 32.1802 135.942 32.8244C135.009 33.4684 133.75 33.7914 132.166 33.7914C130.209 33.7914 128.658 33.274 127.516 32.2371C126.374 31.2 125.804 29.9446 125.804 28.4711C125.804 27.8488 125.896 27.279 126.084 26.7615C126.27 26.2442 126.504 25.8053 126.784 25.4473C127.065 25.0915 127.436 24.7683 127.902 24.4802C128.368 24.192 128.799 23.9671 129.197 23.8056C129.592 23.6439 130.083 23.4955 130.666 23.3558C131.249 23.2183 131.72 23.1266 132.082 23.0785C132.442 23.0326 132.897 22.9694 133.445 22.8886C133.993 22.8077 134.36 22.7575 134.548 22.7335C135.829 22.5262 136.71 22.2838 137.188 22.0087C137.665 21.7315 137.903 21.2382 137.903 20.5221C137.903 19.7622 137.594 19.1641 136.978 18.7252C136.359 18.2885 135.504 18.068 134.408 18.068C133.405 18.068 132.59 18.3213 131.961 18.8279C131.331 19.3343 130.993 20.0373 130.947 20.9345H126.994C127.087 19.3212 127.77 17.9217 129.04 16.7363C130.31 15.5509 132.075 14.957 134.338 14.957C139.372 14.957 141.891 17.4219 141.891 22.3515V29.2287H141.886ZM138.005 25.1176V23.251C137.771 23.8273 137.329 24.3098 136.677 24.7028C136.023 25.0959 134.998 25.4166 133.6 25.67C132.294 25.9014 131.338 26.2223 130.732 26.6371C130.125 27.052 129.822 27.6391 129.822 28.399C129.822 29.1128 130.125 29.7001 130.732 30.1609C131.338 30.6215 132.153 30.8528 133.18 30.8528C134.532 30.8528 135.674 30.3639 136.607 29.3835C137.539 28.4055 138.005 26.982 138.005 25.1176Z" fill="white"/>
<path d="M154.254 20.8301C154.115 19.9087 153.718 19.2122 153.066 18.7385C152.412 18.267 151.643 18.0311 150.757 18.0311C149.964 18.0311 149.277 18.2452 148.694 18.6709C148.111 19.0965 147.819 19.6205 147.819 20.2428C147.819 20.6575 147.93 21.0156 148.151 21.3147C148.371 21.6137 148.756 21.8801 149.304 22.1093C149.852 22.3409 150.353 22.5132 150.808 22.6268C151.263 22.7425 151.979 22.915 152.958 23.1443C156.616 23.9521 158.448 25.6331 158.448 28.1895C158.448 29.9164 157.725 31.2876 156.28 32.3006C154.835 33.3158 153.075 33.82 151 33.82C148.972 33.82 147.243 33.331 145.809 32.3507C144.375 31.3726 143.564 29.8793 143.379 27.8752H147.399C147.748 29.7876 148.972 30.744 151.071 30.744C152.003 30.744 152.79 30.5475 153.431 30.1567C154.071 29.7659 154.392 29.1786 154.392 28.3948C154.392 27.6568 154.089 27.1285 153.481 26.8055C152.874 26.4824 151.827 26.1483 150.333 25.8034C150.053 25.7336 149.843 25.6877 149.704 25.6659C145.833 24.7903 143.9 23.0395 143.9 20.4131C143.9 18.8237 144.576 17.5224 145.928 16.5073C147.28 15.4943 148.913 14.9878 150.824 14.9878C152.852 14.9878 154.517 15.4878 155.823 16.4898C157.129 17.4919 157.886 18.9373 158.096 20.8257H154.254V20.8301Z" fill="white"/>
<path d="M168.845 18.5864H165.312V27.1904C165.312 29.2404 165.999 30.2666 167.376 30.2666H168.46V33.3426H166.536C163.039 33.3426 161.292 31.4541 161.292 27.675V18.5864H158.495V15.4754H161.292V11.467L165.173 9.53271H165.312V15.4754H168.845V18.5864Z" fill="white"/>
<path fill-rule="evenodd" clip-rule="evenodd" d="M18.3086 21.0007C18.3086 11.0075 10.1122 2.90743 0 2.90743V0.324707C11.5556 0.324707 20.922 9.58107 20.922 21.0007C20.922 32.4203 11.5556 41.6766 0 41.6766V39.0939C10.1122 39.0939 18.3086 30.9939 18.3086 21.0007Z" fill="white"/>
<path fill-rule="evenodd" clip-rule="evenodd" d="M10.4616 21.0014C10.4616 15.2916 5.77773 10.6628 0 10.6628V8.08008C7.22112 8.08008 13.0751 13.8652 13.0751 21.0014C13.0751 28.1372 7.22144 33.9248 0 33.9248V31.342C5.77741 31.342 10.4616 26.7115 10.4616 21.0014Z" fill="white"/>
</svg>
