<svg xmlns="http://www.w3.org/2000/svg" viewBox="0 0 637.44 200.44"><defs><style>.cls-1{fill:#fff;}</style></defs><g id="Layer_2" data-name="Layer 2"><g id="Layer_1-2" data-name="Layer 1"><path class="cls-1" d="M0,83.05c1.17-4.51,1.64-9.17,3.12-13.63A67.29,67.29,0,0,1,32.39,32.23c1.67-1,1.82-1.59.71-3.21-5.83-8.51-7.71-18.11-7.61-29,6.2,10.84,11.25,21.89,25.12,24.76a21.21,21.21,0,0,1-1.12-13.34c4,9.4,10.79,15.78,18.94,20.89a52.53,52.53,0,0,0,16.46,7A22.26,22.26,0,0,1,92.09,42c3.71,2.37,4.42,5.69,1.69,9.08a20.64,20.64,0,0,0-4.58,8.67c-.53,2.4-2.82,3.35-6.12,2.6A26,26,0,0,0,72.39,62a27.58,27.58,0,0,0-8,3.09,39,39,0,0,0,.38-4.51c-.09-2.88-1-3.56-3.84-3-13,2.36-23.45,13-25.89,26.35-3,16.14,6.24,31.43,22,36.58s32.81-1.87,39.75-16.5c4.38-9.23,3.68-18.59.35-27.95-1.42-4-3.34-7.77-4.32-11.91-.79-3.31,0-6.15,2.71-8.12,9.58-6.95,5.08-16.1-3.28-18.88-2.27-.75-4.51-1.61-6.81-2.24-7.18-1.93-17.55-7.62-21.75-12.13a52.14,52.14,0,0,1,14.92.76,68,68,0,0,1,56,68.08c-.72,31.89-26.11,60.26-57.78,64.55A67.61,67.61,0,0,1,.51,97.29c-.07-.53,0-1.11-.51-1.51Z"/><path class="cls-1" d="M618.24,139.48c-7.78,8.63-16.41,14.19-27.13,16-23.54,4-44.45-7.74-53.13-30-7.68-19.7-4.58-45.35,14.35-61,15.37-12.7,33.07-15.33,51.52-8.84,18.07,6.35,28.82,19.82,32.62,38.66a55.46,55.46,0,0,1,1,11c0,13.55,0,27.1,0,40.66,0,6.7-5.37,10.89-11.92,9.52-4.23-.89-7-4.43-7.24-9.26C618.16,144.24,618.24,142.25,618.24,139.48ZM552.6,105.42a35.93,35.93,0,0,0,1.83,11.17c7.49,23.45,37.38,30.8,54.66,13.33,8.3-8.38,10.75-18.75,9.67-30.25-2-21.22-22-34.93-42.44-29C562.07,74.86,552.72,88.11,552.6,105.42Z"/><path class="cls-1" d="M173,65.74c6.25-5.79,13-9.68,20.89-11.12,17.63-3.2,33.49-.06,45.68,14.17,7,8.18,9.9,18.1,10.08,28.65.3,16.68.14,33.37.1,50.05a9,9,0,0,1-9,9.29c-5.63.21-9.79-3.2-9.94-8.81-.26-9.67-.1-19.35-.18-29-.07-7.46.3-14.93-.23-22.39-1-14.81-11.2-24.75-26.07-25.74-10.43-.7-19.58,1.86-26.61,10a20.36,20.36,0,0,0-4.92,13.74q0,26.15,0,52.27c0,5.93-3.43,9.7-8.85,9.93-6.13.25-10.15-3.52-10.16-9.75q-.06-41.34,0-82.69c0-6,3.76-10,9.41-10,5.82,0,9.3,3.5,9.63,9.77C172.87,64.46,172.93,64.8,173,65.74Z"/><path class="cls-1" d="M314.16,126.37c3.58-8,7-15.65,10.35-23.27q9.74-22,19.46-43.91c3.14-7,11.12-8.13,16.17-2.21,2.27,2.67,2,5.62.68,8.57Q355,78.81,349.06,92.05l-45.48,102.1c-2.71,6.1-6.37,7.67-12.05,5.13-5.53-2.48-6.88-6.3-4.27-12.19,5.77-13,11.52-26.09,17.4-39.09a5.14,5.14,0,0,0-.19-5.08Q284.17,104.6,264,66.21c-2.09-4-1.75-7.36,1-10.14a9.54,9.54,0,0,1,10.73-1.92A10.13,10.13,0,0,1,280,59q16.23,32.19,32.48,64.37C313,124.28,313.46,125.12,314.16,126.37Z"/><path class="cls-1" d="M457.54,155.52c-2.71.14-4.89-1.25-6.79-3.54-9.11-11-18.33-21.92-27.4-33-1.47-1.78-2.13-1.71-3.53.08-8.47,10.8-17.07,21.49-25.61,32.24a10.86,10.86,0,0,1-4.17,3.53,8.49,8.49,0,0,1-9.27-1.56c-2.55-2.69-2.94-5.84-1.63-9.22a15.86,15.86,0,0,1,2.63-4.2c8.92-11.14,17.8-22.33,26.79-33.42,1.26-1.55,1.12-2.45-.11-3.89Q394.17,85.87,380,69a20.47,20.47,0,0,1-2.14-2.88c-2.35-4.07-1.53-9.2,1.76-11.49a9.41,9.41,0,0,1,12.06,1.79c6,7.1,12,14.27,18,21.4,3.73,4.45,7.55,8.83,11.17,13.37,1.36,1.71,2,1.34,3.11-.17,8.32-11.15,16.73-22.23,25.08-33.35,1.24-1.64,2.48-3.25,4.54-3.89,3.28-1,6.54-.95,9.05,1.59s3,6,1.83,9.52a16.19,16.19,0,0,1-2.78,4.74c-8.68,11.34-17.32,22.71-26.05,34-1.15,1.49-1.29,2.35,0,3.9,9.25,10.89,18.37,21.89,27.52,32.87a19.49,19.49,0,0,1,1.86,2.4c1.67,2.79,2.13,5.72.47,8.65S461.17,155.61,457.54,155.52Z"/><path class="cls-1" d="M511.32,104.4c0,14,0,28,0,42a8.92,8.92,0,0,1-7.73,9c-5,.72-9.24-1.72-10.79-6.19a11.26,11.26,0,0,1-.46-3.82q0-41.06,0-82.13c0-5,2.05-8.09,6.07-9.5a10.13,10.13,0,0,1,10.88,2.68c1.72,2,2.08,4.42,2.07,7C511.31,77.11,511.33,90.75,511.32,104.4Z"/><path class="cls-1" d="M489.54,24.3a12.31,12.31,0,1,1,12.23,12.32A12.24,12.24,0,0,1,489.54,24.3Z"/></g></g></svg>