<?xml version="1.0" encoding="UTF-8"?>
<svg id="Layer_1" xmlns="http://www.w3.org/2000/svg" version="1.1" viewBox="0 0 175.7 50.3">
  <!-- Generator: Adobe Illustrator 29.4.0, SVG Export Plug-In . SVG Version: 2.1.0 Build 152)  -->
  <defs>
    <style>
      .st0 {
        fill: #fff;
      }
    </style>
  </defs>
  <path class="st0" d="M46.18,23.75v-5.05h9.83c1.68,0,2.67.84,2.67,2.53s-.98,2.53-2.67,2.53h-9.83ZM42.11,35.54h4.07v-7.86h9.83c4.21,0,6.88-2.25,6.88-6.46s-2.67-6.46-6.88-6.46h-13.9v20.77ZM87.72,18.69h8.42v16.84h4.07v-16.84h8.42v-3.93h-20.91v3.93ZM111.44,35.54h17.54v-3.93h-13.47V14.76h-4.07v20.77ZM175.7,28.24h-4.49c-1.09,2.22-3.4,3.65-6.15,3.65-3.87,0-6.88-2.86-6.88-6.74s3-6.74,6.88-6.74c2.75,0,5.05,1.43,6.15,3.65h4.49c-1.32-4.55-5.56-7.64-10.64-7.64-6.18,0-11.09,4.55-11.09,10.72s4.91,10.72,11.09,10.72c5.08,0,9.32-3.09,10.64-7.64ZM0,37.33v-5.17h12.18c1.01,0,1.85-.84,1.85-1.85v-5.17H0v-12.18c0-1.01.84-1.85,1.85-1.85h24.37c1.01,0,1.85.84,1.85,1.85v19.2h-12.18c-1.01,0-1.85.84-1.85,1.85v5.17H1.85c-1.01,0-1.85-.84-1.85-1.85ZM140.64,18.41c3.87,0,6.88,2.86,6.88,6.74s-3,6.74-6.88,6.74-6.88-2.86-6.88-6.74,3-6.74,6.88-6.74ZM140.64,14.43c-6.18,0-11.09,4.55-11.09,10.72s4.91,10.72,11.09,10.72,11.09-4.55,11.09-10.72-4.91-10.72-11.09-10.72ZM76.07,18.41c3.87,0,6.88,2.86,6.88,6.74s-3,6.74-6.88,6.74-6.88-2.86-6.88-6.74,3-6.74,6.88-6.74ZM76.07,14.43c-6.18,0-11.09,4.55-11.09,10.72s4.91,10.72,11.09,10.72,11.09-4.55,11.09-10.72-4.91-10.72-11.09-10.72Z"/>
</svg>