<svg width="58" height="59" viewBox="0 0 58 59" fill="none" xmlns="http://www.w3.org/2000/svg">
<g id="C2 1">
<g id="Group">
<path id="Vector" d="M28.9501 55.7352C43.6843 55.7352 55.6288 43.7645 55.6288 28.998C55.6288 14.2314 43.6843 2.26074 28.9501 2.26074C14.2159 2.26074 2.27139 14.2314 2.27139 28.998C2.27139 43.7645 14.2159 55.7352 28.9501 55.7352Z" stroke="white" stroke-width="2" stroke-miterlimit="10" stroke-linecap="round"/>
<path id="Vector_2" d="M29.2994 55.5022L24.4427 48.9346" stroke="white" stroke-width="2" stroke-miterlimit="10" stroke-linecap="round"/>
<path id="Vector_3" d="M29.8982 40.1328L39.6781 53.3681" stroke="white" stroke-width="2" stroke-miterlimit="10" stroke-linecap="round"/>
<path id="Vector_4" d="M36.8839 32.2988L48.1441 47.551" stroke="white" stroke-width="2" stroke-miterlimit="10" stroke-linecap="round"/>
<path id="Vector_5" d="M45.1503 7.72852L36.5179 9.52878C34.389 9.97884 32.3598 10.8456 30.5635 12.0792C27.1205 14.4628 21.3324 18.4634 19.0038 20.1303C15.5775 22.5973 19.8521 29.1816 27.3866 25.7145L35.7695 22.1139C38.2477 21.0471 41.1252 21.8306 42.7385 23.9976L53.6994 38.833" stroke="white" stroke-width="2" stroke-miterlimit="10" stroke-linecap="round"/>
</g>
</g>
</svg>
