<?xml version="1.0" encoding="utf-8"?>
<!-- Generator: Adobe Illustrator 27.7.0, SVG Export Plug-In . SVG Version: 6.00 Build 0)  -->
<svg version="1.1" id="Layer_1" xmlns="http://www.w3.org/2000/svg" xmlns:xlink="http://www.w3.org/1999/xlink" x="0px" y="0px"
	 viewBox="0 0 118.7 30" style="enable-background:new 0 0 118.7 30;" xml:space="preserve">
<style type="text/css">
	.st0{fill-rule:evenodd;clip-rule:evenodd;fill:#FFFFFF;}
	.st1{fill-rule:evenodd;clip-rule:evenodd;}
</style>
<path d="M15.2,30c8.5,0,15.3-6.7,15.3-15S23.6,0,15.2,0C6.8,0,0,6.7,0,15S6.8,30,15.2,30z"/>
<path class="st0" d="M15.2,4c-2.6,0-4.7,1.9-5.1,4.4l0,0c0.3-0.1,0.6-0.1,1-0.1c0.3,0,0.8,0,1.1,0.1l0,0c0.3-1.3,1.5-2.4,3-2.4
	c1.4,0,2.6,1,3,2.4l0,0c0.3-0.1,0.7-0.1,1.1-0.1c0.3,0,0.7,0,1,0.1l0,0C20,5.9,17.8,4,15.2,4z M11.2,9.4c1.3,0,2.5,0.5,3.4,1.3
	c0,0,0,0,0,0.1c-0.4,0.6-0.8,1.2-1,1.9h-0.1c-0.5-0.7-1.4-1.1-2.4-1.1c-1.7,0-3.1,1.4-3.1,3.1c0,1.7,1.4,3.1,3.1,3.1
	c1,0,1.8-0.4,2.4-1.1h0.1c0.3,0.7,0.6,1.3,1,1.9c0,0,0,0,0,0.1c-0.9,0.9-2.1,1.4-3.5,1.4C8.3,20,6,17.6,6,14.8
	C6,11.8,8.3,9.4,11.2,9.4z M15.2,26C15.2,26,15.3,26,15.2,26l7.2-7.2c0,0,0,0,0-0.1L21,17.2c0,0,0,0-0.1,0l-5.7,5.8c0,0,0,0-0.1,0
	L13.3,21c0,0,0,0-0.1,0l-1.5,1.5c0,0,0,0,0,0.1L15.2,26z M14.1,14.6c0,1.2,0.4,2.3,1,3.1c0,0,0,0,0.1,0l1.5-1.5l0,0
	c-0.3-0.4-0.4-1-0.4-1.7c0-1.7,1.4-3.1,3.1-3.1s3.1,1.4,3.1,3.1c0,0.7-0.3,1.4-0.6,1.8c0,0,0,0,0,0.1l1.5,1.5c0,0,0,0,0.1,0
	c0.8-0.9,1.2-2.1,1.2-3.4c0-2.9-2.3-5.1-5.1-5.1S14.1,11.8,14.1,14.6z"/>
<path d="M49.4,8.7c-1.3-1.2-3.1-1.9-5-1.9c-4.2,0-7.5,3.4-7.5,7.6s3.3,7.6,7.5,7.6c1.9,0,3.7-0.7,5-1.9c-0.6-0.8-1-1.7-1.4-2.5
	c-0.9,1-2.2,1.7-3.6,1.7c-2.6,0-4.7-2.1-4.7-4.7s2.1-4.7,4.7-4.7c1.4,0,2.7,0.6,3.6,1.7C48.4,10.4,48.9,9.5,49.4,8.7z"/>
<path class="st1" d="M64.3,14.5c0,4.2-3.3,7.6-7.5,7.6s-7.5-3.4-7.5-7.6s3.3-7.6,7.5-7.6C60.9,6.9,64.3,10.3,64.3,14.5z M56.8,19.2
	c2.6,0,4.7-2.1,4.7-4.7s-2.1-4.7-4.7-4.7s-4.7,2.1-4.7,4.7S54.2,19.2,56.8,19.2z"/>
<path d="M65.9,4h2.8v18h-2.8V4z"/>
<path d="M70.4,4h2.8v18h-2.8V4z"/>
<path class="st1" d="M87,6.9h2.8V22H87v-1.7c-1.3,1-3,1.7-4.7,1.7c-4.2,0-7.5-3.4-7.5-7.6s3.3-7.6,7.5-7.6c1.7,0,3.4,0.6,4.7,1.7
	V6.9z M82.3,19.1c2.6,0,4.7-2.1,4.7-4.8s-2.1-4.7-4.7-4.7c-2.6,0-4.7,2.1-4.7,4.8S79.7,19.1,82.3,19.1z"/>
<path d="M99,21.9c-4.1,0-7.5-3.3-7.5-7.5V4h2.8v2.8h6.1v2.8h-6.1v4.8c0,2.6,2.1,4.7,4.7,4.7c1.4,0,2.7-0.6,3.6-1.7
	c0.3,1,0.8,1.7,1.4,2.5C102.6,21.2,100.9,21.9,99,21.9z"/>
<path class="st1" d="M118.7,14.4c0,4.2-3.3,7.6-7.5,7.6s-7.5-3.4-7.5-7.6s3.3-7.6,7.5-7.6C115.4,6.8,118.7,10.2,118.7,14.4z
	 M111.2,19.1c2.6,0,4.7-2.1,4.7-4.7s-2.1-4.7-4.7-4.7s-4.7,2.1-4.7,4.7C106.5,17,108.6,19.1,111.2,19.1z"/>
</svg>
