<svg width="70" height="70" viewBox="0 0 70 70" fill="none" xmlns="http://www.w3.org/2000/svg">
<g id="B4 1" clip-path="url(#clip0_695_125)">
<path id="Vector" d="M53.17 68.5666C40.7789 70.4619 28.372 70.4619 15.9809 68.5666C9.39962 67.4357 2.50342 60.4596 1.38555 53.8021C-0.425101 41.6337 -0.48808 29.4813 1.2281 17.3129C2.37746 10.066 9.93494 2.42096 17.1145 1.25827C29.1278 -0.477791 41.1568 -0.414082 53.17 1.41754C59.7513 2.54837 66.6475 9.52448 67.7654 16.182C69.639 28.7167 69.639 41.2674 67.7654 53.8021C66.6633 60.4596 59.7513 67.4517 53.17 68.5666Z" fill="url(#paint0_linear_695_125)"/>
<g id="Group">
<path id="Vector_2" d="M48.9347 29.6724C49.5802 30.198 50.1942 30.7713 50.7768 31.3606L52.0679 32.6985C52.1938 33.5904 52.2411 34.4983 52.2253 35.4221C52.1781 37.5882 51.7215 39.6906 50.887 41.6655C49.4385 45.0899 46.8564 47.9568 43.6129 49.7406C41.1883 51.0785 38.4487 51.7952 35.6776 51.7952C35.5516 51.7952 35.4257 51.7952 35.2997 51.7952C34.6857 51.7793 34.0716 51.7315 33.4576 51.6519C34.7329 51.2218 35.9767 50.6803 37.1733 50.0114C41.5976 47.5586 45.1244 43.6405 47.1083 38.9738C48.2576 36.2662 48.8717 33.3993 48.9347 30.4369C48.9347 30.182 48.9347 29.9272 48.9347 29.6724ZM48.4308 28.6849C48.4623 29.2583 48.4781 29.8476 48.4623 30.4209C48.3993 33.3834 47.7696 36.2184 46.6674 38.7827C44.6993 43.4016 41.2512 47.1923 36.9372 49.5973C35.221 50.5529 33.3631 51.2696 31.4108 51.7315C32.6546 52.0501 33.9457 52.2412 35.284 52.273C35.4099 52.273 35.5516 52.273 35.6776 52.273C38.6219 52.273 41.4087 51.5085 43.8334 50.1707C47.1555 48.339 49.8006 45.4084 51.3121 41.8567C52.1466 39.8817 52.6347 37.7156 52.6977 35.4221C52.7134 34.4187 52.6504 33.4312 52.5087 32.4755L51.1232 31.0262C50.273 30.1661 49.3755 29.3857 48.4308 28.6849Z" fill="url(#paint1_linear_695_125)"/>
<path id="Vector_3" d="M21.8695 25.7224C21.6805 27.0762 21.6333 28.446 21.6963 29.8157C21.9324 34.9124 23.8533 39.8339 27.1282 43.7042C29.0176 45.934 31.3006 47.7657 33.8985 49.1195C32.9538 49.5017 31.9933 49.8043 31.0172 50.0432L29.2223 50.4733C28.8129 50.2981 28.4193 50.1069 28.0414 49.9158C26.1363 48.9124 24.4673 47.5905 23.0818 45.95C20.6886 43.1308 19.2716 39.5154 19.0984 35.7884C18.9724 32.8737 19.6022 29.9431 20.9405 27.347C21.2239 26.7736 21.5231 26.2321 21.8695 25.7224ZM22.6882 23.8271C21.8537 24.8146 21.1295 25.9135 20.5154 27.1081C19.0984 29.8953 18.5001 32.8737 18.626 35.8043C18.7992 39.6269 20.232 43.322 22.7197 46.2526C24.1052 47.8931 25.8214 49.2787 27.821 50.3299C28.2776 50.5688 28.7184 50.7759 29.1908 50.967L31.1274 50.5051C32.4657 50.1866 33.7882 49.7247 35.0321 49.1513C34.7329 49.008 34.418 48.8646 34.1189 48.7054C31.5052 47.3356 29.2852 45.5199 27.4746 43.4016C24.2469 39.595 22.389 34.785 22.1529 29.8157C22.0741 27.8089 22.2473 25.818 22.6882 23.8271Z" fill="url(#paint2_linear_695_125)"/>
<path id="Vector_4" d="M35.6461 17.7907V18.2685C38.6062 18.2685 41.5032 19.0649 44.0538 20.578C46.5415 22.0592 48.6198 24.1934 50.0526 26.7418C50.3517 27.2833 50.6351 27.8408 50.8713 28.4141C49.8479 27.5222 48.7458 26.7259 47.5807 26.0251C44.1011 23.9545 40.1177 22.8715 36.087 22.8715C35.0951 22.8715 34.1032 22.9352 33.127 23.0626C30.2457 23.4449 27.4904 24.3846 24.9397 25.8499C24.6248 26.0251 24.3099 26.2162 23.995 26.4232C24.0738 25.6747 24.1997 24.9261 24.3729 24.1934L24.7823 22.3777C25.6167 21.6451 26.5299 20.9921 27.4904 20.4346C29.3483 19.3675 31.3636 18.6826 33.4891 18.3959C34.1976 18.3004 34.9376 18.2526 35.6619 18.2526L35.6461 17.7907ZM35.6461 17.7907C34.9061 17.7907 34.1504 17.8385 33.4104 17.9341C31.3006 18.2207 29.2065 18.9056 27.2542 20.0364C26.1993 20.6417 25.2231 21.3425 24.3572 22.1388L23.9163 24.1138C23.6801 25.1969 23.5227 26.2958 23.444 27.3948C23.995 27.0126 24.5776 26.6303 25.1759 26.2958C27.7265 24.8305 30.4504 23.9386 33.19 23.5564C34.1504 23.4289 35.1266 23.3652 36.1027 23.3652C40.0547 23.3652 43.9594 24.4324 47.3602 26.4551C49.0449 27.4585 50.6194 28.7008 52.0049 30.1502C51.6428 28.9079 51.139 27.6974 50.4777 26.5188C48.9505 23.7953 46.7934 21.661 44.3058 20.1798C41.6921 18.6189 38.6849 17.7907 35.6461 17.7907Z" fill="url(#paint3_linear_695_125)"/>
<path id="Vector_5" d="M47.2657 12.6781C47.2657 14.669 45.6755 16.2776 43.7074 16.2776C42.7155 16.2776 41.8181 15.8635 41.1725 15.2105C40.5585 14.5894 40.1806 13.7293 40.1491 12.7896C40.1491 12.7577 40.1491 12.71 40.1491 12.6781C40.1491 10.6872 41.7393 9.07855 43.7074 9.07855C44.1798 9.07855 44.6364 9.17412 45.0457 9.33339C45.7857 9.636 46.3998 10.1775 46.7934 10.8783C47.0925 11.4198 47.2657 12.0251 47.2657 12.6781Z" fill="url(#paint4_linear_695_125)"/>
<path id="Vector_6" d="M43.7074 9.09445C44.1798 9.09445 44.6364 9.19002 45.0457 9.34929C45.7857 9.65191 46.3998 10.1934 46.7934 10.8942C47.0925 11.4198 47.2657 12.041 47.2657 12.694C47.2657 14.6849 45.6755 16.2935 43.7074 16.2935C42.7155 16.2935 41.818 15.8794 41.1725 15.2264C40.5585 14.6053 40.1806 13.7452 40.1491 12.8055C40.1491 12.7736 40.1491 12.7259 40.1491 12.694C40.1491 10.7031 41.7393 9.09445 43.7074 9.09445ZM43.7074 8.61664C41.4874 8.61664 39.6768 10.4483 39.6768 12.694C39.6768 12.7418 39.6768 12.7736 39.6768 12.8214C39.7082 13.8567 40.1176 14.8282 40.8419 15.5609C41.5976 16.3413 42.621 16.7714 43.7074 16.7714C45.9274 16.7714 47.7381 14.9397 47.7381 12.694C47.7381 11.9773 47.5491 11.2765 47.2027 10.6553C46.7619 9.87489 46.0534 9.25373 45.2189 8.90333C44.7466 8.7122 44.227 8.61664 43.7074 8.61664Z" fill="url(#paint5_linear_695_125)"/>
<path id="Vector_7" d="M53.4692 53.9136C53.4692 55.9045 51.8789 57.5131 49.9109 57.5131C48.9189 57.5131 48.0215 57.099 47.3759 56.446C46.7619 55.8248 46.384 54.9648 46.3525 54.0251C46.3525 53.9932 46.3525 53.9454 46.3525 53.9136C46.3525 51.9227 47.9428 50.314 49.9109 50.314C50.3832 50.314 50.8398 50.4096 51.2492 50.5689C51.9892 50.8715 52.6032 51.413 52.9968 52.1138C53.296 52.6394 53.4692 53.2606 53.4692 53.9136Z" fill="url(#paint6_linear_695_125)"/>
<path id="Vector_8" d="M49.9108 50.314C50.3832 50.314 50.8398 50.4096 51.2491 50.5688C51.9892 50.8714 52.6032 51.413 52.9968 52.1138C53.296 52.6394 53.4692 53.2605 53.4692 53.9135C53.4692 55.9044 51.8789 57.5131 49.9108 57.5131C48.9189 57.5131 48.0215 57.099 47.3759 56.446C46.7619 55.8248 46.384 54.9647 46.3525 54.025C46.3525 53.9932 46.3525 53.9454 46.3525 53.9135C46.3525 51.9226 47.9428 50.314 49.9108 50.314ZM49.9108 49.8362C47.6908 49.8362 45.8802 51.6678 45.8802 53.9135C45.8802 53.9613 45.8802 53.9932 45.8802 54.041C45.9117 55.0762 46.321 56.0478 47.0453 56.7804C47.801 57.5609 48.8245 57.9909 49.9108 57.9909C52.1309 57.9909 53.9415 56.1593 53.9415 53.9135C53.9415 53.1968 53.7526 52.496 53.4062 51.8749C52.9653 51.0944 52.2568 50.4733 51.4223 50.1229C50.95 49.9317 50.4304 49.8362 49.9108 49.8362Z" fill="url(#paint7_linear_695_125)"/>
<path id="Vector_9" d="M16.0439 39.0535C16.0439 41.0444 14.4537 42.6531 12.4856 42.6531C11.4937 42.6531 10.5963 42.239 9.95072 41.5859C9.33667 40.9648 8.9588 40.1047 8.92731 39.165C8.92731 39.1332 8.92731 39.0854 8.92731 39.0535C8.92731 37.0626 10.5175 35.454 12.4856 35.454C12.958 35.454 13.4146 35.5495 13.8239 35.7088C14.5639 36.0114 15.178 36.553 15.5716 37.2538C15.8707 37.7953 16.0439 38.4005 16.0439 39.0535Z" fill="url(#paint8_linear_695_125)"/>
<path id="Vector_10" d="M12.4856 35.454C12.958 35.454 13.4146 35.5495 13.8239 35.7088C14.5639 36.0114 15.178 36.5529 15.5716 37.2537C15.8707 37.7793 16.0439 38.4005 16.0439 39.0535C16.0439 41.0444 14.4537 42.653 12.4856 42.653C11.4937 42.653 10.5962 42.2389 9.95071 41.5859C9.33666 40.9648 8.95879 40.1047 8.9273 39.165C8.9273 39.1331 8.9273 39.0853 8.9273 39.0535C8.9273 37.0785 10.5175 35.454 12.4856 35.454ZM12.4856 34.9761C10.2656 34.9761 8.45496 36.8078 8.45496 39.0535C8.45496 39.1013 8.45496 39.1331 8.45496 39.1809C8.48645 40.2162 8.89581 41.1877 9.62007 41.9204C10.3758 42.7008 11.3992 43.1309 12.4856 43.1309C14.7056 43.1309 16.5163 41.2992 16.5163 39.0535C16.5163 38.3368 16.3273 37.636 15.9809 37.0148C15.5401 36.2344 14.8316 35.6132 13.9971 35.2628C13.5248 35.0876 13.0052 34.9761 12.4856 34.9761Z" fill="url(#paint9_linear_695_125)"/>
</g>
</g>
<defs>
<linearGradient id="paint0_linear_695_125" x1="34.5815" y1="74.7519" x2="34.5815" y2="3.49635" gradientUnits="userSpaceOnUse">
<stop offset="0.2961" stop-color="#DFDFE6"/>
<stop offset="1" stop-color="#F1F1F3"/>
</linearGradient>
<linearGradient id="paint1_linear_695_125" x1="42.0431" y1="41.3978" x2="42.0431" y2="29.3148" gradientUnits="userSpaceOnUse">
<stop offset="0.3522" stop-color="#262525"/>
<stop offset="1" stop-color="#575555"/>
</linearGradient>
<linearGradient id="paint2_linear_695_125" x1="26.8172" y1="41.3978" x2="26.8172" y2="29.3148" gradientUnits="userSpaceOnUse">
<stop offset="0.3522" stop-color="#262525"/>
<stop offset="1" stop-color="#575555"/>
</linearGradient>
<linearGradient id="paint3_linear_695_125" x1="37.7205" y1="41.3978" x2="37.7205" y2="29.3149" gradientUnits="userSpaceOnUse">
<stop offset="0.3522" stop-color="#262525"/>
<stop offset="1" stop-color="#575555"/>
</linearGradient>
<linearGradient id="paint4_linear_695_125" x1="43.7105" y1="16.1228" x2="43.7105" y2="9.8257" gradientUnits="userSpaceOnUse">
<stop stop-color="#E84BF2"/>
<stop offset="0.1954" stop-color="#EF4ACE"/>
<stop offset="0.4337" stop-color="#F649A8"/>
<stop offset="0.6549" stop-color="#FB488D"/>
<stop offset="0.8505" stop-color="#FE477D"/>
<stop offset="1" stop-color="#FF4777"/>
</linearGradient>
<linearGradient id="paint5_linear_695_125" x1="43.7105" y1="10.1351" x2="43.7105" y2="15.8288" gradientUnits="userSpaceOnUse">
<stop offset="0.3466" stop-color="#ACB0B5"/>
<stop offset="1" stop-color="white"/>
</linearGradient>
<linearGradient id="paint6_linear_695_125" x1="49.9131" y1="56.544" x2="49.9131" y2="52.1832" gradientUnits="userSpaceOnUse">
<stop stop-color="#E84BF2"/>
<stop offset="0.1954" stop-color="#EF4ACE"/>
<stop offset="0.4337" stop-color="#F649A8"/>
<stop offset="0.6549" stop-color="#FB488D"/>
<stop offset="0.8505" stop-color="#FE477D"/>
<stop offset="1" stop-color="#FF4777"/>
</linearGradient>
<linearGradient id="paint7_linear_695_125" x1="49.913" y1="49.8614" x2="49.913" y2="56.1798" gradientUnits="userSpaceOnUse">
<stop offset="0.3466" stop-color="#ACB0B5"/>
<stop offset="1" stop-color="white"/>
</linearGradient>
<linearGradient id="paint8_linear_695_125" x1="12.4878" y1="43.2205" x2="12.4878" y2="36.6405" gradientUnits="userSpaceOnUse">
<stop stop-color="#E84BF2"/>
<stop offset="0.1954" stop-color="#EF4ACE"/>
<stop offset="0.4337" stop-color="#F649A8"/>
<stop offset="0.6549" stop-color="#FB488D"/>
<stop offset="0.8505" stop-color="#FE477D"/>
<stop offset="1" stop-color="#FF4777"/>
</linearGradient>
<linearGradient id="paint9_linear_695_125" x1="12.4878" y1="35.5848" x2="12.4878" y2="42.4323" gradientUnits="userSpaceOnUse">
<stop offset="0.3466" stop-color="#ACB0B5"/>
<stop offset="1" stop-color="white"/>
</linearGradient>
<clipPath id="clip0_695_125">
<rect width="69.1667" height="70" fill="white"/>
</clipPath>
</defs>
</svg>
