<svg width="60" height="61" viewBox="0 0 60 61" fill="none" xmlns="http://www.w3.org/2000/svg">
<g id="C1 1">
<g id="Group">
<g id="Group_2">
<path id="Vector" d="M30.2559 58.5732C45.3712 58.5732 57.6246 46.3236 57.6246 31.2129C57.6246 16.1022 45.3712 3.85254 30.2559 3.85254C15.1406 3.85254 2.88727 16.1022 2.88727 31.2129C2.88727 46.3236 15.1406 58.5732 30.2559 58.5732Z" stroke="white" stroke-width="2" stroke-miterlimit="10" stroke-linecap="round"/>
</g>
<path id="Vector_2" d="M23.8233 42.7783C21.6734 38.0193 20.8373 32.595 21.6563 27.0513C22.6801 20.1941 26.0926 14.2751 30.9214 10.0107" stroke="white" stroke-width="2" stroke-miterlimit="10" stroke-linecap="round"/>
<path id="Vector_3" d="M36.808 19.9033C38.8556 24.6112 39.6575 29.9161 38.8556 35.3745C37.8148 42.334 34.3339 48.3042 29.4028 52.5856" stroke="white" stroke-width="2" stroke-miterlimit="10" stroke-linecap="round"/>
<path id="Vector_4" d="M12.4595 31.2298C18.1073 26.0443 25.9561 23.3663 34.1292 24.5774C41.1932 25.6349 47.1822 29.4047 51.192 34.6754" stroke="white" stroke-width="2" stroke-miterlimit="10" stroke-linecap="round"/>
<g id="Group_3">
<path id="Vector_5" d="M48.0183 31.2126C42.3705 36.3811 34.5387 39.0591 26.3656 37.831C19.2846 36.7734 13.2956 32.9866 9.2858 27.7158" stroke="white" stroke-width="2" stroke-miterlimit="10" stroke-linecap="round"/>
</g>
</g>
</g>
</svg>
