<svg width="70" height="70" viewBox="0 0 70 70" fill="none" xmlns="http://www.w3.org/2000/svg">
<g id="B1 1" clip-path="url(#clip0_695_86)">
<g id="Group">
<g id="Group_2">
<path id="Vector" d="M53.8106 68.5666C41.2702 70.4619 28.7139 70.4619 16.1735 68.5666C9.51286 67.4357 2.53358 60.4596 1.40223 53.8021C-0.430231 41.6337 -0.493969 29.4813 1.24289 17.3129C2.39017 10.066 10.0387 2.42096 17.3048 1.25827C29.4628 -0.477791 41.6367 -0.414082 53.8106 1.41754C60.4712 2.54837 67.4505 9.52448 68.5818 16.182C70.478 28.7167 70.478 41.2674 68.5818 53.8021C67.4505 60.4596 60.4553 67.4517 53.8106 68.5666Z" fill="url(#paint0_linear_695_86)"/>
</g>
<path id="Vector_2" d="M34.992 33.5427C38.565 33.5427 41.4614 30.6476 41.4614 27.0762C41.4614 23.5049 38.565 20.6098 34.992 20.6098C31.4191 20.6098 28.5226 23.5049 28.5226 27.0762C28.5226 30.6476 31.4191 33.5427 34.992 33.5427Z" fill="url(#paint1_linear_695_86)"/>
<path id="Vector_3" d="M34.992 20.8647C38.4339 20.8647 41.2224 23.6519 41.2224 27.0922C41.2224 30.5325 38.4339 33.3197 34.992 33.3197C31.5502 33.3197 28.7617 30.5325 28.7617 27.0922C28.7617 23.6519 31.5502 20.8647 34.992 20.8647ZM34.992 20.3868C31.2952 20.3868 28.2836 23.3971 28.2836 27.0922C28.2836 30.7873 31.2952 33.7975 34.992 33.7975C38.6888 33.7975 41.7004 30.7873 41.7004 27.0922C41.7004 23.3971 38.6729 20.3868 34.992 20.3868Z" fill="url(#paint2_linear_695_86)"/>
<path id="Vector_4" d="M57.0294 23.0626C55.165 19.0967 51.6117 16.1343 47.2775 14.9557C43.023 13.793 38.5614 14.4938 34.992 16.8669C31.4227 14.4938 26.9451 13.793 22.7066 14.9557C18.3724 16.1343 14.819 19.0967 12.9547 23.0626C11.0266 27.1559 10.9151 31.9022 12.6519 36.7918C14.1339 40.9807 16.8746 45.0581 20.3961 48.2594V48.2753L20.4917 48.3709C24.539 52.1616 29.5425 54.6781 34.9761 55.6496H35.0239H35.0717C40.5054 54.6781 45.5088 52.1616 49.5561 48.3709L49.6677 48.2753V48.2594C53.1732 45.0421 55.9299 40.9807 57.4118 36.7918C59.069 31.9022 58.9574 27.1559 57.0294 23.0626ZM34.9761 55.1877C29.7018 54.248 24.8259 51.8112 20.8901 48.132C22.6269 41.793 28.3952 37.3971 34.9761 37.3971C41.557 37.3971 47.3412 41.8089 49.0621 48.132C45.1263 51.7953 40.2504 54.2321 34.9761 55.1877ZM49.4605 47.7497C47.5962 41.347 41.7004 36.9193 34.992 36.9193C28.2836 36.9193 22.3879 41.347 20.5236 47.7497C14.2135 41.8726 9.35352 31.8066 13.3849 23.2697C15.2015 19.4312 18.6433 16.5643 22.8341 15.4176C26.9929 14.2867 31.3909 14.9875 34.8646 17.3607C34.8646 17.3607 34.8805 17.3607 34.8805 17.3766C34.8805 17.3766 34.8964 17.3766 34.8964 17.3925H34.9124H34.9283C34.9283 17.3925 34.9442 17.3925 34.9602 17.3925H34.9761C34.992 17.3925 34.992 17.3925 35.008 17.3925H35.0239C35.0398 17.3925 35.0398 17.3925 35.0558 17.3766H35.0717C35.0876 17.3766 35.0876 17.3607 35.1036 17.3607C35.1036 17.3607 35.1195 17.3607 35.1195 17.3447C38.5932 14.9716 42.9752 14.2708 47.15 15.4016C51.3408 16.5484 54.7985 19.3993 56.5991 23.2537C60.6306 31.8226 55.7546 41.8726 49.4605 47.7497Z" fill="url(#paint3_linear_695_86)"/>
</g>
</g>
<defs>
<linearGradient id="paint0_linear_695_86" x1="34.9841" y1="74.7519" x2="34.9841" y2="3.49635" gradientUnits="userSpaceOnUse">
<stop offset="0.2961" stop-color="#DFDFE6"/>
<stop offset="1" stop-color="#F1F1F3"/>
</linearGradient>
<linearGradient id="paint1_linear_695_86" x1="34.9843" y1="36.255" x2="34.9843" y2="24.2372" gradientUnits="userSpaceOnUse">
<stop offset="0.2709" stop-color="#E84BF2"/>
<stop offset="1" stop-color="#FF4777"/>
</linearGradient>
<linearGradient id="paint2_linear_695_86" x1="34.9843" y1="22.5412" x2="34.9843" y2="32.5076" gradientUnits="userSpaceOnUse">
<stop offset="0.3466" stop-color="#ACB0B5"/>
<stop offset="1" stop-color="white"/>
</linearGradient>
<linearGradient id="paint3_linear_695_86" x1="34.9843" y1="49.2096" x2="34.9843" y2="30.0686" gradientUnits="userSpaceOnUse">
<stop offset="0.3522" stop-color="#262525"/>
<stop offset="1" stop-color="#575555"/>
</linearGradient>
<clipPath id="clip0_695_86">
<rect width="70" height="70" fill="white"/>
</clipPath>
</defs>
</svg>
