<?xml version="1.0" encoding="utf-8"?>
<!-- Generator: Adobe Illustrator 26.0.0, SVG Export Plug-In . SVG Version: 6.00 Build 0)  -->
<svg version="1.1" id="Layer_1" xmlns="http://www.w3.org/2000/svg" xmlns:xlink="http://www.w3.org/1999/xlink" x="0px" y="0px"
	 viewBox="0 0 2789.9 550.5" style="enable-background:new 0 0 2789.9 550.5;" xml:space="preserve">
<style type="text/css">
	.st0{fill:#FFFFFF;}
</style>
<g id="Layer_1_00000012450052312282078460000012600189923926525341_">
	<path class="st0" d="M250,288.8l69,40.4c-29.7,52.1-85,84.3-145,84.5c-92.5,0-167.7-76-167.7-169.4S81.5,75,174,75
		c60,0.1,115.3,32.4,145,84.5l-69,40.3c-24.6-42.5-78.9-57-121.4-32.4s-57,78.9-32.4,121.4s78.9,57,121.4,32.4
		C231.1,313.4,242.2,302.3,250,288.8"/>
</g>
<g id="Layer_2_00000102512374223078426180000002670817595582146734_">
	<path class="st0" d="M526.4,333.4c-49.3,0.5-89.6-39-90.1-88.3c-0.5-49.3,39-89.6,88.3-90.1c49.3-0.5,89.6,39,90.1,88.3
		c0,0.4,0,0.8,0,1.1c0.2,48.9-39.2,88.7-88.1,89H526.4 M645.4,124C614,91.9,570.8,74.1,525.9,74.9c-47,0-86.8,16.5-119,49.2
		s-48.7,72.9-48.7,120.4s16.1,87.5,48.7,120.2s72,49.1,119,49.1c44.9,0.8,88.1-17,119.4-49.1c32.6-32.7,48.8-72.9,48.8-120.2
		S677.9,156.8,645.4,124"/>
</g>
<g id="Layer_3">
	<path class="st0" d="M913,329.2c-49.3,0.6-89.7-38.8-90.3-88.1s38.8-89.7,88.1-90.3c49.3-0.6,89.7,38.8,90.3,88.1c0,0,0,0,0,0
		c0,0.4,0,0.7,0,1.1C1001.3,288.9,961.9,328.8,913,329.2 M1001.1,84.1v39.8c-24-32.5-57.9-49-101.5-49
		c-42.7-0.8-83.7,16.8-112.5,48.3c-30,31.1-46.4,72.9-45.7,116.1c0,45.8,15.2,84.6,45.5,116.4c30.3,31.8,67.9,47.7,112.7,47.7
		c43.5,0,77.4-16.1,101.5-48.6v34.6c0,25.2-7.2,44.6-22.3,58.3s-35.2,20.6-60.9,20.6c-33.6,0-58.5-10.8-75.2-32.5l0,0l-70.4,40.4
		l0,0c13.3,19.6,31.5,35.4,52.6,46c26,13.3,58.7,20,93,20c45.5,0,82.2-13.1,114.4-39c32.2-25.9,48.6-64.2,48.6-113.7V84L1001.1,84.1
		z"/>
</g>
<g id="Layer_4">
	<path class="st0" d="M1421.8,110.2c-22.6-23.3-51.3-35.3-86.1-35.3c-43.1,0-74.8,15.1-94.6,45.1V84.1h-82v320.8h82V231.6
		c0-26.5,6.3-46.4,19-59.5s29.7-19.8,50.8-19.8c19.1,0,34.4,5.6,45.7,16.8s17.1,27.5,17.1,49v186.8h82v-197
		C1455.7,166.3,1444.3,133.8,1421.8,110.2"/>
</g>
<g id="Layer_5">
	<path class="st0" d="M1767.4,120.9c-24.6-30.6-58.8-45.9-102.7-45.9c-42.4,0-78.7,16.4-109,49.2h0.2
		c-30.1,32.7-45.3,72.8-45.5,120.4c0,47.3,15.2,87.5,45.4,120.2s66.7,49.1,109,49.1c43.9,0,78.1-15.3,102.6-45.9v36.8h82V84.1
		l-82-0.1L1767.4,120.9z M1767.4,251.8c0,0.4-0.1,0.8-0.1,1.1c-6.9,57.8-50.5,83.5-95.4,79.5c-48.8-4.7-84.7-48.1-80-96.9
		c4.6-48.4,47.3-84.1,95.7-80.1c42.9,2.2,74.4,40.8,79.8,71.9c0.5,4.2,0.8,8.4,0.8,12.6C1768.2,243.8,1767.9,247.8,1767.4,251.8
		L1767.4,251.8z"/>
</g>
<g id="Layer_6">
	<path class="st0" d="M1968.5,161.6c-14.2,0-28.3-3.3-41-9.6v252.9h82V152C1996.8,158.3,1982.7,161.6,1968.5,161.6z"/>
	<path class="st0" d="M2023.5,62.8c0,30.4-24.6,55-55,55c-30.4,0-55-24.6-55-55s24.6-55,55-55S2023.5,32.4,2023.5,62.8z"/>
</g>
<g id="Layer_7">
	<polygon class="st0" points="2190.8,327.1 2325.5,139 2325.5,84 2087.7,84 2087.7,161.6 2215.2,161.6 2081.4,349.7 2081.4,404.8 
		2331.9,404.8 2331.9,327.1 	"/>
</g>
<g id="Layer_8">
	<path class="st0" d="M2449.8,214.2c3.6-18.8,15.5-35.7,30.3-47.9c14.5-11.1,32.6-16.8,54.6-16.8c17.9-0.3,35.5,5.4,49.8,16.2
		c14.6,10.6,26,26.7,30.8,48.6L2449.8,214.2z M2695.4,244.5c0-48.1-15.2-88.3-45.6-120.6c-30.1-32.6-68.5-49-115.2-49
		c-48.9,0-89.4,16.4-120.6,48.6s-46.9,72.5-46.9,121s15.9,89,47.6,121.1S2488.5,414,2541,414c58.2,0,102.7-20.8,134-62.3l0,0
		l-66.9-38.5l0,0c-15.9,17-37.9,25.5-65.9,25.5c-48.7,0-80.3-20.1-91.4-60.2h241.3C2694.2,267.3,2695.2,256,2695.4,244.5"/>
	<polygon class="st0" points="2738,104.7 2726.2,104.7 2726.2,136.5 2716.8,136.5 2716.8,104.7 2705.3,104.7 2705.3,97.4 2738,97.4 
			"/>
	<polygon class="st0" points="2754.4,97.4 2763.2,124.6 2771.9,97.4 2784.3,97.4 2784.3,136.5 2774.8,136.5 2774.8,127.4 
		2775.7,108.7 2766.3,136.5 2760,136.5 2750.6,108.6 2751.4,127.4 2751.4,136.5 2742,136.5 2742,97.4 	"/>
</g>
</svg>
