<svg width="70" height="70" viewBox="0 0 70 70" fill="none" xmlns="http://www.w3.org/2000/svg">
<g id="B3 1" clip-path="url(#clip0_695_114)">
<path id="Vector" d="M53.8106 68.5666C41.2702 70.4619 28.7139 70.4619 16.1735 68.5666C9.51286 67.4358 2.53358 60.4596 1.40223 53.8021C-0.430231 41.6337 -0.493969 29.4813 1.24289 17.3129C2.4061 10.066 10.0546 2.42096 17.3207 1.25827C29.4787 -0.477791 41.6526 -0.414082 53.8106 1.41754C60.4712 2.54838 67.4505 9.52448 68.5818 16.1821C70.478 28.7167 70.478 41.2674 68.5818 53.8021C67.4664 60.4596 60.4712 67.4517 53.8106 68.5666Z" fill="url(#paint0_linear_695_114)"/>
<g id="Group">
<path id="Vector_2" d="M59.2124 39.0694C59.4195 37.7952 59.5311 36.5051 59.5311 35.1672C59.5311 33.8453 59.4195 32.5392 59.2124 31.2651L54.7507 30.3731C54.2727 28.43 53.5079 26.6143 52.5199 24.942L55.1491 21.2628C54.9898 21.0398 54.8463 20.8327 54.6711 20.6098C54.0974 19.8453 53.476 19.1285 52.8227 18.4437C52.249 17.8384 51.6435 17.281 51.0221 16.7395C50.5919 16.3731 50.1616 16.0227 49.6995 15.6883L47.9945 16.7395L45.7796 18.1092C44.9351 17.5836 44.0428 17.1376 43.1186 16.7395C42.1466 16.3253 41.1427 15.9909 40.0911 15.736L39.5174 12.8214L39.2147 11.2764C37.9399 11.0694 36.6492 10.9579 35.3107 10.9579C33.9882 10.9579 32.6815 11.0694 31.4068 11.2764L31.104 12.8214L30.5145 15.752C29.4787 16.0068 28.4589 16.3413 27.4869 16.7554C26.5627 17.1536 25.6863 17.5995 24.8259 18.1251L22.611 16.7554L20.906 15.7042C20.4598 16.0387 20.0137 16.3891 19.5834 16.7554C18.946 17.2969 18.3405 17.8544 17.7828 18.4596C17.1295 19.1445 16.5081 19.8771 15.9344 20.6257C15.7751 20.8327 15.6157 21.0557 15.4564 21.2787L18.0856 24.9579C17.0817 26.6302 16.3328 28.4619 15.8548 30.3891L11.3931 31.281C11.186 32.5392 11.0744 33.8453 11.0744 35.1672C11.0744 36.4892 11.186 37.7952 11.3931 39.0534L15.8548 39.9454C16.3328 41.8885 17.0977 43.7042 18.0856 45.3765L15.4723 49.0557C16.9702 51.19 18.8186 53.0853 20.9219 54.6302L24.8418 52.2093C24.8896 52.2412 24.9533 52.273 25.0011 52.3049C25.0489 52.3367 25.0967 52.3686 25.1445 52.3845C26.8017 53.3561 28.6023 54.1046 30.5145 54.5825L31.4068 59.0421C32.6815 59.2491 33.9722 59.3606 35.3107 59.3606C36.6333 59.3606 37.9399 59.2491 39.2147 59.0421L40.107 54.5825C42.1466 54.0887 44.0428 53.2764 45.7796 52.2093L49.6995 54.6302C51.8029 53.0694 53.6353 51.19 55.1491 49.0557L52.5199 45.3765C53.5238 43.7042 54.2727 41.8885 54.7507 39.9454L59.2124 39.0694ZM16.0619 21.2787C16.1575 21.1513 16.2372 21.0398 16.3328 20.9124C16.8905 20.1638 17.496 19.4471 18.1493 18.7781C18.6911 18.2048 19.2966 17.6314 19.918 17.1058C20.2527 16.8191 20.6032 16.5483 20.9538 16.2616L22.372 17.1376L24.5868 18.5074L24.8418 18.6666L25.0967 18.5074C25.9253 17.9977 26.8017 17.5517 27.6941 17.1695C28.6342 16.7713 29.6381 16.4368 30.6419 16.182L30.9287 16.1024L30.9925 15.7998L31.5821 12.8691L31.8211 11.6587C32.9684 11.4835 34.1475 11.4038 35.3107 11.4038C36.4739 11.4038 37.6531 11.4835 38.8004 11.6587L39.0394 12.8691L39.629 15.7998L39.6927 16.1024L39.9795 16.182C40.9834 16.4368 41.9872 16.7554 42.9274 17.1695C43.262 17.3128 43.5966 17.4721 43.9313 17.6314C39.8202 16.5324 34.4981 16.1183 29.6859 18.7941C26.0847 20.8009 23.1687 24.0341 21.4956 27.777C20.2845 30.0387 19.6472 32.5711 19.6472 35.1513C19.6472 37.2059 20.0296 39.1968 20.8104 41.0762C20.8263 41.1081 20.8422 41.1558 20.8582 41.1877C21.8461 43.5449 23.4236 45.6314 25.3836 47.256C24.8896 46.9374 24.4116 46.587 23.9495 46.2207C18.1653 41.6814 14.6437 32.0933 18.6114 25.0694C18.6274 25.0375 18.6433 25.0057 18.6433 24.9738L18.6752 24.9101L18.4999 24.6553L16.0619 21.2787ZM22.5632 26.9329C23.089 26.1365 23.6786 25.372 24.3319 24.6871C27.0885 21.7884 30.9925 19.9886 35.3107 19.9886C39.629 19.9886 43.517 21.7884 46.2896 24.6871C46.9429 25.372 47.5484 26.1206 48.0583 26.9329C49.588 29.2901 50.4803 32.1092 50.4803 35.1354C50.4803 35.1513 50.4803 35.1672 50.4803 35.1831C50.4803 35.3106 50.4803 35.4539 50.4803 35.5813C50.4484 36.9829 50.2254 38.3367 49.827 39.6109C47.9627 45.711 42.3537 50.1706 35.6772 50.3299C35.5497 50.3299 35.4382 50.3299 35.3107 50.3299C35.1036 50.3299 34.8964 50.3299 34.6893 50.314C26.7539 50.0114 20.3483 43.099 20.412 34.8965C20.428 33.5426 20.5873 32.2048 20.9219 30.8828C21.1609 29.8953 21.5115 28.9238 21.9258 27.9841C22.1329 27.6496 22.3401 27.2833 22.5632 26.9329ZM20.9538 54.0728C19.0895 52.6553 17.4482 50.967 16.0778 49.0717L18.4999 45.6792L18.6752 45.4243L18.5158 45.1536C17.5279 43.4971 16.7949 41.7133 16.3328 39.8498L16.2531 39.5631L15.9504 39.4994L11.8074 38.6712C11.6321 37.5244 11.5525 36.3618 11.5525 35.1831C11.5525 34.0045 11.6321 32.8418 11.8074 31.6951L15.9504 30.8669L16.2531 30.8032L16.3328 30.5165C16.4125 30.1661 16.5081 29.8316 16.6196 29.4812C15.6636 35.8521 18.9142 42.8919 23.6467 46.6189C26.8177 49.1035 30.4188 50.5369 34.0838 50.7759C34.4821 50.8077 34.8964 50.8236 35.2948 50.8236C35.4382 50.8236 35.5657 50.8236 35.6772 50.8236C39.0234 50.744 42.1785 49.6291 44.8236 47.5904C46.1143 46.6029 47.2297 45.4243 48.1379 44.1183C45.7796 48.339 41.7642 51.6678 36.9201 53.0375C32.9206 54.1843 28.427 53.7542 25.3358 51.9863C25.272 51.9385 25.1923 51.9067 25.1286 51.8589C25.0649 51.8271 25.0011 51.7793 24.9374 51.7474C24.9374 51.7474 24.9374 51.7474 24.9215 51.7474L24.8099 51.6678L24.6824 51.7474L24.5709 51.8111L20.9538 54.0728ZM54.5436 49.0717C53.1732 50.967 51.532 52.6553 49.6677 54.0728L46.0346 51.827L45.7796 51.6678L45.5247 51.827C43.8038 52.8782 41.9394 53.6587 39.9795 54.1524L39.6927 54.2321L39.629 54.5347L38.8004 58.6757C37.6531 58.8509 36.4739 58.9306 35.3107 58.9306C34.1475 58.9306 32.9684 58.8509 31.8211 58.6757L30.9925 54.5347L30.9287 54.2321L30.6419 54.1524C30.4666 54.1046 30.2914 54.0569 30.1161 54.0091C30.8491 54.1046 31.598 54.1524 32.3628 54.1524C33.9404 54.1524 35.5497 53.9454 37.0954 53.4994C45.1104 51.2218 50.8787 43.736 50.9743 35.5972C50.9743 35.4698 50.9743 35.3424 50.9902 35.2309V35.1831C50.9902 32.157 50.1297 29.2104 48.4885 26.6939C47.9467 25.8657 47.3412 25.0853 46.656 24.3845C45.8434 23.5404 44.9511 22.7918 43.995 22.1547C48.3132 24.4323 51.8188 28.3504 53.2529 33.033C54.6711 37.6996 53.3963 42.2548 52.0897 45.2651L51.9781 45.4403L52.1534 45.6951L54.5436 49.0717ZM54.3524 39.5631L54.2727 39.8498C54.1452 40.3595 54.0018 40.8532 53.8425 41.331C54.4161 38.7986 54.5755 35.868 53.6672 32.8737C52.4721 28.9556 49.8429 25.4198 46.2577 22.9511C42.6724 20.4664 38.4498 19.256 34.3865 19.5426C34.3706 19.5426 34.3706 19.5426 34.3547 19.5426C30.5941 19.7656 27.1045 21.2946 24.3956 23.9385C25.9094 22.0273 27.7897 20.4027 29.9249 19.2241C35.3426 16.1979 41.4614 17.2491 45.6522 18.6507C45.7 18.6666 45.7318 18.6666 45.7796 18.6507L45.7956 18.6666L45.8434 18.6348C45.8593 18.6189 45.8753 18.6189 45.8912 18.6029L46.0505 18.5074L48.2654 17.1376L49.6836 16.2616C50.0341 16.5324 50.3847 16.8032 50.7193 17.1058C51.3248 17.6314 51.9303 18.1888 52.488 18.7781C53.1254 19.4471 53.7469 20.1638 54.3046 20.9124C54.4002 21.0239 54.4799 21.1513 54.5755 21.2628L52.1534 24.6553L51.9781 24.9101L52.1375 25.1809C53.1254 26.8373 53.8584 28.6211 54.3205 30.4846L54.4002 30.7713L54.7029 30.835L58.8459 31.6632C59.0212 32.81 59.1008 33.9886 59.1008 35.1513C59.1008 36.314 59.0212 37.4926 58.8459 38.6393L54.7029 39.4676L54.3524 39.5631Z" fill="url(#paint1_linear_695_114)"/>
<path id="Vector_3" d="M42.4653 32.2685L35.3107 39.1012L29.5902 33.6541L31.598 31.6473L35.3107 35.1672L40.4575 30.2617L42.4653 32.2685Z" fill="url(#paint2_linear_695_114)"/>
<path id="Vector_4" d="M40.4575 30.2616L42.4653 32.2684L35.2948 39.1012L29.5743 33.6382L31.5821 31.6314L35.2788 35.1672L40.4575 30.2616ZM40.4575 29.752L40.2026 29.9909L35.2948 34.6735L31.8529 31.3765L31.598 31.1376L31.343 31.3925L29.3353 33.3993L29.0804 33.6541L29.3512 33.9089L35.0717 39.372L35.3267 39.6109L35.5816 39.372L42.7521 32.5392L43.023 32.2844L42.768 32.0295L40.7603 30.0227L40.4575 29.752Z" fill="url(#paint3_linear_695_114)"/>
</g>
</g>
<defs>
<linearGradient id="paint0_linear_695_114" x1="34.9981" y1="74.7519" x2="34.9981" y2="3.49635" gradientUnits="userSpaceOnUse">
<stop offset="0.2961" stop-color="#DFDFE6"/>
<stop offset="1" stop-color="#F1F1F3"/>
</linearGradient>
<linearGradient id="paint1_linear_695_114" x1="35.3069" y1="68.787" x2="35.3069" y2="19.0079" gradientUnits="userSpaceOnUse">
<stop offset="0.3522" stop-color="#262525"/>
<stop offset="1" stop-color="#575555"/>
</linearGradient>
<linearGradient id="paint2_linear_695_114" x1="36.0316" y1="39.3394" x2="36.0316" y2="33.2895" gradientUnits="userSpaceOnUse">
<stop offset="0.2709" stop-color="#E84BF2"/>
<stop offset="1" stop-color="#FF4777"/>
</linearGradient>
<linearGradient id="paint3_linear_695_114" x1="36.0315" y1="31.7309" x2="36.0315" y2="38.9799" gradientUnits="userSpaceOnUse">
<stop offset="0.3466" stop-color="#ACB0B5"/>
<stop offset="1" stop-color="white"/>
</linearGradient>
<clipPath id="clip0_695_114">
<rect width="70" height="70" fill="white"/>
</clipPath>
</defs>
</svg>
