<svg xmlns="http://www.w3.org/2000/svg" viewBox="0 0 1302.17 184.94">
            <g id="Layer_2" data-name="Layer 2">
              <g id="Layer_1-2" data-name="Layer 1">
                <path d="M587.11,184.94c-3.05-.58-6.14-.4-9.21-.63-12.69-1-25.14-3-37-7.68-15.84-6.2-28.42-16.22-36.26-31.57a69.83,69.83,0,0,1-7.19-26.65c-.85-10.87-.26-21.61,2.88-32.12,5.63-18.85,17.81-32,35.43-40.32a103.5,103.5,0,0,1,28.65-8.33,228.11,228.11,0,0,1,38.38-2.18c27.88.4,52,10.41,72.59,29,3.11,2.81,6.08,5.75,9,8.7a3.38,3.38,0,0,1,.81,4.16,103.7,103.7,0,0,1-13.09,23c-1.63,2.16-3.37,2.33-5.17.32a168.56,168.56,0,0,0-11.9-12.16c-10.9-9.88-23.19-17.21-37.76-20.28a68.68,68.68,0,0,0-14.59-1.56c-6.39,0-12.79,0-19.17.41C572.82,67.77,562.2,69,552.11,73c-13.08,5.21-20.76,14.66-22.63,28.7a55.63,55.63,0,0,0,2,25.37c3,9,9.1,15.15,17.52,19.18,7.32,3.5,15.14,5.27,23.14,6.31a220.84,220.84,0,0,0,29.54,1.36c18.2-.12,34.26-6.06,48.41-17.45,9.85-7.94,18-17.47,26-27.14,9.49-11.43,18.39-23.36,28.59-34.19,12.76-13.56,27.05-25,44.53-32a104.61,104.61,0,0,1,27.2-6.83c11.44-1.3,22.87-.93,34.32-.33a136.84,136.84,0,0,1,32.53,5.33c2.51.76,5,1.66,7.43,2.61s2.78,3,1,4.8q-10.06,9.93-20.17,19.79a3.76,3.76,0,0,1-3.76,1A135.15,135.15,0,0,0,807.69,67c-6.72-.4-13.44-.37-20.16-.25a73.57,73.57,0,0,0-41,13.31c-10.46,7.18-19,16.33-27.13,25.95-1,1.18-2,2.37-3,3.54-.43.51-.62.89-.08,1.53,8.07,9.64,16.37,19,26.43,26.72a75.76,75.76,0,0,0,34.6,15.08,105.64,105.64,0,0,0,20.58.9c8.69-.34,17.37-.6,25.95-2.14a3.16,3.16,0,0,1,2.85,1c6.92,6.78,13.87,13.54,20.77,20.35,2,2,1.43,4.38-1.23,5.27A117.15,117.15,0,0,1,826,183a160.43,160.43,0,0,1-18.69,1.7,7.12,7.12,0,0,0-1.28.27H782.24c-.34-.36-.8-.3-1.23-.33a98.62,98.62,0,0,1-18.16-2.83c-18.18-4.43-33.79-13.58-47.63-25.95a204.56,204.56,0,0,1-18.66-19.39c-.94-1.09-1.33-.86-2.15.07-2.85,3.28-5.73,6.54-8.73,9.69-10.8,11.37-22.72,21.27-37,28.13A103.41,103.41,0,0,1,615.79,184c-2.83.34-5.67.64-8.51.95Z" />
                <path d="M1302.17,181.64c-2.81,0-5.62-.09-8.42-.09-9.37,0-18.74,0-28.11,0a2.92,2.92,0,0,1-2.7-1.43q-30.46-43.07-61-86.09c-.23-.32-.48-.61-.68-.94a1.39,1.39,0,0,0-1.73-.59,1.29,1.29,0,0,0-.92,1.4c0,.44,0,.88,0,1.32q0,42.1,0,84.21c0,1.59-.28,2.15-2,2.13-9.43-.1-18.85-.06-28.28,0a2.6,2.6,0,0,1-2.42-1.27q-30.43-43-60.92-85.93c-.29-.4-.61-.79-.87-1.21a1.43,1.43,0,0,0-1.71-.65,1.45,1.45,0,0,0-1,1.52c0,.44,0,.88,0,1.32q0,42.11,0,84.2c0,1.53-.28,2-2,2-9.37-.09-18.74-.07-28.11,0-1.34,0-1.75-.32-1.75-1.71q0-70.5,0-141c0-2.07,1-3.34,2.95-3.43,10.84-.54,21.25.81,30.54,7.09,5.44,3.68,9.45,8.64,13.18,13.93q24.75,35.08,49.63,70.1c.15.21.32.42.57.75a3.37,3.37,0,0,0,.26-2q0-42.43,0-84.87c0-.6,0-1.21,0-1.81a3,3,0,0,1,3.06-3.21c11.7-.59,22.77,1.17,32.41,8.5,5,3.77,8.5,8.7,12,13.69q43.51,61.29,87.09,122.56c.21.3.32.7.75.81Z" />
                <path d="M362.53,184.94c-2.81-.62-5.68-.4-8.52-.63C337.78,183,322,180,307.6,172c-17.35-9.65-28-24.28-32.08-43.7a91.84,91.84,0,0,1-1.82-19q0-47.62,0-95.25c0-3.05.48-3.73,3.33-4.68q11.78-3.9,23.56-7.78,5-1.66,5,3.68V49.34c.63.18,1-.24,1.4-.47,9.37-5.42,19.56-8.57,30.13-10.52,15.68-2.91,31.53-3,47.39-2.79,7.22.09,14.43.34,21.61,1.12,17.05,1.87,33.42,5.85,47.71,15.94,13.7,9.68,22,22.94,25.44,39.25a88.86,88.86,0,0,1,1.27,29.18c-1.86,15.8-7.77,29.75-19.47,40.9-8.07,7.68-17.65,12.82-28.15,16.32a119.11,119.11,0,0,1-25.54,5.38c-4.44.46-8.86.93-13.33,1a3.07,3.07,0,0,0-1.76.3ZM380.11,66.7A233.92,233.92,0,0,0,350.27,68a82.42,82.42,0,0,0-22.16,5.31c-11.78,4.91-19.19,13.38-21.56,26.07a61.69,61.69,0,0,0-.57,17.89,37.45,37.45,0,0,0,6.41,18.08c5,7.08,12.16,11,20.14,13.59,11.3,3.75,23,4.6,34.8,4.87,13.05.31,26.1.17,39.08-1.53a77.45,77.45,0,0,0,21-5.34c9.27-4,16.13-10.38,19.44-20.1,3-8.68,3.1-17.6,1.66-26.53-1.82-11.3-7.56-20-17.92-25.33-9.4-4.85-19.6-6.61-30-7.59A183.55,183.55,0,0,0,380.11,66.7Z" />
                <path d="M933.39,184.94c-.92-.53-1.93-.27-2.91-.32-16.7-.88-33.05-3.37-48.2-10.93-19.65-9.8-31.57-25.49-35.58-47.11a91,91,0,0,1-1-25.9,69.14,69.14,0,0,1,9.8-30.14c7.38-11.9,18-20.05,30.66-25.57a105.27,105.27,0,0,1,26.66-7.33c15.08-2.24,30.25-2.4,45.45-2,5.29.12,10.57.27,15.84.74,17.37,1.53,34.15,5.09,49,14.78s24,23.48,27.66,40.84a88.5,88.5,0,0,1,1.58,25.87c-1.1,13.27-4.87,25.65-13,36.46s-18.86,17.94-31.34,22.7a112.83,112.83,0,0,1-26.26,6.33,145.6,145.6,0,0,1-15.75,1.3,2.46,2.46,0,0,0-1.59.32ZM951,66.72A230.83,230.83,0,0,0,922,68a87.55,87.55,0,0,0-20,4.39c-11.33,4.12-19.68,11.27-23,23.24a55.26,55.26,0,0,0-.42,27.66,31.86,31.86,0,0,0,11.38,18.4c4.85,3.84,10.45,6.18,16.33,7.92,10.78,3.19,21.9,3.92,33,4.2a253.91,253.91,0,0,0,38.4-1.53A77.89,77.89,0,0,0,998.8,147c10-4.29,17-11.31,20.08-21.92a55.94,55.94,0,0,0,1.14-24.45c-1.93-12.09-8.21-21-19.47-26.33-10.53-4.93-21.79-6.39-33.2-7.19C961.68,66.66,956,66.66,951,66.72Z" />
                <path d="M107.74,123.52q-37,0-74.07,0c-1.45,0-1.92.28-1.92,1.85.06,18.1,0,36.21.08,54.31,0,1.57-.48,1.89-1.94,1.88q-14-.09-27.94,0c-1.43,0-1.95-.25-1.95-1.85C.05,143.85-.08,108,.09,72.2.17,56.68,4.25,42.26,13.93,29.79,22.16,19.18,33,12.24,45.5,7.64a115.94,115.94,0,0,1,25.4-6A224.81,224.81,0,0,1,99.89,0q42.26,0,84.5,0c3,0,3.84.89,3.84,3.81V26.93c0,3.28-.83,4.12-4.06,4.12q-39.43,0-78.87,0a259.67,259.67,0,0,0-26.9,1c-9.76,1-19.32,2.9-28.12,7.54-10,5.25-15.49,13.63-17.53,24.54-1.13,6-.94,12.15-1,18.25,0,2.91.05,5.83,0,8.75,0,1.1.33,1.49,1.4,1.34a8.83,8.83,0,0,1,1.15,0q73.26,0,146.5-.08c4.65,0,7.72,2.69,7.49,7.57-.28,5.71-.06,11.44-.07,17.17a6,6,0,0,1-6.41,6.37Z" />
                <path d="M247.44,112.42q0,33.6,0,67.19c0,1.54-.43,1.9-1.91,1.89q-14.06-.09-28.11,0c-1.49,0-1.8-.44-1.8-1.86q.06-62.82,0-125.63c0-2.55.54-3.32,2.91-4.11,8-2.65,16.06-5.25,24.05-8,2.83-1,4.86.45,4.85,3.45C247.38,67.73,247.44,90.08,247.44,112.42Z" />
                <path d="M231.64,0H244c2.37,0,3.4,1,3.4,3.41,0,4.46,0,8.92,0,13.37a3.13,3.13,0,0,1-2.36,3.34c-8.37,2.77-16.74,5.55-25.14,8.26-2.5.81-4.25-.52-4.26-3.12q0-11,0-21.95c0-2.22,1.13-3.3,3.38-3.31Z" />
              </g>
            </g>
          </svg>