<svg width="70" height="70" viewBox="0 0 70 70" fill="none" xmlns="http://www.w3.org/2000/svg">
<g id="B2 1" clip-path="url(#clip0_695_104)">
<path id="Vector" d="M53.8106 68.6302C41.2702 70.5256 28.7139 70.5256 16.1735 68.6302C9.51286 67.4994 2.53358 60.5233 1.40223 53.8657C-0.430231 41.6974 -0.493969 29.5449 1.24289 17.3765C2.4061 10.1297 10.0546 2.48462 17.3207 1.32193C29.4787 -0.414131 41.6526 -0.350423 53.8106 1.4812C60.4712 2.61203 67.4505 9.58814 68.5818 16.2457C70.478 28.7804 70.478 41.331 68.5818 53.8657C67.4664 60.5233 60.4712 67.5153 53.8106 68.6302Z" fill="url(#paint0_linear_695_104)"/>
<g id="Group">
<path id="Vector_2" d="M39.5015 33.3993L34.7849 30.6758C33.6376 30.0068 32.2035 30.835 32.2035 32.1729V37.62C32.2035 38.942 33.6376 39.7702 34.7849 39.1172L39.5015 36.3936C40.6488 35.7247 40.6488 34.0682 39.5015 33.3993Z" fill="url(#paint1_linear_695_104)"/>
<path id="Vector_3" d="M56.4876 26.3595C56.4239 26.3436 56.3442 26.3277 56.2805 26.3277C52.2968 25.595 48.2176 25.0694 44.1703 24.7668C42.529 20.6576 40.601 16.6121 38.4657 12.7258C38.4498 12.694 38.4339 12.6781 38.4339 12.6621C37.908 11.7224 36.9042 11.1331 35.8206 11.1331C34.7371 11.1331 33.7491 11.7224 33.2074 12.6621L33.1596 12.7577C31.0244 16.6439 29.1122 20.6894 27.471 24.7827C23.4077 25.0853 19.3444 25.6109 15.3608 26.3436C15.2971 26.3595 15.2174 26.3754 15.1537 26.3754C13.7992 26.6781 12.8113 27.9044 12.8113 29.2901C12.8113 30.0228 13.0822 30.7395 13.5761 31.2969C13.6399 31.3606 13.6877 31.4244 13.7514 31.4721C16.5718 34.339 19.5675 37.0785 22.6906 39.6269C21.7346 43.5449 20.9697 47.5586 20.4439 51.5563C20.428 51.62 20.428 51.6997 20.412 51.7634C20.3961 51.8589 20.3961 51.9545 20.3961 52.0501C20.3961 53.6906 21.7346 55.0285 23.3918 55.0444H23.4077C23.8061 55.0444 24.1885 54.9647 24.555 54.8055C24.6028 54.7895 24.6665 54.7577 24.6984 54.7418C28.4908 53.0057 32.2354 51.0307 35.8047 48.8806C36.0278 49.008 36.2509 49.1513 36.4739 49.2787C36.6811 49.4062 36.8882 49.5176 37.0954 49.6451C37.3503 49.7884 37.6053 49.9318 37.8443 50.0751C38.0515 50.1866 38.2586 50.314 38.4498 50.4255C38.7048 50.5688 38.9597 50.7122 39.2306 50.8555C39.4377 50.967 39.629 51.0785 39.8361 51.19C40.107 51.3333 40.3619 51.4767 40.6328 51.62C40.824 51.7315 41.0312 51.8271 41.2224 51.9386C41.4933 52.0819 41.7801 52.2253 42.051 52.3686C42.2422 52.4642 42.4334 52.5597 42.6246 52.6712C42.9115 52.8146 43.2142 52.9738 43.501 53.1172C43.6763 53.2128 43.8516 53.2924 44.0269 53.388C44.3456 53.5472 44.6802 53.7065 44.9989 53.8658C45.1423 53.9295 45.2857 54.0091 45.445 54.0728C45.9231 54.2958 46.4011 54.5188 46.8791 54.7418L47.0544 54.8214C47.4209 54.9807 47.8033 55.0444 48.2017 55.0444C49.8589 55.0444 51.1974 53.7065 51.1974 52.0501C51.1974 51.9545 51.1974 51.8589 51.1814 51.7634C51.1655 51.6997 51.1655 51.62 51.1496 51.5563C51.0858 51.0467 51.0062 50.5529 50.9424 50.0432C50.9265 49.884 50.8946 49.7247 50.8627 49.5654C50.8149 49.215 50.7671 48.8806 50.7034 48.5302C50.6715 48.339 50.6397 48.1479 50.6078 47.9568C50.56 47.6382 50.5122 47.3356 50.4484 47.0171C50.4166 46.81 50.3688 46.6189 50.3369 46.4118C50.2891 46.1092 50.2254 45.8066 50.1776 45.5199C50.1298 45.3129 50.0979 45.0899 50.0501 44.8828C49.9864 44.5961 49.9385 44.3095 49.8748 44.0228C49.827 43.7998 49.7792 43.5768 49.7314 43.3538C49.6677 43.0831 49.6199 42.7964 49.5561 42.5256C49.5083 42.3026 49.4605 42.0637 49.3968 41.8407C49.333 41.57 49.2852 41.2992 49.2215 41.0285C49.1737 40.7895 49.11 40.5666 49.0621 40.3277C48.9984 40.0887 48.9506 39.8498 48.8869 39.6269C52.026 37.0626 55.0376 34.3072 57.8739 31.4244C57.9217 31.3925 57.9536 31.3447 58.0014 31.2969C58.4953 30.7395 58.7822 30.0228 58.7822 29.2742C58.83 27.8726 57.8739 26.6781 56.4876 26.3595ZM44.5049 26.901C44.6483 27.2514 44.7758 27.6178 44.9033 27.9682C44.9829 28.2071 45.0785 28.43 45.1582 28.669C45.3016 29.0671 45.445 29.4653 45.5725 29.8635C45.6362 30.0546 45.7159 30.2617 45.7797 30.4528C45.9868 31.0421 46.178 31.6314 46.3692 32.2207C46.3852 32.2685 46.4011 32.3322 46.417 32.38C46.5923 32.9374 46.7676 33.4949 46.9429 34.0523C47.0066 34.2753 47.0703 34.4824 47.1341 34.7054C47.2456 35.0876 47.3572 35.4699 47.4687 35.868C47.5324 36.1229 47.6121 36.3777 47.6759 36.6166C47.7715 36.967 47.8671 37.3174 47.9627 37.6837C48.0264 37.9545 48.1061 38.2093 48.1698 38.4801C48.2495 38.7986 48.3292 39.1172 48.4088 39.4357C44.4252 42.669 40.1867 45.6633 35.8206 48.3072C35.5338 48.132 35.2311 47.9409 34.9442 47.7657C34.7052 47.6223 34.4662 47.479 34.2272 47.3197C33.8926 47.1126 33.5739 46.9056 33.2393 46.6826C33.0162 46.5393 32.809 46.4118 32.5859 46.2685C32.2194 46.0296 31.853 45.7748 31.4705 45.5358C31.2952 45.4244 31.1359 45.3129 30.9606 45.2014C30.4189 44.835 29.893 44.4687 29.3512 44.0865C29.3353 44.0705 29.3034 44.0546 29.2875 44.0387C28.7776 43.6724 28.2677 43.322 27.7578 42.9397C27.5825 42.8123 27.4072 42.6849 27.2479 42.5575C26.8973 42.3026 26.5468 42.0478 26.1962 41.777C25.9891 41.6178 25.7979 41.4585 25.5907 41.3151C25.272 41.0762 24.9693 40.8373 24.6506 40.5984C24.4275 40.4232 24.2204 40.248 23.9973 40.0728C23.7264 39.8498 23.4555 39.6428 23.1846 39.4198C23.2643 39.0853 23.3599 38.7509 23.4396 38.4323C23.5033 38.1775 23.567 37.9227 23.6308 37.6837C23.7264 37.3015 23.8379 36.9192 23.9495 36.537C24.0132 36.314 24.0769 36.091 24.1407 35.868C24.2682 35.438 24.3956 34.992 24.5231 34.562C24.5709 34.3868 24.6187 34.2275 24.6665 34.0523C25.033 32.8419 25.4154 31.6473 25.8297 30.4528C25.8775 30.2935 25.9413 30.1343 26.005 29.975C26.1484 29.5449 26.3078 29.1149 26.4671 28.669C26.5468 28.446 26.6265 28.2389 26.7061 28.0159C26.8495 27.6496 26.977 27.2674 27.1204 26.901C27.216 26.6621 27.3116 26.4232 27.3913 26.1843C27.5188 25.8658 27.6463 25.5313 27.7737 25.2128C27.8056 25.2128 27.8375 25.2128 27.8693 25.2128C28.4908 25.165 29.1122 25.1331 29.7337 25.1013C29.7815 25.1013 29.8133 25.1013 29.8611 25.1013C30.4985 25.0694 31.12 25.0376 31.7573 25.0216C31.7892 25.0216 31.8211 25.0216 31.853 25.0216C32.4903 25.0057 33.1436 24.9738 33.781 24.9738C33.797 24.9738 33.8129 24.9738 33.8288 24.9738C34.4821 24.9579 35.1354 24.9579 35.8047 24.9579C36.458 24.9579 37.1113 24.9579 37.7806 24.9738C37.7965 24.9738 37.8124 24.9738 37.8284 24.9738C38.4657 24.9898 39.1191 25.0057 39.7564 25.0216C39.7883 25.0216 39.8202 25.0216 39.852 25.0216C40.4894 25.0376 41.1109 25.0694 41.7482 25.1013C41.796 25.1013 41.8279 25.1013 41.8757 25.1013C42.4972 25.1331 43.1186 25.1809 43.74 25.2128C43.7719 25.2128 43.8038 25.2128 43.8357 25.2128C43.9631 25.5313 44.0747 25.8339 44.2021 26.1525C44.3137 26.4073 44.4093 26.6621 44.5049 26.901ZM33.5898 12.9647L33.6376 12.8692C34.0838 12.0728 34.9283 11.595 35.8206 11.595C36.7289 11.595 37.5734 12.0887 38.0196 12.8851C38.0355 12.901 38.0355 12.917 38.0514 12.9488C40.1389 16.7554 42.0191 20.7054 43.6444 24.719C41.0631 24.5438 38.4339 24.4482 35.8206 24.4482C34.8008 24.4482 33.7651 24.4642 32.7453 24.496C31.1678 24.5438 29.5743 24.6234 28.0128 24.719C29.6221 20.7213 31.5024 16.7713 33.5898 12.9647ZM14.102 31.1217C14.0382 31.058 13.9904 31.0102 13.9426 30.9625C13.5283 30.5006 13.3053 29.9113 13.3053 29.2901C13.3053 28.1274 14.1339 27.0922 15.2652 26.8373C15.3289 26.8214 15.3927 26.8055 15.4564 26.8055C19.3444 26.0887 23.328 25.5632 27.2957 25.2605C26.8814 26.3277 26.4671 27.3948 26.0688 28.4778C25.7819 29.2742 25.511 30.0865 25.2402 30.8828C24.3319 33.5905 23.5352 36.3299 22.8341 39.1013C19.7906 36.6007 16.8586 33.9249 14.102 31.1217ZM24.5072 54.2958C24.4753 54.3117 24.4275 54.3277 24.3797 54.3595C24.061 54.4869 23.7264 54.5506 23.3918 54.5506C22.0055 54.5506 20.8741 53.4198 20.8741 52.0341C20.8741 51.9545 20.8741 51.8749 20.8901 51.8112C20.8901 51.7475 20.906 51.6837 20.9219 51.62C21.4318 47.7019 22.1807 43.7839 23.1049 39.9613C24.539 41.124 26.005 42.2548 27.5029 43.3379C30.0524 45.2014 32.6815 46.9534 35.3745 48.5939C31.8689 50.6803 28.2199 52.6075 24.5072 54.2958ZM48.2495 54.5506C47.9149 54.5506 47.5962 54.4869 47.2934 54.3595L47.1182 54.2799C46.1621 53.8498 45.206 53.388 44.2659 52.9261C41.5411 51.5882 38.88 50.1229 36.2827 48.5779C40.5372 45.9977 44.6483 43.0831 48.5363 39.9454C49.4764 43.7679 50.2094 47.7019 50.7193 51.6041C50.7353 51.6678 50.7353 51.7315 50.7512 51.7952C50.7671 51.8749 50.7671 51.9386 50.7671 52.0341C50.7671 53.4198 49.6358 54.5506 48.2495 54.5506ZM57.7146 30.9784C57.6827 31.0103 57.6508 31.0421 57.603 31.0899C54.8304 33.909 51.8825 36.6007 48.8231 39.1172C48.5522 38.0023 48.2495 36.9033 47.9308 35.7884C46.9269 32.2207 45.7159 28.7008 44.3615 25.2605C48.3292 25.5632 52.2968 26.0728 56.2008 26.8055C56.2645 26.8214 56.3283 26.8214 56.392 26.8373C57.5393 27.0922 58.3519 28.1115 58.3519 29.2901C58.3519 29.9113 58.1288 30.5165 57.7146 30.9784Z" fill="url(#paint2_linear_695_104)"/>
<path id="Vector_4" d="M39.7405 32.9852L35.008 30.2617C34.6734 30.0705 34.2909 29.959 33.9085 29.959C32.6975 29.959 31.7095 30.9465 31.7095 32.157V37.6041C31.7095 38.8146 32.6975 39.802 33.9085 39.802C34.2909 39.802 34.6734 39.7065 35.008 39.4994L39.7246 36.7759C40.4098 36.3777 40.8241 35.661 40.8241 34.8646C40.8241 34.0683 40.4257 33.3834 39.7405 32.9852ZM39.5015 36.3777L34.7849 39.1013C34.514 39.2605 34.2113 39.3402 33.9244 39.3402C33.0321 39.3402 32.2035 38.6234 32.2035 37.62V32.1729C32.2035 31.1695 33.0321 30.4528 33.9244 30.4528C34.2113 30.4528 34.4981 30.5324 34.7849 30.6917L39.5015 33.4152C40.6488 34.0683 40.6488 35.7247 39.5015 36.3777Z" fill="url(#paint3_linear_695_104)"/>
</g>
</g>
<defs>
<linearGradient id="paint0_linear_695_104" x1="34.9981" y1="74.8149" x2="34.9981" y2="3.55935" gradientUnits="userSpaceOnUse">
<stop offset="0.2961" stop-color="#DFDFE6"/>
<stop offset="1" stop-color="#F1F1F3"/>
</linearGradient>
<linearGradient id="paint1_linear_695_104" x1="36.2754" y1="40.7663" x2="36.2754" y2="34.2136" gradientUnits="userSpaceOnUse">
<stop offset="0.2709" stop-color="#E84BF2"/>
<stop offset="1" stop-color="#FF4777"/>
</linearGradient>
<linearGradient id="paint2_linear_695_104" x1="35.828" y1="58.4299" x2="35.828" y2="19.4292" gradientUnits="userSpaceOnUse">
<stop offset="0.3522" stop-color="#262525"/>
<stop offset="1" stop-color="#575555"/>
</linearGradient>
<linearGradient id="paint3_linear_695_104" x1="36.2754" y1="31.5816" x2="36.2754" y2="36.4706" gradientUnits="userSpaceOnUse">
<stop offset="0.3466" stop-color="#ACB0B5"/>
<stop offset="1" stop-color="white"/>
</linearGradient>
<clipPath id="clip0_695_104">
<rect width="70" height="70" fill="white"/>
</clipPath>
</defs>
</svg>
