<svg 
  xmlns="http://www.w3.org/2000/svg" 
  width="60" 
  height="29" 
  viewBox="0 0 60 29" 
  fill="black"
>
  <g clip-path="url(#clip0_2_169)">
    <path d="M28.9691 6.18718C30.4095 6.18718 31.5772 4.98731 31.5772 3.50722C31.5772 2.02712 30.4095 0.827271 28.9691 0.827271C27.5286 0.827271 26.3609 2.02712 26.3609 3.50722C26.3609 4.98731 27.5286 6.18718 28.9691 6.18718Z"/>
    <path d="M6.93607 14.8244L13.6266 7.94963C13.7418 7.83127 13.6599 7.62614 13.4961 7.62614H8.0904C8.04176 7.62614 7.99568 7.64719 7.95985 7.68137L4.47637 11.2608V1.85859C4.47637 1.72446 4.34329 1.63241 4.22299 1.68238L0.399068 3.27352C0.329961 3.30246 0.28389 3.37083 0.28389 3.44973V21.9674C0.28389 22.141 0.422105 22.283 0.591031 22.283H4.16924C4.33815 22.283 4.47637 22.141 4.47637 21.9674V18.3881L8.21838 22.2304C8.25164 22.2647 8.30028 22.2857 8.34892 22.2857L13.7571 22.283C13.9209 22.283 14.0029 22.0779 13.8877 21.9595L6.93607 14.8244Z"/>
    <path d="M27.1792 22.283H30.7574C30.9263 22.283 31.0645 22.141 31.0645 21.9675V7.94438C31.0645 7.77083 30.9263 7.62878 30.7574 7.62878H27.1792C27.0103 7.62878 26.8721 7.77083 26.8721 7.94438V21.9701C26.8746 22.1437 27.0103 22.283 27.1792 22.283Z"/>
    <path fill-rule="evenodd" clip-rule="evenodd" d="M52.5336 7.64456C56.0505 7.89177 58.8994 10.819 59.1448 14.4299C59.4341 18.7168 56.1373 22.283 52.032 22.2857C50.9828 22.2857 49.9869 22.049 49.0912 21.6308V26.378C49.0912 26.5068 49.0168 26.6225 48.8992 26.6699L45.1521 28.2294C45.0318 28.2794 44.8986 28.19 44.8986 28.0532V14.9559H44.9013C44.9013 10.7348 48.3668 7.35002 52.5336 7.64456ZM49.0912 14.9559C49.0912 16.6233 50.4068 17.9778 52.032 17.9778C53.6549 17.9778 54.9705 16.6233 54.9705 14.9559C54.9705 13.2885 53.6549 11.9341 52.032 11.9341C50.4068 11.9341 49.0912 13.2885 49.0912 14.9559Z"/>
    <path d="M38.1313 11.1582C38.1441 11.1582 38.1597 11.1582 38.1722 11.1609C38.8607 11.1319 39.4803 11.5843 39.9843 12.2918C40.0665 12.4075 40.2149 12.4469 40.3426 12.3943L43.2247 11.2029C43.3835 11.1372 43.4603 10.9505 43.3937 10.7874C42.6693 8.99376 40.4657 7.62878 38.1289 7.62878C35.0779 7.62878 32.6003 9.62231 32.6003 12.0814C32.6003 13.399 33.3476 14.543 34.3741 15.2899C35.2956 15.9606 36.3962 16.3945 37.4812 16.6838C37.4992 16.6891 37.5171 16.6937 37.535 16.6983C37.5529 16.7029 37.5708 16.7075 37.5887 16.7128C39.0527 17.0468 39.2626 17.4439 39.2626 17.8358C39.2626 18.346 38.6613 18.7589 37.9214 18.7589C37.1561 18.8089 36.478 18.2697 35.9456 17.4492C35.8661 17.3255 35.71 17.2808 35.5771 17.3361L32.7283 18.5353C32.5721 18.6011 32.5004 18.7799 32.5593 18.943C33.3758 21.2153 35.5771 22.2883 37.9214 22.2883C40.9724 22.2883 43.4501 20.2974 43.4501 17.8358C43.4501 17.2992 43.3322 16.7864 43.1148 16.3104C42.9073 15.8554 42.3674 14.8876 40.97 14.2169C40.6215 14.0506 40.0039 13.8291 39.3549 13.5966C38.5163 13.296 37.6256 12.9768 37.1973 12.7336C36.936 12.5863 36.7876 12.3417 36.7876 12.0814C36.7876 11.5711 37.3917 11.1582 38.1313 11.1582Z"/>
    <path d="M25.3952 7.88915C25.4439 7.76556 25.3543 7.62878 25.2238 7.62878H22.5235C18.5946 7.62878 15.408 10.9031 15.408 14.9402V21.9675C15.408 22.141 15.5463 22.283 15.7152 22.283H19.2934C19.4623 22.283 19.598 22.1437 19.598 21.9701V14.9402C19.598 13.278 20.9084 11.9314 22.526 11.9314H23.6573C23.7316 11.9314 23.7981 11.8867 23.8263 11.8157L25.3952 7.88915Z"/>
  </g>
  <defs>
    <clipPath id="clip0_2_169">
      <rect width="59.493" height="28.3944" fill="white" transform="translate(0 0.549301)"/>
    </clipPath>
  </defs>
</svg>
