<svg xmlns="http://www.w3.org/2000/svg" width="25" height="36" viewBox="0 0 25 36" fill="none">
<path d="M12.2607 24.8587C14.1234 24.8587 15.7175 24.1956 17.0437 22.8698C18.3698 21.5441 19.0328 19.9492 19.0328 18.0867V7.25079C19.0328 5.38823 18.3703 3.79402 17.0437 2.46764C15.7175 1.14155 14.1234 0.478027 12.2607 0.478027C10.3983 0.478027 8.80398 1.14155 7.47767 2.46764C6.15129 3.7938 5.4882 5.38823 5.4882 7.25079V18.0867C5.4882 19.9492 6.15158 21.5441 7.47767 22.8698C8.80375 24.1956 10.3983 24.8587 12.2607 24.8587Z" fill="white"/>
<path d="M24.0489 14.4252C23.7816 14.157 23.4634 14.0229 23.0965 14.0229C22.73 14.0229 22.4126 14.157 22.1442 14.4252C21.8764 14.6932 21.7423 15.0106 21.7423 15.3774V18.0865C21.7423 20.6969 20.8144 22.9296 18.959 24.7849C17.1041 26.6404 14.8711 27.5681 12.2607 27.5681C9.65032 27.5681 7.41756 26.6404 5.56205 24.7849C3.70675 22.9301 2.77918 20.697 2.77918 18.0865V15.3774C2.77918 15.0106 2.64508 14.6932 2.3771 14.4252C2.10898 14.157 1.79186 14.0229 1.42477 14.0229C1.05769 14.0229 0.740194 14.157 0.472219 14.4252C0.204021 14.6932 0.0699959 15.0106 0.0699959 15.3774V18.0865C0.0699959 21.2048 1.11076 23.9174 3.19171 26.2241C5.27272 28.5308 7.84417 29.8535 10.9061 30.1919V32.9859H5.48814C5.12128 32.9859 4.80386 33.1201 4.53581 33.3882C4.26768 33.6561 4.13359 33.9737 4.13359 34.3406C4.13359 34.7068 4.26768 35.025 4.53581 35.2929C4.80386 35.5608 5.12128 35.6953 5.48814 35.6953H19.0329C19.3997 35.6953 19.7175 35.5609 19.9852 35.2929C20.2536 35.0251 20.3878 34.7069 20.3878 34.3406C20.3878 33.9738 20.2536 33.6562 19.9852 33.3882C19.7176 33.1201 19.3997 32.9859 19.0329 32.9859H13.6155V30.1919C16.677 29.8535 19.2482 28.5308 21.3295 26.2241C23.4107 23.9174 24.4518 21.2048 24.4518 18.0865V15.3774C24.4518 15.0107 24.3174 14.6935 24.0489 14.4252Z" fill="white"/>
</svg>