<svg width="57" height="44" viewBox="0 0 57 44" xmlns="http://www.w3.org/2000/svg">
  <g clip-path="url(#clip0)">
    <path d="M7.43091 20.2867C7.53726 20.2101 7.64361 20.1405 7.74287 20.0639C9.63589 18.6716 10.905 16.5691 11.4864 15.4622V11.2851H7.43091V20.2867Z"/>
    <path d="M13.9182 16.7988C14.9321 17.7456 16.3005 18.9152 17.9737 20.1126V9.48894H13.9182V9.59336V16.7988Z"/>
    <path d="M20.3914 21.7278C21.6322 22.4866 22.9792 23.2246 24.4398 23.879V5.40236H20.3914V21.7278Z"/>
    <path d="M0.957748 4.70618V23.6144C1.51786 23.3917 3.23363 22.6885 5.01322 21.7487V4.62263V4.45555H0.957748V4.70618Z"/>
    <path d="M26.8646 24.8676C28.1549 25.334 29.5091 25.7169 30.92 26.0093V16.1166H26.8646V24.8676Z"/>
    <path d="M39.818 26.1973C41.2643 25.9188 42.6114 25.4941 43.8664 24.9581V7.60229H39.818V26.1973Z"/>
    <path d="M50.3537 20.7322V5.67386V5.55551H46.2982V23.7328C47.8226 22.8347 49.1697 21.7974 50.3537 20.7322Z"/>
    <path d="M52.7714 18.226C55.0969 15.5248 56.2526 13.2065 56.2526 13.2065C56.2526 13.2065 56.366 12.9838 56.3873 12.8445H52.7714V18.226Z"/>
    <path d="M10.508 40.1209C9.90531 40.1209 9.4161 40.0164 9.06869 39.8354V43.1214H8.38806C7.90594 43.1214 7.33874 42.8151 7.33874 41.9101V34.997C7.81377 34.8229 8.96234 34.6002 9.57917 34.6002H10.5505C12.2237 34.6002 13.4219 35.533 13.4219 37.2317C13.4149 39.0209 12.1599 40.1209 10.508 40.1209ZM10.3307 36.0343H9.77769C9.56499 36.0343 9.26012 36.1109 9.0616 36.1457V38.5405C9.35938 38.6241 9.8415 38.6867 10.2811 38.6867C11.1673 38.6867 11.6424 38.1924 11.6424 37.3779C11.6424 36.4172 11.2382 36.0343 10.3307 36.0343Z"/>
    <path d="M17.3427 36.3058C19.3775 36.3058 20.5474 37.914 20.5474 39.6753C20.5474 41.6734 19.3775 43.2676 17.1867 43.2676C15.1448 43.2676 13.975 41.6733 13.975 39.9051C13.9821 37.914 15.1448 36.3058 17.3427 36.3058ZM17.1867 37.7887C16.2154 37.7887 15.7262 38.5753 15.7262 39.6823C15.7262 41.005 16.2154 41.7917 17.3356 41.7917C18.314 41.7917 18.7962 41.005 18.7962 39.912C18.7962 38.5753 18.2999 37.7887 17.1867 37.7887Z"/>
    <path d="M23.9577 43.1841C22.5609 43.1841 21.8023 42.46 21.8023 41.1094V34.2312H22.2773C23.1211 34.2312 23.4826 34.7116 23.4826 35.3451V40.9493C23.4826 41.6177 23.8301 41.8265 24.6312 41.8265H25.085V42.1885C25.0921 42.8986 24.695 43.1841 23.9577 43.1841Z"/>
    <path d="M27.9281 43.1841C26.5313 43.1841 25.7798 42.46 25.7798 41.1094V34.2312H26.2619C27.1056 34.2312 27.4672 34.7116 27.4672 35.3451V40.9493C27.4672 41.6177 27.8217 41.8265 28.6158 41.8265H29.0696V42.1885C29.0625 42.8986 28.6725 43.1841 27.9281 43.1841Z"/>
    <path d="M33.5788 35.714C33.3165 35.6305 33.0116 35.5678 32.6004 35.5678C31.9126 35.5678 31.3951 35.8045 31.3951 36.6887V37.2804H33.3377V37.7399C33.3377 38.3317 32.6996 38.6798 32.1253 38.6798H31.3951V43.1214H30.7215C30.1827 43.1214 29.7006 42.7107 29.7006 42.1328V36.5495C29.7006 35.6096 30.367 34.1059 32.338 34.1059C33.0754 34.1059 33.6355 34.5027 33.6355 35.1571V35.714H33.5788Z"/>
    <path d="M35.2378 35.9856C34.6919 35.9856 34.2594 35.54 34.2594 35.0039C34.2594 34.4748 34.699 34.0432 35.2378 34.0432C35.7767 34.0432 36.2304 34.4748 36.2304 35.0039C36.2375 35.533 35.7838 35.9856 35.2378 35.9856ZM36.436 43.1841C35.1315 43.1841 34.4154 42.46 34.4154 41.1094C34.4154 40.7265 34.4154 36.5982 34.4154 36.5982H34.8904C35.6491 36.5982 36.0957 36.995 36.0957 37.8374V40.9493C36.0957 41.6177 36.3864 41.8265 37.1309 41.8265H37.4499V42.1885C37.4428 42.8986 37.1521 43.1841 36.436 43.1841Z"/>
    <path d="M40.3072 43.2676C39.0593 43.2676 38.1306 42.641 38.1306 41.9588V41.2069H38.1944C38.556 41.5411 39.428 41.8335 40.2363 41.8335C41.0658 41.8335 41.4699 41.5968 41.4699 41.1025C41.4699 40.7196 41.2289 40.5316 40.059 40.3715C38.6269 40.1766 37.932 39.6196 37.932 38.6032C37.932 37.3501 39.0806 36.2919 40.8106 36.2919C42.342 36.2919 42.973 37.0646 42.973 37.7121V38.3456H42.9163C42.5618 37.9975 41.7819 37.726 40.9807 37.726C39.9527 37.726 39.6195 38.0323 39.6195 38.464C39.6195 38.7981 39.8251 38.9374 40.9807 39.1184C42.3916 39.3412 43.1432 39.9468 43.1432 41.005C43.1432 42.4322 42.1293 43.2676 40.3072 43.2676Z"/>
    <path d="M49.8078 43.1214C49.1059 43.1214 48.6592 42.7246 48.6592 42.0075V39.2924C48.6592 38.2064 48.0565 37.7747 47.3121 37.7747C46.7803 37.7747 46.0926 38.1716 46.0926 39.3481V43.1214H45.5396C44.7455 43.1214 44.3768 42.6828 44.3768 42.0075V34.2312H44.9157C45.7168 34.2312 46.1139 34.6698 46.1139 35.2894C46.1139 35.2894 46.1139 36.5982 46.1139 37.19C46.362 36.8001 46.9363 36.2988 47.5886 36.2988C49.3327 36.2988 50.3679 37.3222 50.3679 39.2158V43.1214H49.8078Z"/>
    <path d="M33.3519 0C33.3448 0 33.3448 0 33.3377 0V26.3922C34.0609 26.4757 34.7983 26.5314 35.5498 26.5523C36.1808 26.5662 36.7905 26.5454 37.3932 26.5105V0H33.3519Z"/>
  </g>
  <defs>
    <clipPath id="clip0">
      <rect width="55.4366" height="43.2676" transform="translate(0.957748)" fill="white"/>
    </clipPath>
  </defs>
</svg>
