<svg width="120" height="30" viewBox="0 0 120 30" fill="none" xmlns="http://www.w3.org/2000/svg">
<g id="Logo" clip-path="url(#clip0_184_348)">
<path id="Vector" d="M15 25.3845C9.27693 25.3845 4.61539 20.7229 4.61539 14.9998C4.61539 9.27677 9.27693 4.61523 15 4.61523C19.1308 4.61523 22.8577 7.06139 24.5192 10.846C24.7731 11.4345 24.5192 12.1152 23.9192 12.3691C23.3423 12.6229 22.6615 12.3691 22.3962 11.7691C21.1038 8.82677 18.2077 6.92293 15 6.92293C10.5462 6.92293 6.92308 10.546 6.92308 14.9998C6.92308 19.4537 10.5462 23.0768 15 23.0768C18.2077 23.0768 21.1154 21.1729 22.3962 18.2306C22.65 17.6422 23.3308 17.3768 23.9192 17.6306C24.5077 17.8845 24.7731 18.5652 24.5192 19.1537C22.8692 22.9383 19.1308 25.3845 15 25.3845Z" fill="black"/>
<path id="Vector_2" d="M15 30C8.66539 30 2.98847 25.9846 0.865391 19.9962C0.657699 19.3962 0.969237 18.7385 1.56924 18.5192C2.16924 18.3 2.82693 18.6231 3.04616 19.2231C4.83462 24.2885 9.64616 27.6808 15 27.6808C22.0039 27.6808 27.6923 21.9923 27.6923 14.9885C27.6923 7.98461 22.0039 2.30769 15 2.30769C9.64616 2.30769 4.83462 5.71154 3.04616 10.7654C2.83847 11.3654 2.18078 11.6769 1.56924 11.4692C0.969237 11.2615 0.657699 10.5923 0.865391 9.99231C2.98847 4.01538 8.66539 0 15 0C23.2731 0 30 6.72692 30 15C30 23.2731 23.2731 30 15 30Z" fill="black"/>
<g id="Group">
<path id="Vector_3" d="M43.3731 13.9503L43.1192 13.8465C42.4962 13.6042 39.0923 12.4042 40.1308 9.68109C41.0538 7.23493 44.8615 8.18109 46.2 8.65416C46.3269 8.70032 46.4654 8.61955 46.5 8.49263L46.9731 6.7157C47.0077 6.60032 46.95 6.48493 46.8346 6.43878C45.1615 5.8157 39.6577 4.48878 37.9846 8.80416C36.0692 13.7311 41.4231 15.6465 42.3 15.9926L42.5654 16.0965C44.7346 16.9042 45.9577 17.8849 45.1154 20.1926C44.0885 23.008 39.3346 21.6465 37.7308 20.8734C37.6038 20.8157 37.4423 20.8849 37.4077 21.0234L36.9231 22.8349C36.9 22.9388 36.9346 23.0542 37.0385 23.1003C38.7808 23.9542 45.4846 25.9388 47.2962 20.9426C48.4731 17.7119 47.0769 15.3349 43.3615 13.9503H43.3731Z" fill="black"/>
<path id="Vector_4" d="M91.4769 23.643H82.1423C82.0154 23.643 81.9115 23.5392 81.9115 23.4122V6.58917C81.9115 6.46224 82.0154 6.3584 82.1423 6.3584H83.9885C84.1154 6.3584 84.2192 6.46224 84.2192 6.58917V21.3353H91.4769C91.6038 21.3353 91.7077 21.4392 91.7077 21.5661V23.4122C91.7077 23.5392 91.6038 23.643 91.4769 23.643Z" fill="black"/>
<path id="Vector_5" d="M103.673 23.643H94.3385C94.2115 23.643 94.1077 23.5392 94.1077 23.4122V6.58917C94.1077 6.46224 94.2115 6.3584 94.3385 6.3584H96.1846C96.3115 6.3584 96.4154 6.46224 96.4154 6.58917V21.3353H103.673C103.8 21.3353 103.904 21.4392 103.904 21.5661V23.4122C103.904 23.5392 103.8 23.643 103.673 23.643Z" fill="black"/>
<path id="Vector_6" d="M117.819 23.643H119.769C119.931 23.643 120.035 23.493 119.988 23.343L114.346 6.51994C114.312 6.42763 114.231 6.3584 114.127 6.3584H111.554C111.45 6.3584 111.369 6.41609 111.335 6.51994L105.692 23.343C105.646 23.493 105.75 23.643 105.912 23.643H107.862C107.965 23.643 108.046 23.5853 108.081 23.4815L109.569 19.0276H116.112L117.6 23.4815C117.635 23.5738 117.715 23.643 117.819 23.643ZM110.342 16.7315L112.835 9.27763L115.327 16.7315H110.331H110.342Z" fill="black"/>
<path id="Vector_7" d="M76.9846 6.47378L72.7038 14.3084L68.4231 6.47378C68.3769 6.40455 68.3077 6.3584 68.2154 6.3584H66.1154C65.9423 6.3584 65.8269 6.54301 65.9077 6.70455L71.5385 17.0084V23.4122C71.5385 23.5392 71.6423 23.643 71.7692 23.643H73.6154C73.7423 23.643 73.8461 23.5392 73.8461 23.4122V17.0084L79.4769 6.70455C79.5577 6.55455 79.4538 6.3584 79.2692 6.3584H77.1692C77.0885 6.3584 77.0077 6.40455 76.9615 6.47378H76.9846Z" fill="black"/>
<path id="Vector_8" d="M62.6654 21.046C61.2115 21.8537 59.4346 22.1653 57.5654 21.6922C55.0615 21.0576 53.0769 18.9922 52.5577 16.4537C51.6462 12.0114 55.0269 8.0768 59.3192 8.0768C60.5308 8.0768 61.6731 8.39987 62.6654 8.94218C62.7923 9.01141 62.9538 8.94218 63 8.80372L63.4846 6.98064C63.5077 6.8768 63.4615 6.76141 63.3577 6.70372C61.6731 5.87295 59.7 5.53833 57.6231 5.9191C53.6769 6.64603 50.5962 9.9691 50.1577 13.9614C49.5577 19.4999 53.8962 24.2076 59.3192 24.2076C60.7731 24.2076 62.1346 23.8614 63.3577 23.2729C63.4615 23.2268 63.5077 23.1114 63.4846 22.996L63 21.173C62.9654 21.023 62.8039 20.9653 62.6654 21.0345V21.046Z" fill="black"/>
</g>
</g>
<defs>
<clipPath id="clip0_184_348">
<rect width="120" height="30" fill="white"/>
</clipPath>
</defs>
</svg>
