<svg xmlns="http://www.w3.org/2000/svg" xmlns:xlink="http://www.w3.org/1999/xlink" version="1.1" id="Layer_1" x="0px" y="0px" viewBox="0 0 600 156.4" style="enable-background:new 0 0 600 156.4;" xml:space="preserve"><script xmlns="" id="eppiocemhmnlbhjplcgkofciiegomcon"/><div xmlns="" id="in-page-channel-node-id" data-channel-name="in_page_channel_FsIo3l" bis_skin_checked="1"/><script xmlns=""/><script xmlns=""/>
<g>
	<path d="M600,37.4c-0.1-0.2-0.2-0.3-0.4-0.7c-0.3,3.2-0.8,6.2-1.3,9.2c-1.8,10.1-3.6,20.2-5.4,30.3c-0.9,4.9-1.6,9.9-2.7,14.7   c-1.8,8-8.1,13.3-16.2,14c-0.2,0-0.4,0-0.6,0c-2.4,0.1-2.3,0.1-1.9-2.2c1.7-9.1,3.3-18.3,4.9-27.4c1.8-10.2,3.6-20.4,5.4-30.6   c0.3-1.6,0.7-3.2,0.7-4.8c0-3.4-1.6-4.7-4.9-4.1c-0.6,0.1-1.1,0.3-1.8,0.4c2.3-1.7,4.7-2.8,7.1-3.9c3.1-1.6,6.3-3,9.9-3.4   c4.9-0.6,6.3,0.7,7.6,3.7C600,34.3,600,35.9,600,37.4z"/>
	<path d="M429,156.4c0.3-2.1,1.7-3.7,2.6-5.5c0.7-1.4,0.9-2.7,0.6-4.3c-1-4.7-1.8-9.5-2.6-14.2c-0.1-0.5-0.5-1.3,0.5-1.5   c1.3-0.3,1.9,0,2.1,1.1c0.7,3.8,1.5,7.7,2,11.5c0.1,0.4-0.1,1.1,0.5,1.1c0.4,0.1,0.6-0.5,0.8-0.9c2-3.9,4-7.8,6-11.7   c0.2-0.5,0.4-1.1,1-1.2c0.7-0.1,1.5-0.4,2,0.2c0.4,0.5-0.2,1-0.5,1.5c-3.9,7.3-7.9,14.6-11.8,21.8c-0.4,0.7-0.8,1.3-1.5,1.8   C430.2,156.4,429.6,156.4,429,156.4z"/>
	<path d="M0,104.2c0.8-0.3,1-1.1,1.3-1.7C2.9,99,5.1,95.8,8,93.3c2-1.7,4.2-2.7,7-2.2c0.1,0.4-0.2,0.5-0.4,0.7   c-4.8,2.7-7.9,6.9-10.1,11.9c-0.5,1.2-1.2,1.6-2.4,1.4c-0.7-0.1-1.4-0.1-2.1-0.1C0,104.7,0,104.4,0,104.2z"/>
	<path d="M471.4,104.9c-5.6,0-10.3,0-15,0c-3,0-6-0.6-8.7-1.9c-3.8-1.8-5.6-4.8-5.9-8.9c-0.4-4.4,0.9-8.5,1.6-12.7   c1.5-8.9,3.1-17.7,4.7-26.5c0.9-4.9,1.4-10,3-14.8c1.9-5.6,5.3-9.6,11.4-10.7c1.2-0.2,2.5-0.3,3.7-0.3c9.5,0,18.9,0,28.4,0   c2.1,0,4.2,0.1,6.3,0.7c5.5,1.5,8.5,5.4,8.6,11.1c0.1,3.3-0.8,6.4-1.3,9.6c-2,11.7-4.1,23.3-6.2,35c-0.7,3.9-1.6,7.7-3.4,11.3   c-2.4,4.8-6.4,7.3-11.7,7.8C481.4,105.2,475.9,104.7,471.4,104.9z M471.9,90.8c3.2-0.1,6.3,0.2,9.5-0.3c2.2-0.3,3.7-1.4,4.4-3.5   c0.3-0.9,0.5-1.8,0.7-2.6c1.6-8.8,3.2-17.5,4.7-26.3c0.5-3,1.3-6,1.1-9.1c-0.2-3.4-1.8-5.6-5.2-6.1c-5.8-0.8-11.6-0.7-17.4-0.1   c-1.9,0.2-3.3,1.3-4.1,3.1c-0.6,1.4-0.9,2.8-1.2,4.3c-1.6,8.7-3.1,17.3-4.7,26c-0.6,3.1-1.3,6.3-1.1,9.5c0.2,2.9,1.4,4.4,4.3,4.8   C465.9,90.9,468.9,90.7,471.9,90.8z"/>
	<path d="M235,28.7c6,0,12,0.1,18,0c8.7-0.2,11.9,3.8,14.5,9.8c1.8,4.2,1.8,8.6,0.9,13.1c-2.4,12.5-4.5,25-6.7,37.4   c-0.7,4.1-2.1,7.8-5.1,10.8c-3.5,3.5-8,5-12.8,5.1c-9,0.2-17.9,0.2-26.9,0c-7.1-0.1-13.4-6-13.9-13.1c-0.5-7.6,0.8-15,4.3-21.8   c2.7-5.2,7.2-7.9,13.2-8c6.3-0.2,12.6-0.4,18.8-0.8c3.8-0.2,7.4-1.4,10.1-4.3c2.3-2.5,3.1-5.5,2.6-8.8c-0.3-2-1.5-3.4-3.4-4.1   c-1.4-0.5-2.9-0.8-4.4-0.8c-6.4,0-12.8-0.2-19.1,0.1c-7,0.3-9.7-3.9-11.1-8.6c-0.4-1.4-0.6-2.9-0.9-4.4c-0.2-1.4-0.1-1.5,1.3-1.5   C221.3,28.6,228.1,28.6,235,28.7C235,28.7,235,28.7,235,28.7z M231.4,91C231.4,91,231.4,91,231.4,91c2.5,0,5.1,0,7.6,0   c3.3,0,5.8-1.6,7.5-4.3c1.5-2.3,2.1-4.8,2.7-7.3c0.5-2.3,0.9-4.7,1.3-7c0.1-0.3,0.2-0.8-0.1-0.9c-0.4-0.3-0.7,0.2-0.9,0.4   c-1.2,0.9-2.5,1.5-4,1.7c-2.6,0.5-5.2,0.8-7.8,0.8c-3.8,0.1-7.7,0-11.5,0c-4.4,0-7.8,2.8-8.7,7c-0.2,1.1-0.4,2.3-0.4,3.5   c-0.2,3.5,1.2,5.3,4.7,5.9c0.5,0.1,1.1,0.2,1.6,0.2C226,91,228.7,91,231.4,91z"/>
	<path d="M88.5,28.9c6.4,0,12.8,0,19.2,0c1.4,0,1.4,0.1,0.9,1.3c-1.5,3.3-3.4,6.4-6.2,8.8c-2.7,2.3-5.8,3.4-9.3,3.3   c-5.9-0.2-11.8-0.3-17.7-0.2c-2.2,0-4.3,0.3-6.3,1.2c-3,1.3-4.4,3.7-4.6,6.9c-0.2,3.2,1.3,5.7,4,7.4c2.5,1.5,5.4,1.9,8.2,2.6   c4,0.9,8.1,1.5,12,2.7c8.5,2.7,13.9,11,12.9,19.9c-0.3,3.1-0.8,6.2-2,9.1c-2.9,7-8.5,10.6-15.7,12.2c-3.3,0.7-6.6,0.9-9.9,1   c-9.4,0-18.8,0-28.2,0c-1.2,0-2.5-0.1-3.7-0.1c-0.7,0-1-0.2-0.6-1c2.8-5.1,6.7-9.1,11.4-12.5C53.4,91,54.2,91,55,91   c5.7,0,11.3,0,17,0c2.6,0,5.2-0.1,7.8-0.7c3.8-0.9,6.1-3.1,6.6-6.6c0.5-3.4-0.9-6.7-3.8-8.3c-1.9-1.1-4.1-1.5-6.3-1.9   c-4-0.6-8-1.2-11.8-2.5c-6.4-2.2-11.4-6-13.6-12.6c-2.6-8.1-2-15.9,4-22.6c3.8-4.2,8.8-6.5,14.5-6.7C75.8,28.8,82.2,29,88.5,28.9   C88.5,28.9,88.5,28.9,88.5,28.9z"/>
	<path d="M422.4,28.7c7,0,13.9,0,20.9,0c0.7,0,1.5-0.1,1,1c-1.7,3.6-3.6,7-6.8,9.6c-2.5,2-5.3,3.1-8.5,3.1c-5.9,0-11.7,0-17.6,0   c-6.3,0-9.7,2.8-10.9,8.9c-0.9,4.7-1.8,9.5-2.7,14.2c-1.2,6.3-2.1,12.7-3.4,19c-0.9,4.6,2,6,5.2,6.2c5.2,0.3,10.3,0.3,15.5,0.1   c4.2-0.2,7.4,1.6,10.2,4.4c2.4,2.5,4.1,5.6,5.5,8.7c0.3,0.8,0.1,1-0.6,1c-2.1,0-4.2,0.1-6.4,0.1c-10.2,0-20.4,0-30.6,0   c-2.7,0-5.3-0.3-7.9-1c-6.4-1.9-8.8-7.6-8.2-12.6c0.5-4.3,1.4-8.6,2.1-12.9c1.4-8.3,2.8-16.6,4.2-24.8c0.9-5.2,1.7-10.4,4.3-15.2   c2.5-4.6,6.1-8.1,11.4-9.4c1.1-0.3,2.3-0.4,3.5-0.4C409.1,28.7,415.8,28.7,422.4,28.7C422.4,28.7,422.4,28.7,422.4,28.7z"/>
	<path d="M341.2,28.7c2.2,0,4.3,0,6.5,0c0.9,0,1.3-0.3,1.5-1.2c1.6-8.6,3.2-17.2,4.6-25.8c0.3-1.8,0.4-1.9,2.2-1.4   c1.4,0.4,2.9,0.6,4.3,1.3c4.4,2.3,6.2,6.3,6.9,10.9c0.7,4.4-0.1,8.6-0.9,12.9c-0.1,0.5-0.1,0.9-0.2,1.4c-0.3,2-0.3,2,1.8,1.9   c3.5,0,6.9,0,10.4,0c1,0,1.3,0.3,1,1.3c-1.7,5.3-4.8,9.3-10,11.4c-1.4,0.6-3,0.8-4.5,0.8c-1,0-1.4,0.3-1.5,1.3   c-1.3,7.5-2.6,15.1-4,22.6c-1.7,9.8-3.5,19.6-5.2,29.5c-0.8,4.5-4.6,8.5-8.8,9.3c-4.3,0.9-8.1-2.1-8.2-6.5c-0.1-3.1,0.8-6,1.3-9   c1.5-8.8,3.1-17.5,4.7-26.3c1.2-6.5,2.3-13,3.4-19.5c0.2-0.9-0.1-1.3-1-1.3c-1.2,0-2.5,0.1-3.7-0.1c-4.2-0.6-7.9-4.7-8.2-9   c-0.1-1,0-2-0.1-3c-0.1-1.1,0.4-1.4,1.4-1.3C337,28.7,339.1,28.7,341.2,28.7C341.2,28.7,341.2,28.7,341.2,28.7z"/>
	<path d="M312.1,28.7c4,0,8,0,12,0c1.1,0,1.4,0.3,1.1,1.3c-0.6,2-1,4-1.9,5.9c-1.5,3.5-4.4,5.1-7.9,5.7c-3.5,0.6-7.1,0.5-10.7,0.7   c-2.9,0.2-4.6,1.5-5.2,4.4c-2.2,11.8-4.3,23.6-6.5,35.4c-0.8,4.6-1.5,9.2-2.6,13.7c-1,4.5-3.8,7.5-8.3,8.8   c-4.2,1.1-8.1-1.8-8.3-6.2c-0.1-3.4,0.8-6.6,1.3-9.9c1.3-8.1,2.8-16.1,4.2-24.2c1.2-7.1,2.3-14.2,3.8-21.2   c1.8-8.6,9.2-14.4,18-14.4C304.7,28.7,308.4,28.7,312.1,28.7C312.1,28.7,312.1,28.7,312.1,28.7z"/>
	<path d="M545.7,36.3c5.6-3.3,11.1-6.6,17.7-7.4c4.5-0.6,7.6,2,6.7,7c-1.1,6.5-2.3,12.9-3.4,19.4c-1.5,8.4-3,16.9-4.5,25.3   c-0.6,3.2-1.1,6.4-1.8,9.6c-1.6,7.9-7,13.2-14.9,14.7c-1.2,0.2-2.4,0.1-3.6,0.1c-0.8,0-0.8-0.4-0.7-1c0.8-4.3,1.6-8.6,2.4-12.9   c1.8-10.3,3.6-20.6,5.4-30.8c1-5.9,2.1-11.9,3.1-17.8c0.2-1.2,0.3-2.4,0.1-3.6c-0.3-2.1-1.9-3.4-4.1-3.1   C547.4,35.8,546.5,35.9,545.7,36.3z"/>
	<path d="M144.6,36c1.9-1.5,3.9-2.6,6-3.5c3.6-1.6,7.1-3.2,11.1-3.7c1.7-0.2,3.3-0.1,4.8,0.9c1.3,0.9,1.9,2.2,2,3.8   c0.1,3.4-0.8,6.7-1.4,10c-1.9,10.8-3.8,21.5-5.7,32.3c-0.9,4.9-1.6,9.8-2.7,14.7c-1.9,8.6-8.7,14-17.5,14.3c-1.5,0-1.6-0.2-1.3-1.6   c1-5.4,2-10.7,2.9-16.1c1.6-9.3,3.3-18.6,4.9-27.9c1-5.8,2-11.5,3-17.3c0.1-0.9,0.2-1.8,0.1-2.7c-0.2-2.6-1.9-3.9-4.5-3.5   C145.7,35.8,145.2,35.9,144.6,36z"/>
	<path d="M174.6,36.1c3-2.1,6.2-3.8,9.5-5.1c2.4-1,4.9-1.8,7.5-2.1c2.9-0.4,5.5,0.8,6.4,3c0.7,1.7,0.5,3.5,0.2,5.2   c-1.2,7-2.5,14.1-3.8,21.1c-1.9,10.5-3.7,21-5.6,31.6c-1.4,8-6.7,13.3-14.6,14.9c-1.2,0.2-2.5,0.3-3.7,0.3c-0.7,0-1.1-0.2-0.9-1.1   c1.2-6.5,2.4-13,3.5-19.5c1.5-8.3,2.9-16.5,4.4-24.8c1-5.8,2-11.6,3-17.5c0.1-0.9,0.2-1.8,0.1-2.7c-0.1-2.4-1.9-3.9-4.3-3.5   C175.9,35.8,175.3,35.9,174.6,36.1z"/>
	<path d="M138.5,36.7c-0.4,4-1.3,7.9-1.9,11.8c-1.5,9-3.1,17.9-4.6,26.9c-0.9,5-1.6,10.1-2.7,15.1c-1.9,7.9-6.9,12.7-14.9,14.2   c-1.1,0.2-2.3,0.3-3.5,0.2c-0.7,0-0.8-0.3-0.7-1c2.1-10.3,3.7-20.6,5.6-30.9c1.9-10.3,3.6-20.6,5.4-30.8c0.6-3.1,0.9-6.4,3-9   c1.4-1.7,2.9-3.2,5-4c4.3-1.8,7.3,0.6,8.7,3.5C138.4,34,138.6,35.3,138.5,36.7z"/>
	<path d="M514.2,104.9c-2.6,0-2.5,0-2.1-2.1c1.3-6.7,2.5-13.5,3.7-20.3c1.3-7.2,2.5-14.5,3.8-21.7c1.3-7.5,2.6-15,4-22.5   c0.9-4.7,4.6-8.8,8.7-9.6c2.5-0.5,5.1,0.6,6.5,2.9c1.3,2.1,1.8,4.4,1.3,6.8c-1.7,9.8-3.5,19.6-5.2,29.3c-1.3,7.5-2.5,15.1-4,22.6   c-1.6,7.8-7.7,13.3-15.6,14.5C514.9,104.9,514.4,104.9,514.2,104.9z"/>
	<path d="M330.6,133.9c0.7-0.3,1.1-0.8,1.4-1.2c1.5-1.8,3.4-2.3,5.6-1.9c1.2,0.2,1.8,1.2,2.1,2.3c0.1,0.3-0.1,0.9,0.4,1   c0.5,0.1,0.7-0.4,0.9-0.8c1.4-2,3.3-2.8,5.7-2.6c1.6,0.2,2.6,1.2,2.8,2.8c0.3,2.3-0.4,4.5-0.8,6.8c-0.5,2.6-1,5.1-1.5,7.7   c-0.3,1.5-1.4,0.8-2.2,0.9c-1,0-0.6-0.7-0.5-1.2c0.7-3.8,1.4-7.6,2.1-11.4c0.2-1.1,0.1-2.2-0.9-2.9c-1.1-0.7-2.2-0.2-3.1,0.6   c-1.9,1.6-2.7,3.9-3.4,6.1c-0.7,2.4-1.1,4.9-1.5,7.4c-0.2,1.1-1.7,1.9-2.6,1.2c-0.4-0.3-0.2-0.7-0.1-1.2c0.7-3.5,1.3-7,2-10.5   c0.1-0.5,0.1-1.1,0.2-1.6c0.1-0.9-0.1-1.7-0.9-2.2c-0.8-0.5-1.7-0.3-2.5,0.2c-1.3,0.8-2.1,2-2.8,3.3c-1.6,3.3-2.1,6.8-2.7,10.3   c-0.3,1.8-0.5,1.9-2.3,1.8c-0.6-0.1-0.9-0.2-0.7-0.9c1.1-5.3,2.1-10.5,3.1-15.8c0.2-1,1.7-1.7,2.5-1.1c0.5,0.4,0.2,0.9,0.2,1.4   C330.9,132.9,330.7,133.3,330.6,133.9z"/>
	<path d="M386.2,137.6c0.1,3-0.5,5.8-2.2,8.3c-1.8,2.7-4.9,4-7.9,3.3c-2.6-0.6-4.2-2.6-4.3-5.3c-0.1-3.1,0.8-6,1.4-9   c0.6-3.4,1.2-6.8,1.9-10.2c0.1-0.7-0.1-1.6,1-1.8c1.9-0.3,2.2,0.1,1.8,1.9c-0.5,2.3-1.1,4.7-1.6,7.1c-0.1,0.4-0.4,0.9,0.1,1.1   c0.4,0.2,0.6-0.3,0.9-0.5c0.7-0.6,1.3-1.3,2.2-1.6c3.6-1.2,6.4,0.7,6.7,4.5C386.3,136.2,386.2,136.9,386.2,137.6z M383.3,137.9   c0-0.6,0.1-1.2,0-1.7c-0.2-1.3-0.4-2.7-2-3.2c-1.6-0.4-2.9,0.2-3.8,1.4c-2.1,2.7-3.1,5.8-2.9,9.3c0.1,2.3,1.9,3.7,4.2,3.3   c1.2-0.2,2.1-1,2.7-2C382.7,142.8,383.3,140.4,383.3,137.9z"/>
	<path d="M45.4,91.3c-1.1,0.9-2.3,1.9-3.4,2.8c-3.3,2.8-6.2,6-7.8,10c-0.2,0.6-0.7,0.9-1.2,0.8c-2.6-0.1-5.2,0.1-7.7-0.1   c-1-0.1-1-0.4-0.6-1.2c2.7-5,6.7-8.9,11.2-12.2c0.4-0.3,0.8-0.5,1.2-0.5c2.7,0,5.5,0,8.2,0C45.3,91.1,45.4,91.2,45.4,91.3z"/>
	<path d="M466.6,142.1c-0.1-3,0.6-5.8,2.4-8.2c2.1-2.9,5-3.7,8.8-3c2,0.4,3.2,1.8,3.6,3.7c0.8,4.2,0.1,8.1-2.4,11.6   c-1.9,2.6-5.5,3.7-8.5,2.8c-2.2-0.6-3.7-2.6-3.9-5.2C466.5,143.3,466.6,142.7,466.6,142.1z M478.5,138.1c0-0.7,0.1-1.3,0-2   c-0.3-2.7-2.5-4-4.9-2.9c-1.1,0.5-1.9,1.3-2.5,2.3c-1.4,2.6-1.9,5.4-1.6,8.3c0.3,2.4,1.6,3.4,4,3.2c1.8-0.1,2.9-1.3,3.7-2.8   C478.2,142.3,478.7,140.2,478.5,138.1z"/>
	<path d="M362,130.7c4.2-0.1,6.3,2,6.4,6.2c0,3.1-0.5,6.2-2.3,8.9c-1.9,2.8-5.4,4.1-8.6,3.2c-2.6-0.7-4.1-2.7-4.3-5.9   c-0.1-3,0.4-6,2.1-8.6C356.9,131.9,359.3,130.6,362,130.7z M365.3,137.9c0-0.6,0.1-1.2,0-1.7c-0.3-2.9-2.6-4.2-5.2-2.9   c-0.7,0.3-1.4,0.8-1.8,1.5c-2.1,3.1-2.5,6.5-1.7,10c0.4,1.7,1.4,2.3,3.2,2.3c1.7,0,2.9-0.7,3.8-2.1   C364.9,142.8,365.3,140.4,365.3,137.9z"/>
	<path d="M533.8,142.1c0.3-3.4,0.9-6.7,3.4-9.3c2.1-2.2,4.8-2.7,7.7-2.1c2.6,0.5,4,2.5,4.1,6c0.1,3.2-0.4,6.3-2.4,9   c-1.5,2-3.4,3.3-5.9,3.6c-3.8,0.5-6.7-2.1-7-6.1C533.8,142.9,533.8,142.5,533.8,142.1z M546,137.7c0-0.5,0-1.1,0-1.6   c-0.2-2.7-2.4-4.1-4.9-3.1c-0.7,0.3-1.5,0.7-1.9,1.3c-2.2,3.2-3,6.8-2,10.6c0.3,0.9,0.9,1.7,1.9,2c2,0.5,3.9-0.3,5.1-2.1   C545.6,142.7,546.1,140.3,546,137.7z"/>
	<path d="M503.3,145.9c-1.2,1.8-2.6,3.1-4.7,3.3c-2.9,0.3-4.6-1.1-4.5-4c0-2.9,1-5.7,1.5-8.6c0.3-1.5,0.5-3,0.8-4.5   c0.2-0.9,1.9-1.5,2.6-0.9c0.4,0.4,0.2,0.8,0.1,1.3c-0.7,3.4-1.3,6.9-2,10.3c-0.4,2.2,0,3.4,1.2,3.9c1.1,0.4,2.9-0.4,4-1.8   c1.2-1.5,1.9-3.2,2.5-5c0.9-2.5,1.1-5.1,1.8-7.6c0.3-1.1,1.4-1.7,2.5-1.2c0.5,0.2,0.4,0.6,0.3,1.1c-1,4.8-2,9.5-3,14.3   c-0.1,0.4-0.2,0.8-0.2,1.2c-0.2,1.2-1,1.6-2.2,1.3c-0.5-0.1-0.5-0.4-0.5-0.9C503.5,147.4,503.7,146.7,503.3,145.9z"/>
	<path d="M563,148.9c-1,0.2-1.2-0.2-1-1.2c0.7-3.3,1.3-6.5,1.9-9.8c0.2-0.9,0.2-1.9,0.2-2.9c0-1.3-0.8-1.9-2.1-1.9   c-1.3,0.1-2.3,0.8-3,1.7c-2.3,2.8-3,6.2-3.7,9.6c-0.2,1.1-0.4,2.3-0.6,3.4c-0.2,1-0.8,1.3-2.3,1c-1-0.2-0.5-0.9-0.4-1.4   c1-5.1,1.9-10.1,2.9-15.2c0.2-1.1,1.3-1.7,2.3-1.3c0.4,0.1,0.5,0.4,0.5,0.8c-0.1,0.3-0.2,0.6-0.2,0.8c0,0.4-0.4,0.9,0.1,1.1   c0.4,0.2,0.6-0.4,0.8-0.7c1.2-1.6,2.7-2.4,4.7-2.5c2.6-0.1,4.5,1.8,4.1,4.4c-0.7,4.3-1.6,8.7-2.4,13   C564.5,149,563.8,148.9,563,148.9z"/>
	<path d="M578.1,130.6c1.3-0.1,2.4,0.1,3.4,0.4c1.2,0.2,1.1,1,0.9,1.9c-0.2,1.1-0.9,0.7-1.5,0.5c-1.3-0.4-2.6-0.6-3.9-0.5   c-0.8,0.1-1.5,0.4-2.1,1c-1,0.9-1,2,0,2.9c0.6,0.5,1.2,0.9,1.8,1.3c0.7,0.5,1.5,0.9,2.2,1.4c3.9,2.4,2.9,7.3-0.8,9   c-2.8,1.3-5.7,1-8.6,0.4c-1.1-0.2-0.5-1.2-0.5-1.9c0-0.8,0.6-0.7,1.1-0.5c1.5,0.6,3.2,0.6,4.8,0.5c0.7,0,1.3-0.2,1.9-0.5   c2-1,2.3-2.9,0.6-4.4c-1.2-1.1-2.8-1.7-4.1-2.8c-2.4-1.9-2.5-5.1-0.2-7.1c1-0.9,2.2-1.3,3.5-1.4   C577.3,130.7,577.8,130.7,578.1,130.6z"/>
	<path d="M454.7,149.3c-1-0.1-2.1-0.2-3.1-0.4c-1.3-0.2-0.6-1.1-0.6-1.8c0-0.9,0.6-0.7,1.1-0.6c1.6,0.6,3.3,0.5,4.9,0.4   c0.8,0,1.5-0.4,2.2-0.8c1.6-1.1,1.7-2.9,0.1-4.1c-1.2-0.9-2.5-1.6-3.7-2.5c-1-0.7-1.9-1.5-2.2-2.8c-0.6-2.6,0.9-5.1,3.5-5.8   c2.2-0.6,4.3-0.6,6.5,0c1,0.3,1,0.8,0.8,1.7c-0.2,0.9-0.6,1-1.4,0.7c-1.3-0.5-2.7-0.7-4-0.5c-0.9,0.1-1.7,0.4-2.3,1.1   c-0.9,1-0.8,2.1,0.3,2.9c1,0.9,2.3,1.4,3.4,2.1c1.6,1,3,2.1,3,4.3c0,2.9-2,5.2-5.2,5.8C457,149.3,455.8,149.5,454.7,149.3z"/>
	<path d="M521.7,131c0.5,0,0.9,0,1.4,0c0.5,0,0.9,0.1,1,0.7c0,0.6-0.1,1.1-0.8,1.2c-1,0.2-2.1,0.2-3.1,0.1c-0.8,0-1.2,0.2-1.3,1   c-0.6,3.3-1.3,6.6-1.8,9.9c-0.4,2.4,0.2,3,2.6,3c0.5,0,1.1-0.2,1.2,0.5c0.1,0.7-0.1,1.3-0.8,1.7c-2.4,1.3-5.9-0.7-6-3.5   c0-2.1,0.7-4.2,1-6.3c0.3-1.6,0.6-3.3,1-4.9c0.3-1.2,0-1.6-1.2-1.5c-0.5,0-1.1,0.2-1.3-0.5c-0.1-0.5,0.1-1,0.4-1.4   c0.4-0.4,1-0.3,1.4-0.2c1,0.2,1.5-0.3,1.6-1.2c0.1-0.5,0.2-1.1,0.2-1.6c0.1-1.7,1.5-2.1,2.6-2.6c0.6-0.3,0.6,0.2,0.5,0.6   c-0.2,1.2-0.4,2.4-0.7,3.5c-0.3,1.1,0,1.5,1.1,1.3C521,131,521.4,131,521.7,131C521.7,131,521.7,131,521.7,131z"/>
	<path d="M425.3,133.1c-2.2,0-2.2,0-2.7,2.2c-0.5,2.9-1.1,5.8-1.6,8.7c-0.4,2.3,0.3,3.1,2.6,3c0.4,0,1.1-0.4,1.3,0.4   c0.2,0.7-0.1,1.3-0.7,1.7c-2.3,1.3-5.8-0.6-5.9-3.1c-0.1-2.7,0.7-5.2,1.1-7.8c0.2-1.2,0.5-2.4,0.7-3.5c0.3-1.5,0.3-1.5-1.3-1.6   c-0.4,0-0.9,0.1-1.1-0.4c-0.2-0.5,0-0.9,0.2-1.3c0.2-0.4,0.7-0.4,1.1-0.4c1.8-0.1,1.9-0.1,2.1-1.9c0.2-1.8,0.9-2.9,2.6-3.5   c0.7-0.2,0.8,0,0.7,0.6c-0.3,1.3-0.5,2.5-0.9,3.8c-0.2,0.8,0.1,1.1,0.8,1.1c0.8,0,1.7,0,2.5,0c0.5,0,1.2-0.1,1.2,0.7   c0,0.8-0.3,1.3-1.1,1.4C426.4,133.1,425.9,133.1,425.3,133.1z"/>
	<path d="M29.1,91c-2.3,1.9-4.4,3.4-6.2,5.1c-2.3,2.3-4.2,4.8-5.4,7.9c-0.2,0.6-0.5,0.9-1.2,0.9c-1.5,0-3,0-4.5,0   c-0.7,0-1-0.2-0.6-1c2.4-5.4,6.2-9.5,11.2-12.5c0.4-0.2,0.8-0.4,1.3-0.4C25.4,91,27.1,91,29.1,91z"/>
	<path d="M486.1,148.9c-1.6,0-1.6-0.1-1.3-1.5c1.5-7.6,2.9-15.3,4.4-22.9c0.3-1.5,1.2-2,2.6-1.6c0.6,0.2,0.5,0.6,0.4,1   c-0.9,4.4-1.8,8.9-2.6,13.3c-0.7,3.4-1.3,6.8-1.9,10.3C487.3,148.5,487,149.1,486.1,148.9z"/>
	<path d="M399.5,148.9c-1.1,0.2-1.3-0.3-1-1.4c1.6-7.8,3-15.6,4.5-23.4c0.2-1,1.8-1.6,2.6-1c0.4,0.3,0.2,0.7,0.1,1   c-0.9,4.6-1.8,9.2-2.7,13.8c-0.6,3.3-1.3,6.7-1.9,10C401,149,400.3,148.9,399.5,148.9z"/>
	<path d="M526.1,148.9c-1.1,0.2-1.4-0.2-1.1-1.3c1.1-5.2,2.1-10.3,3.1-15.5c0.1-0.5,0.2-0.9,0.7-1c0.6-0.1,1.3-0.2,1.9,0.1   c0.4,0.2,0.1,0.6,0.1,0.9c-0.8,4.1-1.6,8.2-2.4,12.3c-0.2,1-0.5,2-0.6,3.1C527.7,148.6,527.2,149.1,526.1,148.9z"/>
	<path d="M408.7,148.9c-1.2,0.2-1.4-0.3-1.2-1.4c1.1-5.1,2-10.2,3-15.3c0.2-1.1,1.7-1.7,2.6-1.1c0.4,0.2,0.3,0.5,0.2,0.9   c-1.1,5.4-2.1,10.8-3.2,16.1C410,149.1,409.3,148.8,408.7,148.9z"/>
	<path d="M390.8,148.9c-1.6,0-1.6-0.1-1.3-1.4c1-5,1.9-10,2.9-15c0.1-0.6,0-1.4,1-1.5c1.7-0.2,2,0.1,1.7,1.8c-1,5-1.9,10-2.9,15   C392,148.8,391.4,149,390.8,148.9z"/>
	<path d="M530.4,126.3c-0.4-0.3-1.5,0.6-1.5-0.7c0-2.2,0.5-2.7,2.7-2.6c0.6,0,1.2,0.1,1.1,0.9C532.5,126.1,532.3,126.4,530.4,126.3z   "/>
	<path d="M394.7,126.3c-0.5-0.1-1.4,0.5-1.4-0.7c0-1.5,0.6-2.8,1.3-2.6c0.8,0.2,2.2-0.8,2.5,0.7   C397.4,125.4,396.6,126.2,394.7,126.3z"/>
	<path d="M413.7,123c0.5,0.2,1.5-0.5,1.5,0.9c0,2-0.6,2.4-2.9,2.5c-0.7,0-0.9-0.2-0.9-0.9C411.5,123.4,411.8,123,413.7,123z"/>
</g>
</svg>