<?xml version="1.0" encoding="utf-8"?>
<!-- Generator: Adobe Illustrator 27.7.0, SVG Export Plug-In . SVG Version: 6.00 Build 0)  -->
<svg version="1.1" id="Layer_1" xmlns="http://www.w3.org/2000/svg" xmlns:xlink="http://www.w3.org/1999/xlink" x="0px" y="0px"
	 viewBox="0 0 196 30" style="enable-background:new 0 0 196 30;" xml:space="preserve">
<g>
	<path d="M36.2,30H15.6c-1.7,0-3.1-1.4-3.1-3.1v-5.1h-4c-1,0-1.8-0.8-1.8-1.8s0.8-1.8,1.8-1.8h4v-5.1c0-1.7,1.4-3.2,3.1-3.2h27
		c1,0,1.8,0.8,1.8,1.8s-0.8,1.8-1.8,1.8H16v4.7l20.2,0c3.2,0,5.9,2.6,5.9,5.9v0.1C42,27.4,39.4,30,36.2,30z M16,26.5h20.2
		c1.3,0,2.3-1,2.3-2.3v-0.1c0-1.3-1-2.3-2.3-2.3l-20.2,0V26.5z"/>
	<path d="M59.7,0.9c-0.2-0.3-0.5-0.5-0.8-0.6c-0.3-0.1-0.7-0.1-1-0.1c-0.3,0.1-0.6,0.3-0.9,0.5c-1.5,1.6-3.1,3.1-4.9,4.4
		c-3,2.2-6.3,3.8-9.8,4.9v3.4c3.6,1.1,6.9,2.7,9.8,4.9c1.8,1.3,3.4,2.8,4.9,4.4c0.2,0.2,0.4,0.3,0.6,0.4c0.2,0.1,0.5,0.1,0.7,0.1
		c0.2,0,0.4,0,0.6-0.1c0.3-0.1,0.6-0.3,0.8-0.6c0.2-0.3,0.3-0.6,0.3-1V1.9C60,1.6,59.9,1.2,59.7,0.9z M56.7,17.7
		c-0.8-0.7-1.7-1.4-2.5-2.1c-2.1-1.5-4.3-2.8-6.7-3.9c2.4-1,4.6-2.3,6.7-3.9c0.9-0.6,1.7-1.3,2.5-2.1V17.7z"/>
	<path d="M3.4,21.8H1.8C0.8,21.8,0,21,0,20s0.8-1.8,1.8-1.8h1.7c1,0,1.8,0.8,1.8,1.8S4.4,21.8,3.4,21.8z"/>
	<path d="M66.3,4.2h-1.7c-1,0-1.8-0.8-1.8-1.8s0.8-1.8,1.8-1.8h1.7c1,0,1.8,0.8,1.8,1.8S67.3,4.2,66.3,4.2z"/>
	<path d="M66.3,22.7h-1.7c-1,0-1.8-0.8-1.8-1.8c0-1,0.8-1.8,1.8-1.8h1.7c1,0,1.8,0.8,1.8,1.8C68.1,21.9,67.3,22.7,66.3,22.7z"/>
	<path d="M71.7,13.5H70c-1,0-1.8-0.8-1.8-1.8c0-1,0.8-1.8,1.8-1.8h1.7c1,0,1.8,0.8,1.8,1.8C73.5,12.7,72.7,13.5,71.7,13.5z"/>
</g>
<path d="M83,7.9v7.5c0,2.6,0.3,3.9,1.5,5c1,1,2.1,1.4,4,1.4c0.6,0,1.1,0,1.9-0.2l0.4-3.2c-0.6,0.1-1,0.2-1.5,0.2
	c-1.8,0-2.7-1-2.7-3.2V7.9h3.7l0.5-2.8h-4.2V0.2L83,2v3.1h-1.4L81,7.9L83,7.9L83,7.9z M96,21.2v-7.1c0-3.5,1.9-6.1,4.6-6.1
	c0.2,0,0.3,0,0.6,0l1.1-3.4c-0.5-0.1-0.7-0.1-1-0.1c-1.5,0-2.9,0.5-3.8,1.3c-0.5,0.5-1.1,1.3-1.7,2.5V4.8l-3.4,0.5v16.5L96,21.2z
	 M114.2,21.7l3.5-0.4V4.8l-3.5,0.5v8.6c0,1.4-0.1,1.7-0.2,2.2c-0.5,1.6-1.9,2.6-3.6,2.6c-1.5,0-2.6-0.7-2.8-1.9
	c-0.1-0.4-0.1-0.8-0.1-1.8V4.8l-3.6,0.5v9.2c0,1.2,0,2.1,0.1,2.8c0.3,2.9,2.3,4.6,5.3,4.6c1.9,0,3.1-0.5,4.3-1.8
	c0.3-0.3,0.4-0.4,0.7-0.9L114.2,21.7L114.2,21.7z M125.4,21.4v-9.3c0-2.5,1.4-4.5,3.3-4.5c1.1,0,2,0.6,2.4,1.5
	c0.2,0.3,0.2,0.8,0.2,1.4v11l3.5-0.5v-8.5c0-1.9,0.2-2.6,0.9-3.5c0.7-0.9,1.5-1.3,2.5-1.3c1.3,0,2.3,0.8,2.6,1.9
	c0.1,0.5,0.1,1.3,0.1,2v10l3.5-0.5v-11c0-3.6-1.8-5.6-5-5.6c-1.9,0-3.2,0.5-4.3,1.9c-0.3,0.3-0.4,0.5-0.7,1c-0.4-1-0.8-1.6-1.5-2.1
	c-0.7-0.5-1.9-0.8-2.9-0.8c-1.8,0-3.1,0.6-4,1.8c-0.3,0.3-0.4,0.5-0.7,1.1V4.8l-3.4,0.4v16.5L125.4,21.4z M152.1,27.5v-8.4
	c1.6,2,3.4,2.8,5.7,2.8c4.6,0,8.2-3.8,8.2-8.6c0-5-3.6-8.7-8.3-8.7c-2.4,0-3.9,0.8-5.6,2.9V4.7l-3.5,0.6v22.6L152.1,27.5z
	 M157.3,7.9c2.9,0,5.2,2.4,5.2,5.4c0,3-2.3,5.3-5.2,5.3c-2.9,0-5.2-2.3-5.2-5.3C152.1,10.3,154.3,7.9,157.3,7.9z M185.2,9
	c-2.3-3.1-4.6-4.4-7.8-4.4c-5,0-8.7,3.7-8.7,8.6c0,4.9,3.8,8.6,8.9,8.6c2.2,0,4.3-0.7,6-2.1c0.5-0.4,0.8-0.6,1.4-1.3l-2.3-2.2
	c-1.6,1.7-3.1,2.5-5,2.5c-1.8,0-3.1-0.7-4.2-2.2L185.2,9z M172.3,14.1c-0.1-0.6-0.1-0.8-0.1-1.2c0-2.9,2.3-5.3,5.1-5.3
	c1.3,0,2.1,0.3,3.3,1.2L172.3,14.1z M188.2,7.9v7.5c0,2.6,0.3,3.9,1.5,5c1,1,2.1,1.4,4,1.4c0.6,0,1.1,0,1.9-0.2l0.4-3.2
	c-0.6,0.1-1,0.2-1.5,0.2c-1.8,0-2.7-1-2.7-3.2V7.9h3.7l0.5-2.8h-4.2V0.2L188.2,2v3.1h-1.4l-0.6,2.8L188.2,7.9L188.2,7.9z"/>
</svg>
