<svg width="54" height="57" viewBox="0 0 54 57" fill="none" xmlns="http://www.w3.org/2000/svg">
<g id="C3 2">
<g id="Group">
<path id="Vector" d="M3.90416 51.2021C6.30174 55.3952 11.5991 56.8366 15.7625 54.4124L46.6556 36.3624C50.8028 33.9383 52.2284 28.5822 49.8308 24.3728C47.4332 20.1797 42.1359 18.7383 37.9725 21.1624L7.07934 39.2124C2.91597 41.6366 1.50658 47.009 3.90416 51.2021Z" stroke="white" stroke-width="2" stroke-miterlimit="10" stroke-linecap="round"/>
<path id="Vector_2" d="M3.90416 6.33912C6.28554 2.14601 11.5991 0.721012 15.7463 3.12877L46.6556 21.1788C50.8028 23.6029 52.2284 28.9589 49.8308 33.1684C47.4332 37.3615 42.1359 38.8029 37.9725 36.3788L7.07934 18.3288C2.91597 15.9046 1.50658 10.5486 3.90416 6.33912Z" stroke="white" stroke-width="2" stroke-miterlimit="10" stroke-linecap="round"/>
<path id="Vector_3" d="M11.4047 1.96582C16.1999 1.96582 20.0878 5.88048 20.0878 10.7288V46.8124C20.0878 51.6606 16.1999 55.5917 11.4047 55.5917C6.60953 55.5917 2.72156 51.6606 2.72156 46.8124V10.7288C2.73776 5.88048 6.62573 1.96582 11.4047 1.96582Z" stroke="white" stroke-width="2" stroke-miterlimit="10" stroke-linecap="round"/>
</g>
</g>
</svg>
