<svg
  xmlns="http://www.w3.org/2000/svg"
  width="115"
  height="23"
  viewBox="0 0 115 23"
  fill="black"
>
  <g clip-path="url(#clip0_2_128)">
    <path d="M36.8094 0.816895C34.4039 0.816895 33.2606 1.06789 32.0102 1.55794L31.784 1.64161L33.1415 4.06794L33.3083 4.00818C34.2371 3.6257 35.2613 3.49423 37.1786 3.49423H39.2149C42.1921 3.49423 43.895 4.97632 43.895 7.59389V15.6378C43.895 18.2554 42.1921 19.7375 39.2149 19.7375H35.8924C32.8438 19.7375 31.3553 18.5064 31.3553 15.9606C31.3553 13.4267 32.8438 12.2075 35.8924 12.2075H40.5129V9.51823H35.7495C31.2243 9.51823 28.6282 11.8848 28.6282 15.9964C28.6282 19.9766 31.3553 22.4507 35.7495 22.4507H39.334C44.3356 22.4507 46.622 19.104 46.622 15.9964V7.24727C46.622 4.13966 44.3356 0.816895 39.334 0.816895H36.8094ZM56.9587 0.816895C51.9571 0.816895 49.6706 4.15161 49.6706 7.24727V15.9964C49.6706 19.104 51.9571 22.4507 56.9587 22.4507H60.0549C62.6033 22.4507 64.2705 22.0802 65.6043 21.2077L65.771 21.0881L64.2229 18.8172L64.0562 18.9247C63.0559 19.5343 61.7936 19.7614 59.6976 19.7614H57.0778C54.0649 19.7614 52.3977 18.3152 52.3977 15.6617V7.60584C52.3977 4.95242 54.0649 3.50618 57.0778 3.50618H59.6976C61.7816 3.50618 63.044 3.75718 64.0562 4.36675L64.2229 4.47432L65.771 2.19142L65.6043 2.08385C64.2586 1.19937 62.5914 0.816895 60.043 0.816895H56.9587ZM74.7977 0.816895C69.7842 0.816895 67.4978 4.15161 67.4978 7.24727V15.9964C67.4978 19.104 69.7842 22.4507 74.7858 22.4507H78.3584C83.36 22.4507 85.6226 19.104 85.6226 15.9964V7.24727C85.6226 4.13966 83.3362 0.816895 78.3227 0.816895H74.7977ZM95.9354 0.864704C91.6245 0.864704 88.8379 3.32689 88.8379 7.1158V22.3551H91.565V7.46242C91.565 4.83289 93.0297 3.54204 96.0664 3.54204C98.9364 3.54204 100.52 4.8568 100.52 7.22337V22.3551H103.247V7.21142C103.247 4.84485 104.831 3.53008 107.701 3.53008C110.738 3.53008 112.214 4.82094 112.214 7.45046V22.3431H114.918V7.1158C114.918 3.32689 112.131 0.864704 107.82 0.864704C104.938 0.864704 103.2 1.58185 101.878 3.29104C100.556 1.56989 98.8173 0.864704 95.9354 0.864704ZM0 0.960323V16.1996C0 19.9885 2.7866 22.4507 7.09751 22.4507C9.96747 22.4507 11.718 21.7336 13.0399 20.0244C14.3617 21.7455 16.1004 22.4507 18.9823 22.4507C23.2932 22.4507 26.0798 19.9885 26.0798 16.1996V0.960323H23.3765V15.853C23.3765 18.4825 21.8879 19.7495 18.8632 19.7495C15.9932 19.7495 14.4094 18.4586 14.4094 16.092V0.960323H11.6942V16.092C11.6942 18.4467 10.1104 19.7495 7.24041 19.7495C4.21563 19.7495 2.72706 18.4825 2.72706 15.853V0.960323H0ZM74.9049 3.49423H78.2274C81.2045 3.49423 82.9074 4.97632 82.9074 7.59389V15.6378C82.9074 18.2554 81.2045 19.7375 78.2274 19.7375H74.9049C71.8801 19.7375 70.2248 18.2913 70.2248 15.6378V7.60584C70.2248 4.98827 71.9277 3.49423 74.9049 3.49423Z"></path>
  </g>
  <defs>
    <clipPath id="clip0_2_128">
      <rect
        width="114.93"
        height="21.6338"
        fill="white"
        transform="translate(0 0.816895)"
      />
    </clipPath>
  </defs>
</svg>
